<svg width="39" height="39" viewBox="0 0 39 39" fill="none" xmlns="http://www.w3.org/2000/svg">
<path d="M14.909 28.8471C17.6913 28.8471 19.9468 26.5098 19.9468 23.6267C19.9468 20.7435 17.6913 18.4062 14.909 18.4062C12.1266 18.4062 9.87109 20.7435 9.87109 23.6267C9.87109 26.5098 12.1266 28.8471 14.909 28.8471Z" stroke="#DD264E" stroke-width="3"/>
<path d="M14.7273 36.9999C21.7564 36.9999 27.4545 31.0952 27.4545 23.8115C27.4545 16.5277 21.7564 10.623 14.7273 10.623C7.69819 10.623 2 16.5277 2 23.8115C2 31.0952 7.69819 36.9999 14.7273 36.9999Z" stroke="#DD264E" stroke-width="3"/>
<path d="M15.2148 23.3051L25.9841 13.1602" stroke="#DD264E" stroke-width="3" stroke-linecap="round"/>
<path d="M25.9844 6.05664V12.7988H33.0823" stroke="#DD264E" stroke-width="3" stroke-linecap="round"/>
<path d="M29.9023 2V8.74215H37.0002" stroke="#DD264E" stroke-width="3" stroke-linecap="round"/>
</svg>
