<svg width="38" height="37" viewBox="0 0 38 37" fill="none" xmlns="http://www.w3.org/2000/svg">
<path d="M19.2383 13.0898V21.7879H27.989" stroke="#DD264E" stroke-width="3" stroke-linecap="round"/>
<mask id="mask0_147_20" style="mask-type:alpha" maskUnits="userSpaceOnUse" x="0" y="7" width="38" height="30">
<path d="M19.2362 35.0015C28.7555 35.0015 36.4724 29.2486 36.4724 22.1521C36.4724 15.0556 28.7555 9.30273 19.2362 9.30273C9.71691 9.30273 2 15.0556 2 22.1521C2 29.2486 9.71691 35.0015 19.2362 35.0015Z" stroke="#DD264E" stroke-width="3"/>
</mask>
<g mask="url(#mask0_147_20)">
<path d="M-3.60938 5.11914H20.698V20.7031H44.5194L36.2549 37.012L-3.60938 36.2871V5.11914Z" fill="#DD264E"/>
</g>
<path d="M26.528 8.1773C25.576 8.1773 24.8044 8.75261 24.8044 9.46224C24.8044 10.1719 25.576 10.7472 26.528 10.7472V8.1773ZM36.4974 10.3709C37.1706 9.86905 37.1706 9.05543 36.4974 8.55362L25.5284 0.376352C24.8553 -0.125451 23.7639 -0.125451 23.0908 0.376352C22.4177 0.878154 22.4177 1.69173 23.0908 2.19353L32.8411 9.46224L23.0908 16.731C22.4177 17.2328 22.4177 18.0463 23.0908 18.5481C23.7639 19.0499 24.8553 19.0499 25.5284 18.5481L36.4974 10.3709ZM26.528 10.7472H35.2786V8.1773H26.528V10.7472Z" fill="#DD264E"/>
</svg>
