<svg width="323" height="323" viewBox="0 0 323 323" fill="none" xmlns="http://www.w3.org/2000/svg">
<path fill-rule="evenodd" clip-rule="evenodd" d="M267.778 201.887C303.007 161.118 301.268 99.4439 262.563 60.7382C223.857 22.0324 162.183 20.294 121.414 55.5229L100.156 34.2654C152.684 -12.6535 233.351 -10.9003 283.776 39.525C334.201 89.9503 335.954 170.616 289.035 223.145L267.778 201.887Z" fill="#42CFEE"/>
<path d="M276.96 221.738C276.907 223.726 276.745 225.822 276.584 227.81L276.584 228.025L276.477 228.133C276.047 228.563 275.617 228.993 275.133 229.369L273.736 230.551L273.414 230.874L273.145 230.605L270.673 227.918L270.566 227.81L270.619 227.649L270.727 226.682C269.383 226.628 267.933 226.575 266.643 226.467C266.535 227.434 266.428 228.402 266.267 229.315L272.608 237.161C275.456 234.743 278.411 232.324 281.044 229.691C281.152 228.402 281.259 227.219 281.313 225.983L282.119 226.789L281.904 229.799L281.904 230.014L281.743 230.175C278.841 232.969 275.832 235.549 272.715 238.128L272.339 238.397L272.124 238.074L265.461 229.691L265.353 229.584L265.407 229.423C265.568 228.402 265.729 227.488 265.837 226.413C264.44 226.306 263.042 226.198 261.645 225.983C261.484 227.327 261.269 228.724 261.108 230.067L264.225 230.39L264.386 230.444L264.493 230.551L270.942 238.827L271.157 239.149L270.781 239.418L268.362 241.299C267.556 241.89 266.75 242.481 265.89 243.018C264.225 244.147 262.612 245.329 260.893 246.404L260.732 246.457L260.57 246.404L257.239 245.866C256.863 246.995 256.594 248.123 256.164 249.198L256.11 249.359L255.949 249.413C254.229 250.38 252.456 251.401 250.683 252.315L245.309 255.002L244.879 255.217L244.718 254.84L240.258 245.114L240.204 244.953L240.258 244.792C240.634 243.878 241.064 242.911 241.386 241.943C240.096 241.514 238.753 241.03 237.41 240.546C236.926 241.782 236.442 243.018 235.905 244.308L238.968 245.436L239.129 245.49L239.183 245.651L243.482 255.217L243.643 255.593L243.213 255.808C241.386 256.56 239.559 257.42 237.678 258.118L234.884 259.193L233.487 259.731L232.036 260.214L231.875 260.268L231.713 260.214L228.489 258.817C227.898 259.838 227.253 260.913 226.608 261.88L226.501 261.988L226.34 262.041C224.405 262.579 222.471 263.116 220.536 263.546L214.625 264.836L213.98 265.051L213.926 264.674L211.938 254.196L211.884 254.034L211.992 253.927C212.583 253.121 213.174 252.315 213.765 251.509C212.583 250.756 211.401 250.004 210.272 249.198C209.52 250.273 208.714 251.401 207.854 252.476L210.541 254.303L210.648 254.411L210.702 254.572L212.529 264.889L212.583 265.266L212.099 265.319C210.165 265.642 208.176 266.018 206.134 266.233L203.179 266.609L201.728 266.77L200.223 266.878L200.008 266.878L199.901 266.77L197.16 264.674C196.3 265.534 195.441 266.394 194.635 267.2L194.527 267.308L194.312 267.308C192.324 267.361 190.336 267.415 188.293 267.415C186.305 267.361 184.263 267.361 182.329 267.254L181.845 267.2L181.845 266.77L182.382 256.13L182.382 255.915L182.49 255.808C183.296 255.217 184.048 254.464 184.801 253.819L183.403 252.315L182.006 250.703C180.985 251.616 179.91 252.476 178.889 253.39L181.039 255.754L181.146 255.861L181.093 256.023L180.394 266.501L180.394 266.931L179.91 266.878C177.922 266.716 175.88 266.609 173.892 266.34C171.904 266.072 169.915 265.91 167.927 265.534L167.766 265.48L167.658 265.373L165.509 262.686C164.542 263.331 163.52 263.922 162.499 264.513L162.338 264.567L162.177 264.513C160.243 264.083 158.254 263.707 156.32 263.17C154.385 262.632 152.397 262.149 150.516 261.558L150.086 261.45L150.194 261.02L153.31 250.81L153.364 250.649L153.525 250.595C154.439 250.219 155.352 249.735 156.266 249.252L155.245 247.478L154.278 245.651C153.095 246.296 151.859 246.887 150.57 247.532L152.074 250.326L152.128 250.488L152.074 250.649L148.958 260.644L148.796 261.02L148.367 260.913L145.518 259.999C144.551 259.677 143.638 259.301 142.67 258.978C140.79 258.28 138.909 257.581 137.082 256.721L136.92 256.668L136.867 256.506L135.416 253.336C134.287 253.712 133.159 254.088 131.977 254.411L131.815 254.464L131.654 254.411C129.881 253.497 128.054 252.637 126.28 251.724C124.561 250.756 122.734 249.789 121.068 248.768L120.692 248.499L120.907 248.177L126.388 239.042L126.442 238.88L126.603 238.827C127.57 238.612 128.591 238.343 129.558 238.128L128.967 236.14C128.806 235.441 128.591 234.796 128.43 234.098C127.14 234.42 125.797 234.689 124.453 234.958L125.206 238.074L125.259 238.236L125.206 238.397L119.724 247.317L119.509 247.64L119.133 247.371C115.694 245.329 112.416 243.018 109.192 240.654L109.031 240.493L108.977 240.331L108.332 236.892C107.15 237 105.914 237.053 104.678 237.107L104.463 237.107L104.302 236.946L99.7341 233.023C98.2831 231.68 96.7785 230.282 95.3813 228.885L95.0589 228.563L95.3276 228.294L102.797 220.717L102.905 220.61L103.12 220.61L106.183 220.663C106.129 219.212 106.075 217.869 106.075 216.472L105.968 216.472L105.968 215.612C108.278 215.666 110.589 215.505 112.792 215.451L112.953 215.397L113.061 215.505C113.437 215.881 113.813 216.257 114.243 216.579L115.479 217.6L115.748 217.869L115.479 218.138L113.168 220.986L113.061 221.093L112.9 221.147L112.04 221.254C112.147 222.652 112.255 224.049 112.362 225.446C113.276 225.392 114.243 225.392 115.157 225.231L121.498 217.385C119.133 215.451 116.823 213.463 114.673 211.313C113.437 211.367 112.201 211.421 110.965 211.474L111.019 210.668C112.309 210.668 113.598 210.561 114.834 210.507L114.996 210.453L115.103 210.561C116.285 211.635 117.414 212.764 118.65 213.785L120.477 215.397C121.122 215.934 121.659 216.472 122.304 216.902L122.626 217.117L122.411 217.439L115.802 225.768L115.694 225.876L115.533 225.93C114.566 226.037 113.545 226.091 112.524 226.145C112.631 227.542 112.9 228.885 113.061 230.229C114.458 230.121 115.909 229.96 117.252 229.799L116.823 226.682L116.769 226.521L116.876 226.413L123.325 218.138L123.54 217.815L123.862 218.03L125.85 219.911L127.893 221.308L129.935 222.705C130.633 223.189 131.332 223.565 131.977 223.995L132.084 224.103L132.138 224.264L132.675 227.166C133.589 226.897 134.502 226.628 135.47 226.306L135.631 226.252L135.792 226.306C137.189 227.058 138.586 227.918 140.037 228.617L144.336 230.766L144.712 230.927L144.551 231.303L140.091 241.03L140.037 241.191L139.876 241.245C138.909 241.567 137.995 241.836 137.082 242.105L137.78 244.093C138.049 244.792 138.318 245.383 138.586 246.081C139.983 245.544 141.327 245.06 142.67 244.577L141.542 241.836L141.488 241.675L141.542 241.514L145.787 231.895L145.948 231.518L146.324 231.68L148.581 232.647C149.334 232.969 150.086 233.184 150.838 233.507C152.343 234.044 153.848 234.689 155.406 235.173L155.567 235.226L155.621 235.387L156.857 238.021C157.663 237.537 158.523 237.107 159.383 236.57L159.49 236.462L159.651 236.516C161.21 236.892 162.768 237.376 164.327 237.752L169.002 238.773L169.378 238.827L169.324 239.203L167.336 249.682L167.282 249.843L167.175 249.95C166.315 250.488 165.509 250.971 164.649 251.509C165.401 252.691 166.207 253.819 167.067 254.894C168.303 254.088 169.432 253.282 170.668 252.476L168.841 250.004L168.733 249.897L168.787 249.735L170.614 239.418L170.668 239.042L171.044 239.095L173.462 239.472C174.268 239.633 175.074 239.686 175.88 239.74C177.492 239.955 179.104 240.17 180.77 240.224L180.931 240.278L181.039 240.385L182.92 242.696C183.618 241.997 184.317 241.406 184.962 240.654L185.069 240.546L185.177 240.546C186.789 240.546 188.401 240.654 189.959 240.6C191.518 240.546 193.13 240.546 194.742 240.439L195.118 240.385L195.118 240.815L195.709 251.509L195.709 251.724L195.602 251.831C194.957 252.583 194.205 253.228 193.506 253.927L195.064 255.378L196.623 256.721C197.59 255.647 198.557 254.572 199.525 253.497L197.214 251.509L197.106 251.401L197.053 251.24L196.354 240.761L196.354 240.331L196.73 240.278L199.148 240.116C199.955 240.063 200.761 239.901 201.567 239.848C203.179 239.633 204.845 239.472 206.403 239.203L206.564 239.149L206.672 239.257L208.982 241.03C209.466 240.224 210.003 239.364 210.487 238.558L210.541 238.397L210.702 238.343L213.066 237.806C213.873 237.644 214.679 237.483 215.431 237.268C216.936 236.838 218.494 236.462 220.052 235.979L220.375 235.871L220.482 236.301L223.599 246.511L223.653 246.672L223.599 246.834C223.115 247.747 222.632 248.553 222.148 249.359C223.384 250.058 224.62 250.649 225.91 251.294C226.608 250.058 227.253 248.768 227.898 247.586L225.104 246.189L224.942 246.135L224.889 245.974L221.718 236.032L221.557 235.656L221.879 235.549L224.244 234.796C225.05 234.528 225.802 234.205 226.501 233.937C228.059 233.345 229.564 232.808 231.015 232.109L231.176 232.056L231.337 232.109L234.024 233.292C234.293 232.378 234.669 231.465 234.884 230.497L234.938 230.336L235.099 230.282C236.496 229.53 238.001 228.885 239.398 228.133L243.589 225.768L243.912 225.553L244.127 225.876L249.501 235.011L249.554 235.173L249.501 235.334C249.286 236.301 248.963 237.161 248.641 238.128L250.683 238.665L252.725 239.095C253.101 237.644 253.477 236.301 253.8 234.904L250.79 234.259L250.629 234.205L250.575 234.044L245.094 225.124L244.879 224.801L245.202 224.586C246.599 223.726 247.996 222.867 249.286 221.899C250.575 220.932 251.972 220.072 253.208 219.051L253.316 218.944L253.477 218.998L256.325 219.481C256.433 218.514 256.486 217.6 256.54 216.579L256.594 216.418L256.701 216.311L260.356 213.194L263.848 209.916L264.117 209.647L264.386 209.916L271.855 217.493L271.963 217.6L271.963 217.815L271.802 220.771C273.091 220.771 274.488 220.771 275.778 220.771L276.853 221.846L276.96 221.738ZM273.467 229.745L274.65 228.778L275.778 227.757L275.832 226.736C274.327 226.736 272.93 226.736 271.479 226.682L271.425 227.488L273.467 229.745ZM261.968 221.04L261.806 223.135C261.753 223.834 261.645 224.479 261.591 225.177L263.365 225.339L265.138 225.5C266.32 225.607 267.449 225.661 268.685 225.715C269.921 225.768 271.103 225.876 272.285 225.876C273.467 225.876 274.65 225.876 275.886 225.822C275.939 224.371 276.047 222.974 276.101 221.523C273.682 221.577 271.264 221.523 268.954 221.469C266.643 221.416 264.278 221.201 261.968 221.04ZM266.267 219.857L264.117 217.6L262.021 219.374L261.968 220.287C263.365 220.395 264.762 220.502 266.159 220.61L266.267 219.857ZM271.318 217.923L264.225 210.722C263.096 211.743 262.021 212.818 260.893 213.839L257.4 216.794C257.292 218.836 257.078 220.878 256.809 222.974C256.701 224.049 256.54 225.07 256.433 226.145L255.895 229.261C257.239 229.53 258.636 229.745 260.033 229.96C260.57 226.306 261.054 222.705 261.215 219.105L261.269 218.944L261.377 218.836L263.795 216.741L264.063 216.472L264.332 216.741L266.858 219.374L266.965 219.481L266.965 219.696C266.965 220.019 266.965 220.341 266.911 220.61C268.255 220.663 269.598 220.717 270.996 220.717L271.318 217.923ZM254.982 224.909L252.617 226.521L254.337 228.993L255.25 229.154C255.519 227.81 255.734 226.413 255.895 225.07L254.982 224.909ZM253.638 219.804C252.456 220.771 251.113 221.577 249.877 222.49C249.232 222.92 248.641 223.404 247.942 223.78L245.954 225.016L251.22 233.507C252.832 233.829 254.444 234.259 256.057 234.474C257.722 234.743 259.281 235.011 261 235.226L261.162 235.28L261.269 235.387L263.365 238.343L263.58 238.665L263.204 238.934L260.141 241.03L260.033 241.137L259.872 241.084L258.475 240.869C258.099 242.212 257.722 243.663 257.346 245.006L260.57 245.544C262.183 244.577 263.741 243.448 265.299 242.32L267.61 240.654L269.867 238.934L263.848 231.088C260.57 230.82 257.292 230.229 254.122 229.638L253.961 229.584L253.853 229.476L251.865 226.521L251.65 226.198L251.972 225.983L254.767 224.049L254.874 223.941L255.035 223.995C255.358 224.103 255.68 224.103 256.003 224.21C256.164 222.867 256.325 221.523 256.433 220.126L253.638 219.804ZM262.451 238.504L260.678 235.979L259.657 235.817C259.334 237.215 259.066 238.665 258.743 240.063C259.173 240.17 259.549 240.224 259.979 240.224L262.451 238.504ZM251.543 246.081L251.489 246.242L251.328 246.296C250.199 246.887 249.178 247.586 248.05 248.07L247.673 248.231L247.459 247.908L245.739 244.684L245.685 244.523L245.739 244.362L246.061 243.502C244.718 243.126 243.321 242.696 242.031 242.266L240.956 244.953L245.255 254.088L250.307 251.616C252.026 250.756 253.638 249.789 255.25 248.929C256.003 246.78 256.648 244.523 257.239 242.32L258.099 239.095C258.367 237.967 258.582 236.892 258.851 235.764C257.454 235.549 256.11 235.387 254.713 235.065C253.8 238.665 252.832 242.427 251.543 246.081ZM248.05 247.21C248.963 246.726 249.877 246.242 250.736 245.705L251.059 244.845C249.662 244.523 248.211 244.147 246.814 243.824L246.545 244.523L248.05 247.21ZM238.968 235.979C238.538 237.268 238.108 238.665 237.571 239.955C241.977 241.567 246.599 242.964 251.328 244.039C251.758 242.642 252.241 241.299 252.617 239.848C247.835 238.827 243.321 237.537 238.968 235.979ZM243.374 235.871L241.87 233.184C241.117 233.614 240.258 234.044 239.452 234.42L239.237 235.173C240.526 235.602 241.87 236.086 243.213 236.57L243.374 235.871ZM248.694 235.28L243.536 226.575L239.559 228.831C238.216 229.53 236.818 230.175 235.475 230.874C234.884 232.862 234.185 234.743 233.487 236.731L232.358 239.686C231.982 240.707 231.552 241.567 231.176 242.588C232.412 243.179 233.702 243.717 234.938 244.2C235.636 242.535 236.281 240.815 236.98 239.149C237.625 237.537 238.162 235.71 238.699 234.098L238.753 233.937L238.914 233.883C239.828 233.399 240.903 232.969 241.762 232.432L242.085 232.217L242.3 232.539L244.073 235.71L244.127 235.871L244.073 236.032L243.804 236.838C245.148 237.215 246.384 237.591 247.781 237.913L248.694 235.28ZM231.284 238.074L228.597 239.042L229.671 241.836L230.477 242.212C231.015 240.922 231.606 239.686 232.09 238.451L231.284 238.074ZM231.176 232.808C229.779 233.453 228.274 233.99 226.877 234.528L224.674 235.334L222.471 236.032L225.534 245.436C228.435 246.941 231.445 248.231 234.562 249.52L234.723 249.574L234.776 249.735L236.12 253.121L236.281 253.497L235.905 253.658L232.412 255.002L232.251 255.055L232.09 255.002C231.713 254.84 231.23 254.679 230.8 254.464C230.155 255.647 229.456 256.882 228.758 258.118L231.767 259.408C232.681 259.139 233.54 258.817 234.4 258.495L237.033 257.474C238.807 256.882 240.526 256.023 242.246 255.27L238.323 246.189C236.765 245.598 235.206 245.006 233.648 244.415C232.143 243.771 230.639 243.126 229.188 242.427L229.027 242.481L228.973 242.32L227.791 238.988L227.629 238.612L228.006 238.451L231.176 237.215L231.337 237.161L231.498 237.215L232.358 237.644C232.842 236.408 233.272 235.119 233.702 233.937L231.176 232.808ZM235.153 253.121L234.024 250.273L233.111 249.897C232.466 251.186 231.821 252.476 231.176 253.766L232.251 254.196L235.153 253.121ZM222.847 257.796L222.739 257.903L222.578 257.957C221.396 258.28 220.16 258.656 218.978 258.871L218.548 258.978L218.494 258.602L217.527 255.055L217.473 254.894L217.58 254.787L218.118 254.034C216.882 253.336 215.7 252.583 214.517 251.831L212.852 254.142L214.786 264.03L220.321 262.794C222.148 262.364 223.975 261.826 225.749 261.343C226.393 260.375 226.931 259.408 227.576 258.441L229.241 255.485C229.779 254.518 230.316 253.551 230.854 252.583L232.358 249.574C231.069 249.037 229.779 248.499 228.543 247.908C226.77 251.186 224.942 254.626 222.847 257.796ZM219.193 258.011C220.214 257.742 221.181 257.527 222.148 257.205L222.632 256.399C221.342 255.754 219.999 255.055 218.763 254.357C218.655 254.572 218.44 254.787 218.333 255.002L219.193 258.011ZM213.066 244.899C212.314 246.081 211.562 247.263 210.756 248.392C214.625 250.971 218.763 253.497 223.115 255.7C223.921 254.464 224.62 253.228 225.372 251.939C224.298 251.401 223.223 250.864 222.148 250.326C221.073 249.789 220.052 249.198 219.031 248.607C216.936 247.478 215.001 246.189 213.066 244.899ZM217.312 245.92L216.506 242.964C215.646 243.179 214.732 243.341 213.873 243.556L213.443 244.2C214.625 244.953 215.753 245.759 216.989 246.457L217.312 245.92ZM222.686 246.565L219.784 236.892L215.377 238.074C213.926 238.451 212.422 238.773 210.917 239.095C209.896 240.869 208.767 242.535 207.639 244.308L205.812 246.887C205.167 247.747 204.576 248.553 203.931 249.413C205.006 250.273 206.134 251.079 207.263 251.885C208.338 250.38 209.466 248.929 210.433 247.425C211.454 245.974 212.422 244.362 213.335 242.911L213.389 242.75L213.55 242.696C214.625 242.481 215.7 242.266 216.667 241.943L216.989 241.836L217.097 242.266L218.118 245.759L218.172 245.92L218.118 246.081L217.688 246.834C218.87 247.478 220.052 248.231 221.235 248.876C221.772 248.123 222.202 247.371 222.686 246.565ZM205.113 245.114L202.265 245.49L202.641 248.446L203.286 248.983C204.146 247.908 204.952 246.78 205.758 245.651L205.113 245.114ZM206.188 239.955C204.683 240.278 203.125 240.439 201.567 240.6L199.256 240.869L196.945 241.03L197.698 250.918C198.934 251.939 200.223 253.121 201.513 254.088C202.803 255.055 204.146 256.076 205.49 257.097L205.597 257.205L205.651 257.366L206.134 260.967L206.188 261.343L205.704 261.396L201.997 261.88L201.782 261.88L201.674 261.773C201.298 261.504 200.922 261.235 200.599 260.913C199.686 261.934 198.719 262.901 197.751 263.976L200.384 265.964L201.782 265.857L203.179 265.642L205.973 265.319C207.854 265.158 209.735 264.782 211.562 264.459L209.896 254.733C208.499 253.766 207.155 252.852 205.812 251.939C204.468 250.918 203.179 249.95 201.943 248.929L201.835 248.822L201.782 248.661L201.352 245.114L201.298 244.738L201.674 244.684L205.06 244.308L205.221 244.254L205.328 244.362L206.081 245.006C206.833 243.932 207.585 242.75 208.284 241.728L206.188 239.955ZM205.221 260.698L204.845 257.635L204.039 257.044C203.125 258.172 202.158 259.247 201.244 260.375L202.158 261.074L205.221 260.698ZM192.055 262.256L191.948 262.364L191.733 262.364C190.497 262.417 189.261 262.471 188.025 262.417L187.595 262.417L187.595 261.988L187.487 258.333L187.487 258.118L187.595 258.011L188.347 257.366C187.38 256.399 186.359 255.378 185.445 254.464L183.242 256.345L182.759 266.394L188.401 266.555C190.282 266.609 192.163 266.448 194.043 266.501L195.333 265.319L196.569 264.083L198.934 261.611C199.74 260.805 200.492 259.946 201.191 259.139L203.34 256.56C202.158 255.7 201.083 254.84 200.008 253.981C197.536 256.775 194.903 259.623 192.055 262.256ZM188.508 261.611C189.529 261.665 190.55 261.611 191.571 261.558L192.27 260.859C191.195 259.892 190.121 258.924 189.046 257.957L188.401 258.495L188.508 261.611ZM185.66 247.478C184.693 248.446 183.672 249.467 182.651 250.273C185.768 253.712 189.207 257.151 192.861 260.268C193.882 259.247 194.903 258.333 195.924 257.205C192.216 254.142 188.777 250.918 185.66 247.478ZM189.637 249.413L189.529 246.296C188.616 246.35 187.702 246.296 186.789 246.242L186.198 246.834C187.111 247.855 188.132 248.876 189.1 249.843L189.637 249.413ZM194.688 251.348L194.205 241.299L189.583 241.406C188.079 241.406 186.52 241.352 185.016 241.352C183.565 242.911 182.06 244.2 180.502 245.651L178.137 247.801C177.331 248.499 176.525 249.091 175.719 249.789C176.579 250.864 177.439 251.939 178.352 252.96C181.254 250.595 183.941 248.231 186.413 245.651L186.52 245.544L186.681 245.598C187.756 245.598 188.831 245.705 189.906 245.598L190.282 245.544L190.282 245.974L190.389 249.628L190.389 249.843L190.282 249.95L189.637 250.595C190.604 251.562 191.625 252.476 192.646 253.39L194.688 251.348ZM177.868 245.705L175.02 245.329L174.644 248.284L175.182 249.037C176.256 248.177 177.331 247.317 178.352 246.404C178.245 246.189 178.03 245.974 177.868 245.705ZM180.287 241.03C178.728 240.976 177.17 240.707 175.611 240.546C174.859 240.439 174.053 240.385 173.301 240.278L170.99 239.901L169.378 249.682C170.345 250.971 171.312 252.369 172.333 253.604C173.354 254.84 174.429 256.13 175.558 257.474L175.665 257.581L175.611 257.742L175.235 261.343L175.182 261.719L174.698 261.665L170.99 261.181L170.775 261.181L170.668 261.074C170.399 260.698 170.076 260.375 169.808 259.999C168.626 260.752 167.443 261.504 166.261 262.256L168.303 264.728C170.13 265.051 172.011 265.212 173.892 265.48C174.859 265.588 175.773 265.749 176.686 265.803L179.588 266.125L180.34 256.238C179.212 255.002 178.137 253.819 177.062 252.53C175.988 251.24 175.02 249.95 173.999 248.714L173.892 248.607L173.946 248.446L174.429 244.953L174.483 244.577L174.859 244.63L178.245 245.006L178.406 245.06L178.513 245.168L179.158 246.027C180.179 245.114 181.2 244.2 182.114 243.287L180.287 241.03ZM174.322 260.859L174.698 257.796L174.053 257.044C172.871 257.903 171.689 258.763 170.56 259.569C170.775 259.892 171.044 260.16 171.312 260.429L174.322 260.859ZM161.21 259.247L161.049 259.301L160.887 259.247C159.651 258.978 158.469 258.763 157.233 258.387L156.803 258.28L156.857 257.903L157.663 254.303L157.717 254.142L157.878 254.088L158.792 253.604C158.039 252.422 157.287 251.24 156.642 250.058L154.063 251.348L151.268 261.128L156.696 262.579C158.523 263.009 160.35 263.438 162.231 263.815C164.219 262.686 166.207 261.45 168.088 260.214L170.775 258.387C171.742 257.742 172.602 257.097 173.516 256.399C172.602 255.27 171.689 254.249 170.883 253.121C169.378 254.196 167.766 255.27 166.154 256.345C164.542 257.312 162.929 258.28 161.21 259.247ZM157.878 257.742C158.845 258.065 159.866 258.226 160.834 258.441L161.747 257.957C160.887 256.775 160.081 255.539 159.329 254.357L158.63 254.733L157.878 257.742ZM158.523 243.341C157.341 243.985 156.158 244.738 154.922 245.329C157.126 249.467 159.598 253.551 162.446 257.474C163.735 256.721 164.918 256.076 166.1 255.217C163.306 251.348 160.78 247.425 158.523 243.341ZM161.962 246.242L162.607 243.233C161.747 243.018 160.834 242.75 159.974 242.535L159.221 242.964C159.92 244.2 160.565 245.383 161.264 246.619L161.962 246.242ZM166.369 249.252L168.303 239.364L163.843 238.343C162.392 237.967 160.887 237.537 159.436 237.161L158.093 237.967L156.803 238.719C155.89 239.203 155.03 239.74 154.116 240.224C153.203 240.707 152.236 241.245 151.322 241.728C150.409 242.212 149.441 242.642 148.474 243.072C149.065 244.308 149.602 245.598 150.247 246.78C153.579 245.168 156.75 243.502 159.813 241.621L159.974 241.567L160.135 241.621C161.156 241.89 162.231 242.212 163.306 242.427L163.682 242.481L163.628 242.857L162.876 246.404L162.822 246.565L162.661 246.619L161.855 247.102C162.553 248.231 163.306 249.413 164.112 250.541L166.369 249.252ZM151.43 239.794L148.743 238.827L147.668 241.621L148.098 242.481C149.334 241.89 150.57 241.299 151.806 240.707C151.591 240.385 151.483 240.063 151.43 239.794ZM154.869 235.817C153.364 235.387 151.967 234.743 150.516 234.259C149.817 233.99 149.065 233.775 148.367 233.399L146.271 232.486L142.348 241.567C142.993 243.072 143.584 244.63 144.229 246.135C144.927 247.586 145.626 249.144 146.378 250.649L146.432 250.81L146.378 250.971L145.089 254.411L144.927 254.787L144.551 254.625L141.058 253.282L140.897 253.228L140.843 253.067C140.628 252.637 140.413 252.207 140.198 251.67C138.855 252.154 137.512 252.637 136.114 253.067L137.512 256.076C139.231 256.829 141.004 257.42 142.778 258.118C143.638 258.441 144.551 258.817 145.465 259.086L148.152 259.946L151.215 250.541C150.409 249.091 149.602 247.64 148.958 246.135C148.205 244.63 147.56 243.126 146.862 241.675L146.808 241.514L146.862 241.352L148.152 238.021L148.313 237.644L148.689 237.806L151.859 239.042L152.021 239.095L152.074 239.257L152.504 240.224C153.687 239.579 154.869 238.934 156.051 238.289L154.869 235.817ZM144.497 253.712L145.572 250.81L145.089 249.789C143.799 250.326 142.455 250.918 141.058 251.455C141.273 251.885 141.434 252.261 141.596 252.637L144.497 253.712ZM131.977 248.929L131.815 248.983L131.654 248.929C130.526 248.338 129.397 247.855 128.322 247.21L127.893 246.995L128.054 246.619L129.72 243.341L129.773 243.179L129.935 243.126L130.848 242.857C130.364 241.514 129.988 240.17 129.612 238.827L126.818 239.472L121.659 248.177L126.603 250.971C128.269 251.885 129.988 252.637 131.654 253.551C133.857 252.96 136.114 252.207 138.264 251.455L141.434 250.326C142.509 249.897 143.584 249.467 144.551 249.037C143.96 247.801 143.369 246.565 142.778 245.221C141.004 245.92 139.231 246.511 137.404 247.156L136.061 247.64L134.663 248.07L131.977 248.929ZM129.128 246.726C130.042 247.21 130.956 247.693 131.923 248.123L132.836 247.855C132.299 246.457 131.815 245.114 131.332 243.771L130.579 243.985L129.128 246.726ZM133.159 232.808C131.815 233.184 130.418 233.614 129.128 233.937C130.311 238.45 131.708 243.072 133.535 247.586C134.932 247.156 136.276 246.78 137.726 246.296C135.899 241.782 134.341 237.322 133.159 232.808ZM135.738 236.462L137.082 233.722C136.276 233.345 135.47 232.862 134.717 232.432L133.965 232.647C134.341 233.99 134.717 235.334 135.093 236.677L135.738 236.462ZM139.285 240.439L143.584 231.303L139.5 229.261C138.156 228.563 136.813 227.757 135.47 227.058C133.481 227.757 131.547 228.187 129.505 228.724L126.388 229.476C125.367 229.745 124.346 229.906 123.271 230.121C123.54 231.465 123.755 232.862 124.077 234.151C125.85 233.775 127.678 233.345 129.397 232.916C131.117 232.486 132.89 232.002 134.61 231.465L134.771 231.411L134.932 231.465C135.899 232.002 136.759 232.539 137.78 233.023L138.156 233.184L137.995 233.56L136.437 236.838L136.383 237L136.222 237.053L135.416 237.322C135.846 238.612 136.276 239.901 136.759 241.245L139.285 240.439ZM127.086 227.703L124.722 226.091L123.002 228.563L123.11 229.423C124.453 229.154 125.797 228.885 127.14 228.617L127.086 227.703ZM131.385 224.586C130.042 223.78 128.806 222.867 127.516 222.007L125.636 220.663C125.044 220.18 124.4 219.75 123.808 219.266L117.79 227.112C118.166 230.39 118.865 233.56 119.563 236.946L119.617 237.107L119.509 237.215L117.467 240.224L117.252 240.546L116.876 240.278L113.813 238.182L113.706 238.074L113.652 237.913C113.545 237.483 113.437 237.053 113.383 236.57C112.04 236.731 110.643 236.838 109.246 236.946L109.89 240.17C110.589 240.761 111.395 241.245 112.201 241.836L114.566 243.448C116.07 244.523 117.736 245.544 119.295 246.565L124.507 238.128C124.077 236.516 123.701 234.958 123.325 233.292C123.002 231.68 122.68 230.067 122.465 228.455L122.411 228.294L122.519 228.187L124.561 225.285L124.776 224.962L125.098 225.177L127.893 227.112L128.054 227.166L128.107 227.327L128.215 228.294C129.505 227.972 130.794 227.649 132.084 227.327L131.385 224.586ZM116.876 239.418L118.65 236.892L118.435 235.925C117.038 236.14 115.587 236.301 114.136 236.57L114.404 237.698L116.876 239.418ZM106.075 231.948L105.86 231.948L105.753 231.841L102.905 229.423C102.797 229.315 102.69 229.208 102.582 229.1L102.851 228.831L105.215 226.037L105.323 225.93L105.538 225.93C105.86 225.93 106.183 225.93 106.505 225.93C106.398 224.532 106.344 223.082 106.29 221.738L103.442 221.684L96.4023 228.939C97.7995 230.229 99.0892 231.518 100.486 232.808L104.785 236.462C107.096 236.408 109.353 236.194 111.664 236.032C112.792 235.979 113.867 235.871 114.996 235.71L118.327 235.28C118.059 233.937 117.736 232.539 117.575 231.196C115.748 231.411 113.867 231.572 111.932 231.787C110.965 231.895 110.052 231.948 109.031 232.002L106.075 231.948ZM103.818 229.046L106.129 231.035L107.042 230.981C106.881 229.53 106.72 228.079 106.559 226.628L105.806 226.628L103.818 229.046ZM111.126 216.579C109.783 216.633 108.332 216.687 106.935 216.687C106.989 218.997 107.042 221.416 107.204 223.834C107.365 226.252 107.633 228.563 107.956 231.035L110.105 230.927L112.309 230.766C111.932 228.455 111.718 225.983 111.503 223.619C111.395 222.437 111.288 221.254 111.234 220.126C111.18 218.89 111.18 217.708 111.126 216.579ZM112.739 220.663L114.673 218.299L113.652 217.385L112.685 216.418L111.879 216.472C111.879 217.869 111.932 219.32 111.986 220.663L112.739 220.663Z" fill="#3FC5E3"/>
<path d="M101.62 222.22C99.5775 222.22 97.5892 222.059 95.4935 221.898L95.2785 221.898L95.171 221.79C94.3112 220.931 93.4514 219.963 92.6454 219.05L92.3229 218.727L92.5916 218.459L95.2785 215.987L95.386 215.879L95.5472 215.933L96.5145 216.04C96.5682 214.697 96.6219 213.246 96.6757 211.903L93.8276 211.527L86.0357 217.921L89.6898 222.22C90.9258 223.671 92.2155 224.961 93.5589 226.304C94.7949 226.358 96.0308 226.519 97.2668 226.573L96.4607 227.379C95.4397 227.325 94.4187 227.272 93.3977 227.218L93.1827 227.218L93.0215 227.057C91.6781 225.606 90.2272 224.155 88.9375 222.65C87.6478 221.146 86.3043 219.587 85.0146 218.083L84.7459 217.706L85.0684 217.491L93.3977 210.774L93.5052 210.667L93.6664 210.72C94.6874 210.882 95.6547 210.989 96.6757 211.15C96.7832 209.753 96.8906 208.356 97.0518 207.013C95.7084 206.851 94.365 206.69 92.9678 206.475L92.6454 209.592L92.5916 209.753L92.4842 209.861L84.2623 216.363L83.9399 216.578L83.6712 216.202C81.1455 213.031 78.8348 209.753 76.6316 206.368L76.5778 206.207L76.6316 206.045L77.169 202.714C76.0405 202.337 74.912 202.069 73.7835 201.693L73.6223 201.639L73.5685 201.478L70.6667 196.211L67.9798 190.838L67.7649 190.408L68.1411 190.246L77.8138 185.733L77.975 185.679L78.1362 185.733L80.9843 186.861C81.468 185.518 81.7904 184.228 82.3278 182.938C81.0918 182.455 79.8558 181.971 78.5661 181.434L77.4377 184.497L77.3839 184.658L77.2227 184.712L67.8186 188.742L67.4425 188.903L67.2275 188.473L66.0453 185.679C65.6691 184.765 65.2392 183.798 64.9168 182.938C64.2182 181.057 63.4659 179.23 62.8211 177.296L62.7673 177.135L62.821 176.973L64.2182 173.749C63.1972 173.158 62.1225 172.513 61.1014 171.922L60.9402 171.868L60.8865 171.707L59.2744 165.903C58.8445 163.969 58.4146 162.034 57.9847 159.992L57.8772 159.562L58.2534 159.509L68.6784 157.467L68.8396 157.413L68.9471 157.52L71.5803 159.186C72.3326 158.004 73.0312 156.875 73.8372 155.64C72.7625 154.887 71.634 154.081 70.5593 153.329L68.7322 156.016L68.6247 156.123L68.4635 156.177L58.1459 158.111L57.7697 158.165L57.716 157.682L57.2323 154.726C57.0711 153.705 56.8562 152.738 56.7487 151.77C56.48 149.782 56.2113 147.794 56.0501 145.806L56.0501 145.591L56.1576 145.483L58.2534 142.743C57.3936 141.883 56.5338 141.023 55.674 140.163L55.5665 140.056L55.5665 139.841L55.459 133.822L55.5665 127.803L55.5665 127.374L55.9964 127.374L66.6364 127.911L66.8514 127.911L66.9588 128.018L68.9471 130.329C69.9681 129.308 70.8817 128.395 72.0102 127.481C71.0966 126.46 70.2368 125.385 69.3233 124.364L66.9588 126.514L66.8514 126.621L66.6902 126.568L56.2113 125.976L55.7814 125.976L55.8352 125.493C56.0501 121.516 56.5338 117.486 57.1249 113.563L57.1786 113.402L57.2861 113.294L59.973 111.145C59.3281 110.178 58.737 109.157 58.1459 108.136L58.0921 107.974L58.1459 107.813L59.4356 101.902L61.0477 96.0983C61.1014 95.9371 61.1552 95.7759 61.1552 95.6685L61.5851 95.7759L71.7952 98.7852L71.9564 98.839L72.0102 99.0002L73.4073 101.687C74.6433 100.988 75.7718 100.29 77.0615 99.645C76.4166 98.4628 75.8255 97.2268 75.2344 95.9909L72.4401 97.4955L72.2788 97.5492L72.1176 97.4955L62.1225 94.3787L61.7463 94.2175L61.8538 93.7876C63.036 89.9185 64.4332 86.1569 65.9378 82.5027L65.9916 82.3415L66.1528 82.2878L69.2696 80.7831C68.8934 79.6547 68.5172 78.5262 68.1948 77.344L68.1411 77.1827L68.1948 77.0215L70.8817 71.6478L73.7835 66.3815L73.9985 65.9516L74.3209 66.1665L83.51 71.594L83.6712 71.6478L83.725 71.809L84.4235 74.7645C85.767 74.3884 87.0567 73.9585 88.4539 73.6361C88.1314 72.3464 87.8627 71.0029 87.5403 69.7132L84.3698 70.5193L84.2086 70.573L84.0474 70.5193L75.0732 65.0918L74.7508 64.8769L75.0195 64.5007L76.6316 61.9213C77.169 61.0615 77.7063 60.2017 78.2975 59.3956C79.4259 57.7297 80.5544 56.0639 81.7367 54.4518L81.8979 54.2906L82.0591 54.2368L85.4983 53.592C85.3908 52.4097 85.3371 51.1738 85.2296 49.9916L85.2296 49.7766L85.3908 49.6154C86.6805 48.1107 88.0239 46.5523 89.3136 45.0477C89.9585 44.2954 90.6571 43.5968 91.3019 42.8445L93.344 40.695L93.6664 40.3725L93.9351 40.6412L101.566 48.057L101.673 48.1645L101.673 48.3794L101.62 51.4425C103.07 51.3887 104.414 51.335 105.811 51.335L105.811 51.2275L106.617 51.1738C106.671 53.4845 106.725 55.7952 106.832 58.0522L106.886 58.2134L106.778 58.3209C106.026 59.0732 105.381 59.933 104.683 60.7391L104.414 61.0078L104.091 60.7928L101.243 58.4821L101.136 58.3746L101.082 58.2134L100.975 57.3536C99.5775 57.4611 98.1803 57.5685 96.7832 57.676C96.8369 58.5896 96.9444 59.5568 96.9981 60.4704L104.898 66.7577L105.596 65.8441L106.348 64.9843L107.853 63.2647C108.337 62.6736 108.82 62.0825 109.358 61.5451L110.916 59.8793C110.862 58.6433 110.755 57.4611 110.755 56.1714L111.507 56.1714C111.561 57.5148 111.615 58.7508 111.722 60.0405L111.776 60.2017L111.668 60.3091L110.003 62.0825C109.465 62.7273 108.982 63.3185 108.39 63.9096C107.369 65.1455 106.295 66.3278 105.327 67.6175L105.112 67.9399L104.79 67.7249L96.407 61.169L96.2995 61.0615L96.2458 60.9003C96.1383 59.933 96.0846 58.912 96.0308 57.891C94.6874 58.0522 93.2902 58.2671 91.8931 58.4821C92.0005 59.8793 92.2155 61.2764 92.323 62.6736L95.4397 62.2437L95.6009 62.19L95.7084 62.2974L104.038 68.6922L104.36 68.9072L104.145 69.2296C103.662 69.9282 103.124 70.4655 102.641 71.1641L101.243 73.2062L99.8462 75.2482L98.5565 77.2902L98.449 77.3977L98.2878 77.4514L95.386 77.9888C95.6547 78.9023 95.9771 79.8696 96.2458 80.7832L96.2995 80.9444L96.2458 81.1056C94.6337 83.8999 93.1828 86.748 91.8931 89.6498L91.7318 90.026L91.3557 89.8648L81.6292 85.512L81.468 85.4583L81.4142 85.2971C81.0381 84.3836 80.7694 83.47 80.447 82.5027C79.1035 82.9864 77.8138 83.5238 76.5241 84.0611C77.0615 85.4583 77.5451 86.8017 78.0288 88.1452L80.8231 86.963L80.9843 86.9092L81.1456 86.963L90.7646 91.1008L91.1407 91.262L90.9795 91.6381L90.0122 93.8951L89.1524 96.1521L88.2926 98.4091C88.024 99.2151 87.809 99.9674 87.5403 100.666L87.4866 100.827L87.3254 100.881L84.6385 102.171C85.1221 102.977 85.6595 103.837 86.1431 104.643L86.2506 104.75L86.1969 104.911C85.2833 107.974 84.6385 111.091 84.0474 114.262L83.9936 114.638L83.6175 114.584L73.1387 112.703L72.9774 112.649L72.87 112.542C72.3326 111.682 71.7415 110.876 71.2578 109.963C70.0756 110.715 69.0009 111.575 67.8724 112.381C68.6784 113.617 69.4845 114.745 70.3443 115.927L72.8162 114.1L72.9237 113.993L73.0849 114.047L83.4563 115.82L83.8324 115.874L83.7787 116.25L83.4025 118.668L83.1338 121.086L82.8651 123.504L82.7039 125.923L82.6502 126.084L82.5427 126.191L80.232 128.072C80.9306 128.771 81.6292 129.469 82.3278 130.168L82.4352 130.275L82.4352 130.383C82.3278 133.607 82.3815 136.778 82.5427 139.948L82.5965 140.324L82.1666 140.324L71.5265 140.969L71.3116 140.969L71.2041 140.862C70.4518 140.217 69.6995 139.465 69.0009 138.766C68.0336 139.841 67.2275 140.862 66.2602 141.936C67.335 142.904 68.4098 143.871 69.4308 144.785L71.3653 142.42L71.4728 142.313L71.634 142.259L82.0591 141.507L82.4352 141.453L82.489 141.829C82.5427 142.635 82.5964 143.441 82.6502 144.247L82.9189 146.665L83.1876 149.084L83.5637 151.502L83.6175 151.663L83.51 151.77L81.6829 154.135C82.489 154.619 83.3488 155.156 84.2086 155.693L84.3698 155.747L84.4235 155.908C85.0684 159.025 85.9282 162.142 86.8417 165.205L86.9492 165.527L86.573 165.688L76.4166 168.859L76.2554 168.913L76.0942 168.859C75.2882 168.375 74.3746 167.892 73.5685 167.408C72.87 168.644 72.2789 169.88 71.634 171.17C72.87 171.868 74.1597 172.513 75.3419 173.158L76.7391 170.364L76.7928 170.202L76.954 170.149L86.9492 166.924L87.3254 166.763L87.4328 167.086C87.7015 167.892 87.9165 168.644 88.2389 169.396L89.0987 171.653L89.9585 173.91L90.9258 176.167L90.9795 176.328L90.9258 176.49L89.7435 179.177C90.6033 179.499 91.6244 179.768 92.5379 180.036L92.6991 180.09L92.7528 180.251C94.15 183.153 95.6547 185.947 97.3205 188.688L97.5355 189.011L97.2131 189.225L88.1314 194.76L87.9702 194.814L87.809 194.76C86.8417 194.545 85.9282 194.277 84.9609 193.954C84.5847 195.298 84.3161 196.641 84.0474 198.092C85.4983 198.468 86.8417 198.844 88.2389 199.167L88.8837 196.158L88.9375 195.996L89.0449 195.889L97.9116 190.354L98.2341 190.139L98.449 190.461L99.7387 192.503L101.136 194.545L102.533 196.588C103.017 197.286 103.5 197.877 104.038 198.522L104.145 198.63L104.091 198.791L103.662 201.693C104.629 201.8 105.542 201.854 106.563 201.908L106.725 201.961L106.832 202.069C107.907 203.251 108.874 204.541 110.003 205.669L113.281 209.162C113.388 209.27 113.442 209.323 113.549 209.431L113.281 209.699L105.757 217.223L105.65 217.33L105.435 217.33L102.479 217.169C102.479 218.459 102.479 219.856 102.533 221.199L101.62 222.22ZM93.5589 218.781C94.2038 219.533 94.9561 220.286 95.6009 221.038L96.6219 221.092C96.6219 219.587 96.6219 218.19 96.5682 216.739L95.7621 216.685L93.5589 218.781ZM102.211 207.228C100.813 207.12 99.4163 207.013 98.0729 206.851C97.643 211.473 97.3205 216.309 97.428 221.146C98.8789 221.199 100.276 221.307 101.727 221.361C101.673 218.942 101.727 216.524 101.727 214.16L101.781 212.386L101.888 210.667C102.049 209.538 102.103 208.41 102.211 207.228ZM103.447 211.58L105.704 209.431C105.059 208.786 104.521 208.034 103.93 207.335L103.017 207.281C102.909 208.678 102.802 210.076 102.694 211.473C102.963 211.527 103.178 211.527 103.447 211.58ZM105.381 216.524L112.582 209.431L109.465 206.099C108.444 204.971 107.477 203.788 106.456 202.66C104.36 202.606 102.372 202.337 100.276 202.176C98.2341 201.961 96.0308 201.693 93.9888 201.263C93.7739 202.66 93.5052 204.003 93.3977 205.4C95.2785 205.669 97.0518 205.938 98.8252 206.099C100.545 206.314 102.479 206.421 104.199 206.529L104.36 206.583L104.468 206.69C105.166 207.496 105.811 208.356 106.563 209.108L106.832 209.377L106.563 209.646L103.93 212.171L103.823 212.279L103.608 212.279L102.694 212.225C102.641 213.569 102.641 214.966 102.587 216.309L105.381 216.524ZM98.2878 200.295L96.6757 197.931L94.2038 199.651L94.0425 200.564C95.4397 200.779 96.7294 200.994 98.1266 201.209L98.2878 200.295ZM103.447 198.898C102.963 198.307 102.479 197.716 102.049 197.071L100.706 195.19L99.3626 193.31C98.9327 192.665 98.5565 191.966 98.1266 191.321L89.7435 196.588C88.9912 199.812 88.5076 202.982 88.0239 206.368L87.9702 206.529L87.8627 206.636L84.9072 208.732L84.5847 208.947L84.3161 208.571L82.2203 205.508L82.1128 205.4L82.1665 205.239C82.2203 204.756 82.3278 204.326 82.3815 203.842C81.0381 203.466 79.6409 203.143 78.2437 202.714L77.7063 205.938C78.19 206.744 78.7273 207.496 79.3185 208.302L80.9306 210.667C82.0053 212.279 83.1338 213.73 84.3161 215.234L92.108 209.162C92.2692 207.496 92.4842 205.884 92.6454 204.218C92.9141 202.552 93.1827 200.994 93.4514 199.328L93.5052 199.167L93.6126 199.059L96.5682 197.071L96.8906 196.856L97.1056 197.179L99.0401 199.973L99.1476 200.08L99.0939 200.242L98.8789 201.209C100.222 201.37 101.566 201.531 102.909 201.585L103.447 198.898ZM84.746 207.819L87.2716 206.045L87.4328 205.024C86.0356 204.702 84.5847 204.433 83.1876 204.111L83.0264 205.347L84.746 207.819ZM77.1152 196.964L76.954 196.91L76.9003 196.749L75.1269 193.471L74.9657 193.095L75.2881 192.88L78.4587 191.106L78.6199 191.053L78.7811 191.106C79.1035 191.214 79.3185 191.321 79.6409 191.429C80.0171 190.085 80.4469 188.688 80.8768 187.398L78.19 186.324L69.0546 190.623L71.5265 195.674L74.3209 200.618C76.5241 201.316 78.7811 201.961 80.9306 202.606C82.0591 202.875 83.1338 203.197 84.2086 203.412L87.4866 204.111C87.7015 202.714 87.9165 201.316 88.1314 200.027C86.3043 199.597 84.4773 199.167 82.6502 198.63C81.7366 198.361 80.7694 198.146 79.8558 197.877L77.1152 196.964ZM75.9867 193.471L77.4914 196.158L78.3512 196.48C78.7273 195.029 79.0498 193.632 79.3722 192.235L78.6199 192.02L75.9867 193.471ZM87.1641 184.335C85.8744 183.905 84.4773 183.476 83.1338 182.992C82.3815 185.141 81.6292 187.398 80.9306 189.709C80.232 192.02 79.6409 194.331 79.1572 196.749L81.1993 197.394L83.295 197.985C83.7249 195.62 84.3698 193.256 85.0146 190.999C85.3371 189.817 85.6595 188.742 86.0356 187.613C86.4118 186.485 86.788 185.356 87.1641 184.335ZM87.2716 188.742L89.9585 187.237C89.4749 186.431 89.0987 185.625 88.7225 184.819L87.9702 184.604C87.5403 185.894 87.0029 187.291 86.6805 188.581L87.2716 188.742ZM87.9165 194.008L96.6219 188.849C95.0636 186.216 93.6126 183.583 92.3229 180.789C91.3557 180.466 90.3347 180.198 89.3674 179.875L86.4118 178.854L83.4563 177.726L82.0053 177.135L80.5544 176.543C79.9633 177.779 79.4797 179.015 78.996 180.359C80.6619 181.057 82.3815 181.702 84.0474 182.401C85.767 183.046 87.4866 183.583 89.1524 184.067L89.3136 184.12L89.3674 184.282L90.066 185.733L90.8183 187.13L91.0332 187.452L90.7108 187.667L87.594 189.494L87.4328 189.548L87.2716 189.494L86.4656 189.225C86.0894 190.569 85.767 191.859 85.3908 193.202C86.1431 193.524 87.0029 193.847 87.9165 194.008ZM85.0684 176.651C84.6385 175.791 84.3698 174.878 83.9936 173.964L81.1993 175.039L80.8231 175.845C82.1128 176.382 83.295 176.92 84.6385 177.403L85.0684 176.651ZM90.2809 176.49L89.3136 174.34L88.5076 172.137C87.9165 170.686 87.3791 169.289 86.9492 167.784L77.5451 170.955L76.4166 173.158C76.0942 173.91 75.7718 174.663 75.4494 175.415C74.8045 176.92 74.1059 178.478 73.5148 180.036L73.4611 180.198L73.2999 180.251L69.9144 181.595L69.5382 181.756L69.377 181.38L68.0336 177.887L67.9798 177.726L68.0336 177.564L68.5172 176.328C67.335 175.684 66.099 174.985 64.8631 174.286L63.5734 177.296C64.1645 179.069 64.8631 180.842 65.5617 182.616C65.8841 183.476 66.2602 184.389 66.6364 185.195L67.7649 187.828L76.8465 183.798C77.4377 182.24 78.0288 180.681 78.5661 179.177C79.211 177.672 79.8558 176.167 80.5007 174.663L80.5544 174.501L80.7156 174.448L84.0474 173.158L84.4235 172.997L84.5847 173.373C85.0146 174.448 85.3371 175.522 85.8207 176.543L85.8744 176.705L85.8207 176.866L85.3908 177.726C86.6268 178.209 87.9165 178.639 89.0987 179.069L90.2809 176.49ZM69.9681 180.574L72.8162 179.445L73.1924 178.532C71.9027 177.887 70.613 177.242 69.3233 176.597L68.8934 177.672L69.9681 180.574ZM65.2392 168.322L65.078 168.268L65.0243 168.107L64.057 164.56L63.9495 164.13L64.3794 164.023L67.9261 163.055L68.0873 163.002L68.1948 163.109C68.4635 163.27 68.7322 163.431 69.0009 163.593C69.6995 162.357 70.4518 161.174 71.1504 159.939L68.8397 158.273L58.9519 160.315C59.3818 162.142 59.758 164.023 60.1879 165.85L61.6388 171.277C65.6154 173.749 69.4845 175.899 73.5685 177.833C74.1059 176.543 74.6433 175.254 75.2344 174.018C73.5685 173.212 71.9027 172.298 70.2906 171.331L67.7649 169.88L65.2392 168.322ZM64.9705 164.614L65.7766 167.569L66.5827 168.053C67.2813 166.709 67.9261 165.42 68.6247 164.184L67.9798 163.754L64.9705 164.614ZM78.0288 158.434C76.8465 157.682 75.6643 156.929 74.4821 156.177C73.1924 158.111 71.9564 160.1 70.7205 162.195C69.4845 164.291 68.356 166.387 67.2275 168.59C68.4635 169.396 69.6994 170.095 71.0429 170.793C72.0639 168.59 73.1924 166.494 74.3746 164.452C74.9657 163.431 75.5568 162.41 76.1479 161.389C76.7928 160.422 77.3839 159.401 78.0288 158.434ZM77.0615 162.733L80.0171 161.927L79.6946 160.637L79.4259 159.294L78.7811 158.864C78.0288 160.046 77.2764 161.228 76.5241 162.41L77.0615 162.733ZM76.4166 168.107L86.0894 165.205C85.2296 162.303 84.4235 159.347 83.7787 156.338C82.9189 155.801 82.0053 155.317 81.0918 154.726L78.5124 153.006C76.7928 151.824 74.9657 150.642 73.3536 149.352C72.4938 150.427 71.6877 151.555 70.9354 152.63C72.4401 153.705 73.891 154.726 75.3419 155.747C76.8465 156.714 78.4049 157.735 79.9096 158.595L80.0708 158.649L80.1245 158.81L80.5007 160.368L80.8769 161.927L80.9843 162.249L80.5544 162.357L77.0615 163.378L76.9003 163.431L76.7391 163.378L75.9867 162.948C75.3419 164.13 74.5896 165.312 73.9985 166.548C74.8583 167.193 75.6106 167.623 76.4166 168.107ZM77.8138 150.481C77.6526 149.567 77.5451 148.6 77.4377 147.633L74.4821 148.009L73.9447 148.654C75.0195 149.513 76.1479 150.319 77.2764 151.126L77.8138 150.481ZM82.9726 151.555L82.5965 149.245L82.3278 146.934C82.1666 145.376 81.9516 143.871 81.8441 142.259L71.9564 143.011L70.398 144.892C69.8607 145.537 69.4308 146.182 68.8934 146.827C67.8724 148.17 66.9051 149.46 65.9378 150.857L65.8303 150.964L65.6691 151.018L62.0687 151.502L61.6926 151.555L61.6388 151.072L61.1552 147.364L61.1552 147.149L61.2627 147.042L62.015 145.967C60.994 145.053 60.0267 144.086 58.9519 143.119L56.9637 145.752C57.1249 147.633 57.3936 149.513 57.6085 151.341L57.8235 152.738L58.0384 154.135L58.4683 156.929L68.2485 155.21C69.2158 153.812 70.1293 152.469 71.0429 151.126C72.0102 149.836 73.0312 148.492 73.9985 147.203L74.1059 147.095L74.2671 147.042L77.8138 146.612L78.19 146.558L78.2437 146.934C78.4049 148.063 78.4587 149.191 78.7274 150.319L78.7811 150.481L78.6736 150.588L78.0288 151.341C79.1035 152.093 80.232 152.791 81.3067 153.544L82.9726 151.555ZM62.2299 150.696L65.293 150.319L65.8841 149.513C64.7556 148.6 63.6808 147.633 62.5524 146.719L61.8538 147.633L62.2299 150.696ZM60.5641 137.53L60.4566 137.422L60.4566 137.208C60.4029 135.972 60.3491 134.736 60.4029 133.5L60.4029 133.07L60.8328 133.07L64.4869 132.962L64.7019 132.962L64.8093 133.07L65.4542 133.822C66.4215 132.855 67.4425 131.834 68.4098 130.867L66.5289 128.663L56.4263 128.233L56.2651 133.876L56.4263 139.518C59.7043 142.796 62.9285 145.913 66.4215 148.761C67.2813 147.579 68.1411 146.504 68.9471 145.376C67.4962 144.14 66.1528 142.904 64.7019 141.56C64.0033 140.862 63.2509 140.217 62.6061 139.572L60.5641 137.53ZM61.2089 133.983L61.2627 137.046L61.9613 137.745C62.9285 136.67 63.8958 135.488 64.8631 134.521L64.272 133.93L61.2089 133.983ZM75.3956 131.081C74.4283 130.114 73.5148 129.093 72.4938 128.072C70.8279 129.631 69.1083 131.243 67.4425 133.016C65.7229 134.736 64.1645 136.509 62.5524 138.336L64.057 139.841L65.6154 141.292C67.12 139.465 68.7859 137.691 70.3443 135.918C71.2041 135.058 71.9564 134.198 72.7625 133.392C73.676 132.694 74.4821 131.888 75.3956 131.081ZM73.4073 135.112L76.5241 135.004C76.4704 134.091 76.5241 133.177 76.5241 132.317L75.933 131.726C74.912 132.64 73.891 133.661 72.9237 134.628L73.4073 135.112ZM71.5265 140.109L81.6292 139.572C81.468 136.509 81.4142 133.446 81.5217 130.437C80.7694 129.684 80.0708 128.986 79.3185 128.233L77.2227 125.923C75.8255 124.418 74.3746 122.752 73.0849 121.14L71.4728 122.43L69.9144 123.773C71.0966 125.17 72.2789 126.568 73.5148 127.911C74.7508 129.254 76.0405 130.544 77.2764 131.78L77.3839 131.888L77.3302 132.049L77.3302 133.661L77.3302 135.273L77.3839 135.649L76.954 135.649L73.3536 135.81L73.1387 135.81L73.0312 135.703L72.3863 135.058C71.419 136.025 70.5055 137.046 69.592 138.067C70.1831 138.873 70.8279 139.518 71.5265 140.109ZM77.0615 123.29C77.169 122.322 77.2764 121.355 77.4377 120.441L74.4821 120.065L73.7835 120.656C74.6433 121.731 75.5031 122.806 76.4166 123.827L77.0615 123.29ZM81.7904 125.654C81.8441 124.848 81.8441 124.096 81.9516 123.343L82.2203 121.033L82.489 118.722C82.5965 117.97 82.7577 117.163 82.8652 116.411L73.0849 114.799C70.398 116.734 67.9261 118.776 65.293 120.979L65.1855 121.086L65.0243 121.033L61.4239 120.656L61.0477 120.603L61.1014 120.119L61.5851 116.411L61.5851 116.196L61.6926 116.089L62.7673 115.229C62.015 114.047 61.2089 112.918 60.4566 111.736L57.9847 113.778C57.4473 117.54 56.9637 121.247 56.8024 124.955L66.6902 125.6C67.9261 124.472 69.1621 123.343 70.398 122.322C71.6877 121.248 72.9237 120.226 74.2134 119.259L74.3209 119.152L74.4821 119.205L78.0288 119.635L78.4049 119.689L78.3512 120.065C78.19 121.194 78.0288 122.322 77.975 123.451L77.9213 123.612L77.8138 123.719L76.954 124.364C77.8676 125.385 78.7811 126.406 79.6946 127.32L81.7904 125.654ZM61.9075 119.85L64.9706 120.226L65.7229 119.582C64.8631 118.399 64.057 117.271 63.1972 116.089L62.3374 116.841L61.9075 119.85ZM63.4122 106.738L63.3584 106.577L63.4122 106.416C63.6808 105.18 63.8958 103.998 64.2182 102.816L64.3257 102.386L64.7019 102.439L68.3023 103.245L68.4635 103.299L68.5172 103.46L69.0009 104.374C70.1831 103.622 71.3653 102.869 72.5475 102.224L71.2578 99.645L61.5851 96.8507L60.1342 102.278L58.8982 107.813C60.0267 109.801 61.3164 111.736 62.5524 113.617C63.7883 115.498 65.078 117.325 66.4215 119.098C67.5499 118.184 68.6247 117.325 69.6995 116.465C67.4962 113.294 65.293 110.016 63.4122 106.738ZM64.8631 103.353L64.2182 106.362L64.7556 107.222C65.9378 106.362 67.1738 105.556 68.356 104.696L67.9261 103.944L64.8631 103.353ZM79.3185 103.944C78.6736 102.762 77.9213 101.58 77.2227 100.344C75.1807 101.418 73.1924 102.654 71.0966 103.89C69.0546 105.18 67.12 106.47 65.1318 107.921L66.2065 109.748C66.5827 110.339 67.0126 110.984 67.3887 111.575C69.2695 110.124 71.3116 108.834 73.2999 107.491C74.2671 106.846 75.2344 106.201 76.2554 105.61C77.2227 105.073 78.2437 104.481 79.3185 103.944ZM76.4704 107.329L79.4797 107.974C79.6409 107.061 79.9096 106.255 80.1783 105.341L79.7484 104.589C78.5661 105.234 77.2764 105.986 76.148 106.685L76.4704 107.329ZM73.4073 111.79L83.3488 113.671C83.6712 112.166 83.9936 110.661 84.316 109.157L84.5847 108.028L84.9072 106.953L85.4983 104.75C84.9609 103.89 84.3698 102.977 83.8862 102.063L82.3815 99.3763C81.4142 97.5493 80.3395 95.6147 79.5334 93.7339L77.6526 94.6474L75.8255 95.6147C76.6316 97.2806 77.4914 98.8927 78.2975 100.451C79.1573 102.063 80.0708 103.622 81.0381 105.126L81.0918 105.287L81.0381 105.449L80.6619 107.007C80.5544 107.544 80.447 108.082 80.2857 108.565L80.232 108.942L79.8558 108.888L76.2554 108.189L76.0942 108.136L75.9867 108.028L75.5031 107.222C74.3746 107.921 73.1924 108.673 72.0639 109.479C72.4401 110.178 72.87 111.037 73.4073 111.79ZM82.8114 96.7969C83.1338 95.9371 83.51 95.0236 83.7787 94.1101L80.9843 93.0353L80.1245 93.4652C80.7156 94.7012 81.3068 95.9371 81.8979 97.1731L82.8114 96.7969ZM86.8417 100.182C87.0567 99.4301 87.3254 98.7315 87.5403 97.9792L88.4001 95.8297L89.2062 93.6264C89.4749 92.9278 89.7973 92.1755 90.1197 91.5306L80.9843 87.6616C77.8676 88.8438 75.0195 90.2947 71.9027 91.7993L71.7415 91.8531L71.5803 91.7993L68.1411 90.6171L67.7649 90.4559L67.9261 90.0797L69.2695 86.5868L69.3233 86.4256L69.4845 86.3718C69.9144 86.1569 70.3443 85.9419 70.7742 85.727C70.2906 84.3836 69.8069 83.0401 69.377 81.6429L66.3677 83.0401C64.9168 86.5331 63.6271 90.0797 62.4986 93.6802L71.9564 96.6895C73.4073 95.8834 74.912 95.1311 76.3092 94.3787C77.8138 93.6264 79.3185 92.9816 80.7694 92.283L80.9306 92.2292L81.0918 92.283L84.4235 93.5727L84.7997 93.7339L84.6385 94.1101C84.2086 95.1848 83.8324 96.2058 83.4563 97.3343L83.4025 97.4955L83.2413 97.5493L82.274 97.9792C82.9189 99.1614 83.5637 100.344 84.2086 101.526L86.8417 100.182ZM68.8396 89.9185L71.7415 90.9933L72.7625 90.5096C72.2251 89.2199 71.634 87.8765 71.0966 86.4793L69.9681 87.0704L68.8396 89.9185ZM73.5148 77.3977L73.4611 77.2365L73.5148 77.0753C74.0522 76.0005 74.5896 74.8183 75.1269 73.7435L75.3419 73.3136L75.7181 73.4748L78.9961 75.1407L79.1573 75.1944L79.211 75.3557L79.4797 76.2692C80.8231 75.7856 82.1665 75.4094 83.51 75.0332L82.8651 72.2389L74.1597 67.1875L71.3653 72.1314L68.8934 77.1827C69.5382 79.4397 70.3443 81.6429 71.0429 83.7387C71.7952 85.8882 72.6013 87.984 73.5148 90.0797C74.7508 89.4886 76.0405 88.8438 77.2764 88.2527C76.5779 86.4793 75.933 84.7597 75.3419 82.8789C75.0732 81.9654 74.697 81.0518 74.4284 80.1383L73.5148 77.3977ZM75.7718 74.4959L74.4283 77.2365L74.697 78.15C76.0942 77.6126 77.4377 77.129 78.7811 76.6454L78.5661 75.893L75.7718 74.4959ZM89.6898 78.5262C89.3136 77.1827 88.9375 75.8393 88.5613 74.4959C86.3581 75.087 84.0474 75.7856 81.7367 76.4842C79.4259 77.1827 77.2227 78.0963 74.912 79.0098L75.5568 81.0518L76.2554 83.1476C78.4049 82.1803 80.7694 81.428 82.9726 80.6219C84.1011 80.2458 85.1759 79.8159 86.3044 79.5472C87.4328 79.171 88.5613 78.7949 89.6898 78.5262ZM86.0894 81.0518L88.83 82.3953C89.2062 81.5892 89.6898 80.7832 90.1197 80.0308L89.9048 79.2785C88.5613 79.6547 87.1642 79.9771 85.8745 80.407L86.0894 81.0518ZM82.0591 84.6522L91.2482 88.8975C92.5916 86.1569 93.9351 83.4163 95.4397 80.7294C95.1173 79.7621 94.7949 78.7949 94.5262 77.7738L93.7201 74.8183L92.9678 71.809L92.5916 70.2506L92.323 68.6922C90.9795 68.9609 89.6361 69.2296 88.3464 69.552C88.7225 71.3254 89.0987 73.0987 89.5823 74.872C90.066 76.6454 90.6034 78.365 91.087 80.0308L91.1407 80.192L91.087 80.3532L90.3347 81.7504C90.066 82.2341 89.9048 82.7177 89.6361 83.2013L89.4749 83.5775L89.0987 83.4163L85.8207 81.8579L85.6595 81.8042L85.6058 81.6429L85.3371 80.8369C84.0474 81.2668 82.7577 81.6967 81.4142 82.1803C81.5217 82.9326 81.7367 83.7924 82.0591 84.6522ZM94.7949 72.4538C95.2785 71.6478 95.8696 70.8417 96.407 70.0894L93.9351 68.3698L93.0753 68.4773C93.344 69.8207 93.6127 71.1641 93.9888 72.5076L94.7949 72.4538ZM97.9117 76.6454L99.1476 74.6571L100.491 72.7763C101.405 71.5403 102.211 70.1969 103.232 68.9609L95.3323 62.996L92.8603 63.3185L90.4421 63.8021C88.83 64.1245 87.2179 64.4469 85.552 64.8231L85.3908 64.8768L85.2833 64.7694L82.274 62.7274L81.9516 62.5124L82.2203 62.1362L84.3161 59.0732L84.4235 58.9657L84.5847 58.912L85.9282 58.6433C85.767 57.2998 85.6595 55.9027 85.552 54.5055L82.3278 55.1504C81.253 56.655 80.1783 58.2671 79.1035 59.7718C78.5661 60.5241 78.0825 61.3302 77.5989 62.1362L76.0942 64.5007L84.531 69.7132C86.1431 69.2833 87.7553 68.8534 89.3674 68.531C90.9795 68.2086 92.5916 67.8861 94.2038 67.5637L94.365 67.51L94.4725 67.6175L97.3743 69.6595L97.6967 69.8744L97.4817 70.1969C96.8369 71.1641 96.1383 72.0777 95.5472 72.9912L95.4935 73.1524L95.3323 73.2062L94.365 73.3136C94.6874 74.6033 95.0098 75.893 95.386 77.129L97.9117 76.6454ZM82.9726 62.2437L85.552 63.9633L86.5193 63.7484C86.3044 62.3512 86.0894 60.954 85.8745 59.4494L84.746 59.718L82.9726 62.2437ZM90.4421 51.335L90.4421 51.12L90.5496 51.0126L92.9678 48.1645L93.2902 47.8421L93.5589 48.1107L96.3533 50.4752L96.4607 50.5827L96.4607 50.7976L96.4608 51.7649C97.8042 51.6037 99.2551 51.5499 100.652 51.4425L100.706 48.5944L93.4514 41.5548L91.5169 43.5968C90.872 44.2416 90.2272 44.994 89.6361 45.6926L85.9819 49.9915C86.2506 54.6667 86.6268 59.1269 87.3791 63.5334C88.7763 63.211 90.1197 62.9423 91.4632 62.6736C91.1945 60.7928 90.9795 58.9657 90.872 57.0312C90.6571 55.2041 90.4421 53.2695 90.4421 51.335ZM93.2902 49.1317L91.3019 51.4425L91.3557 52.356C92.8066 52.1948 94.2575 52.0336 95.7084 51.8724L95.7084 51.12L93.2902 49.1317ZM105.865 56.3326C105.811 54.9891 105.757 53.5382 105.757 52.1411C103.447 52.1948 101.028 52.2485 98.6102 52.4097C96.2458 52.6247 93.8276 52.8934 91.4094 53.1621C91.4631 54.613 91.6244 56.0639 91.7318 57.5685C92.9141 57.3536 94.0963 57.2461 95.2785 57.0312C96.4607 56.9237 97.6967 56.7625 98.8252 56.7087C101.19 56.4938 103.5 56.3326 105.865 56.3326ZM101.727 57.9984L104.091 59.933C104.683 59.2344 105.274 58.5358 105.919 57.891L105.865 57.0849C104.468 57.0849 103.07 57.1924 101.673 57.2999L101.727 57.9984Z" fill="#3FC5E3"/>
</svg>
