<svg width="452" height="452" viewBox="0 0 452 452" fill="none" xmlns="http://www.w3.org/2000/svg">
<path d="M293.96 333.394C293.907 335.383 293.745 337.478 293.584 339.467L293.584 339.682L293.477 339.789C293.047 340.219 292.617 340.649 292.133 341.025L290.736 342.207L290.414 342.53L290.145 342.261L287.673 339.574L287.566 339.467L287.619 339.306L287.727 338.338C286.383 338.285 284.933 338.231 283.643 338.123C283.535 339.091 283.428 340.058 283.267 340.971L289.608 348.817C292.456 346.399 295.411 343.981 298.044 341.348C298.152 340.058 298.259 338.876 298.313 337.64L299.119 338.446L298.904 341.455L298.904 341.67L298.743 341.831C295.841 344.626 292.832 347.205 289.715 349.784L289.339 350.053L289.124 349.731L282.461 341.348L282.353 341.24L282.407 341.079C282.568 340.058 282.729 339.144 282.837 338.07C281.44 337.962 280.042 337.855 278.645 337.64C278.484 338.983 278.269 340.38 278.108 341.724L281.225 342.046L281.386 342.1L281.493 342.207L287.942 350.483L288.157 350.805L287.781 351.074L285.362 352.955C284.556 353.546 283.75 354.137 282.89 354.674C281.225 355.803 279.612 356.985 277.893 358.06L277.732 358.114L277.57 358.06L274.239 357.523C273.863 358.651 273.594 359.78 273.164 360.854L273.11 361.015L272.949 361.069C271.229 362.036 269.456 363.058 267.683 363.971L262.309 366.658L261.879 366.873L261.718 366.497L257.258 356.77L257.204 356.609L257.258 356.448C257.634 355.534 258.064 354.567 258.386 353.6C257.096 353.17 255.753 352.686 254.41 352.203C253.926 353.438 253.442 354.674 252.905 355.964L255.968 357.093L256.129 357.146L256.183 357.308L260.482 366.873L260.643 367.249L260.213 367.464C258.386 368.216 256.559 369.076 254.678 369.775L251.884 370.849L250.487 371.387L249.036 371.87L248.875 371.924L248.713 371.87L245.489 370.473C244.898 371.494 244.253 372.569 243.608 373.536L243.501 373.644L243.34 373.698C241.405 374.235 239.471 374.772 237.536 375.202L231.625 376.492L230.98 376.707L230.926 376.331L228.938 365.852L228.884 365.691L228.992 365.583C229.583 364.777 230.174 363.971 230.765 363.165C229.583 362.413 228.401 361.66 227.272 360.854C226.52 361.929 225.714 363.057 224.854 364.132L227.541 365.959L227.648 366.067L227.702 366.228L229.529 376.546L229.583 376.922L229.099 376.976C227.165 377.298 225.176 377.674 223.134 377.889L220.179 378.265L218.728 378.426L217.223 378.534L217.008 378.534L216.901 378.426L214.16 376.331C213.3 377.19 212.441 378.05 211.635 378.856L211.527 378.964L211.312 378.964C209.324 379.018 207.336 379.071 205.293 379.071C203.305 379.018 201.263 379.018 199.329 378.91L198.845 378.856L198.845 378.426L199.382 367.786L199.382 367.571L199.49 367.464C200.296 366.873 201.048 366.121 201.801 365.476L200.403 363.971L199.006 362.359C197.985 363.272 196.91 364.132 195.889 365.046L198.039 367.41L198.146 367.518L198.093 367.679L197.394 378.158L197.394 378.588L196.91 378.534C194.922 378.373 192.88 378.265 190.892 377.997C188.904 377.728 186.915 377.567 184.927 377.19L184.766 377.137L184.658 377.029L182.509 374.342C181.542 374.987 180.52 375.578 179.499 376.169L179.338 376.223L179.177 376.169C177.243 375.74 175.254 375.363 173.32 374.826C171.385 374.289 169.397 373.805 167.516 373.214L167.086 373.106L167.194 372.677L170.31 362.466L170.364 362.305L170.525 362.251C171.439 361.875 172.352 361.392 173.266 360.908L172.245 359.135L171.278 357.308C170.095 357.952 168.859 358.544 167.57 359.188L169.074 361.983L169.128 362.144L169.074 362.305L165.958 372.3L165.796 372.677L165.367 372.569L162.518 371.655C161.551 371.333 160.638 370.957 159.67 370.634C157.79 369.936 155.909 369.237 154.082 368.378L153.92 368.324L153.867 368.163L152.416 364.992C151.287 365.368 150.159 365.744 148.977 366.067L148.815 366.121L148.654 366.067C146.881 365.153 145.054 364.293 143.28 363.38C141.561 362.413 139.734 361.445 138.068 360.424L137.692 360.156L137.907 359.833L143.388 350.698L143.442 350.537L143.603 350.483C144.57 350.268 145.591 349.999 146.558 349.784L145.967 347.796C145.806 347.097 145.591 346.453 145.43 345.754C144.14 346.076 142.797 346.345 141.453 346.614L142.206 349.731L142.259 349.892L142.206 350.053L136.724 358.973L136.509 359.296L136.133 359.027C132.694 356.985 129.416 354.674 126.192 352.31L126.031 352.149L125.977 351.988L125.332 348.548C124.15 348.656 122.914 348.71 121.678 348.763L121.463 348.763L121.302 348.602L116.734 344.679C115.283 343.336 113.778 341.939 112.381 340.541L112.059 340.219L112.328 339.95L119.797 332.373L119.905 332.266L120.12 332.266L123.183 332.32C123.129 330.869 123.075 329.525 123.075 328.128L122.968 328.128L122.968 327.268C125.278 327.322 127.589 327.161 129.792 327.107L129.953 327.053L130.061 327.161C130.437 327.537 130.813 327.913 131.243 328.236L132.479 329.257L132.748 329.525L132.479 329.794L130.168 332.642L130.061 332.75L129.9 332.803L129.04 332.911C129.147 334.308 129.255 335.705 129.362 337.102C130.276 337.049 131.243 337.049 132.157 336.887L138.498 329.042C136.133 327.107 133.823 325.119 131.673 322.969C130.437 323.023 129.201 323.077 127.965 323.131L128.019 322.324C129.309 322.324 130.598 322.217 131.834 322.163L131.996 322.109L132.103 322.217C133.285 323.292 134.414 324.42 135.65 325.441L137.477 327.053C138.122 327.591 138.659 328.128 139.304 328.558L139.626 328.773L139.411 329.095L132.802 337.425L132.694 337.532L132.533 337.586C131.566 337.693 130.545 337.747 129.524 337.801C129.631 339.198 129.9 340.541 130.061 341.885C131.458 341.777 132.909 341.616 134.252 341.455L133.823 338.338L133.769 338.177L133.876 338.07L140.325 329.794L140.54 329.472L140.862 329.686L142.85 331.567L144.893 332.964L146.935 334.362C147.633 334.845 148.332 335.221 148.977 335.651L149.084 335.759L149.138 335.92L149.675 338.822C150.589 338.553 151.502 338.284 152.47 337.962L152.631 337.908L152.792 337.962C154.189 338.714 155.586 339.574 157.037 340.273L161.336 342.422L161.712 342.583L161.551 342.96L157.091 352.686L157.037 352.847L156.876 352.901C155.909 353.224 154.995 353.492 154.082 353.761L154.78 355.749C155.049 356.448 155.318 357.039 155.586 357.737C156.983 357.2 158.327 356.716 159.67 356.233L158.542 353.492L158.488 353.331L158.542 353.17L162.787 343.551L162.948 343.175L163.324 343.336L165.581 344.303C166.334 344.626 167.086 344.84 167.838 345.163C169.343 345.7 170.848 346.345 172.406 346.829L172.567 346.882L172.621 347.044L173.857 349.677C174.663 349.193 175.523 348.763 176.383 348.226L176.49 348.118L176.651 348.172C178.21 348.548 179.768 349.032 181.327 349.408L186.002 350.429L186.378 350.483L186.324 350.859L184.336 361.338L184.282 361.499L184.175 361.607C183.315 362.144 182.509 362.628 181.649 363.165C182.401 364.347 183.207 365.476 184.067 366.55C185.303 365.744 186.432 364.938 187.668 364.132L185.841 361.66L185.733 361.553L185.787 361.392L187.614 351.074L187.668 350.698L188.044 350.752L190.462 351.128C191.268 351.289 192.074 351.343 192.88 351.396C194.492 351.611 196.104 351.826 197.77 351.88L197.931 351.934L198.039 352.041L199.92 354.352C200.618 353.653 201.317 353.062 201.962 352.31L202.069 352.203L202.177 352.203C203.789 352.203 205.401 352.31 206.959 352.256C208.518 352.203 210.13 352.203 211.742 352.095L212.118 352.041L212.118 352.471L212.709 363.165L212.709 363.38L212.602 363.487C211.957 364.24 211.205 364.885 210.506 365.583L212.064 367.034L213.623 368.378C214.59 367.303 215.557 366.228 216.525 365.153L214.214 363.165L214.106 363.057L214.053 362.896L213.354 352.417L213.354 351.988L213.73 351.934L216.148 351.773C216.955 351.719 217.761 351.558 218.567 351.504C220.179 351.289 221.845 351.128 223.403 350.859L223.564 350.805L223.672 350.913L225.982 352.686C226.466 351.88 227.003 351.02 227.487 350.214L227.541 350.053L227.702 349.999L230.066 349.462C230.873 349.301 231.679 349.139 232.431 348.925C233.936 348.495 235.494 348.118 237.052 347.635L237.375 347.527L237.482 347.957L240.599 358.167L240.653 358.329L240.599 358.49C240.115 359.403 239.632 360.209 239.148 361.015C240.384 361.714 241.62 362.305 242.91 362.95C243.608 361.714 244.253 360.424 244.898 359.242L242.104 357.845L241.942 357.791L241.889 357.63L238.718 347.689L238.557 347.312L238.879 347.205L241.244 346.453C242.05 346.184 242.802 345.861 243.501 345.593C245.059 345.002 246.564 344.464 248.015 343.766L248.176 343.712L248.337 343.766L251.024 344.948C251.293 344.034 251.669 343.121 251.884 342.154L251.938 341.992L252.099 341.939C253.496 341.186 255.001 340.541 256.398 339.789L260.589 337.425L260.912 337.21L261.127 337.532L266.501 346.668L266.554 346.829L266.501 346.99C266.286 347.957 265.963 348.817 265.641 349.784L267.683 350.322L269.725 350.752C270.101 349.301 270.477 347.957 270.8 346.56L267.79 345.915L267.629 345.861L267.575 345.7L262.094 336.78L261.879 336.457L262.202 336.242C263.599 335.383 264.996 334.523 266.286 333.556C267.575 332.588 268.972 331.729 270.208 330.708L270.316 330.6L270.477 330.654L273.325 331.137C273.433 330.17 273.486 329.257 273.54 328.236L273.594 328.074L273.701 327.967L277.356 324.85L280.848 321.572L281.117 321.303L281.386 321.572L288.855 329.149L288.963 329.257L288.963 329.472L288.802 332.427C290.091 332.427 291.488 332.427 292.778 332.427L293.853 333.502L293.96 333.394ZM290.467 341.401L291.65 340.434L292.778 339.413L292.832 338.392C291.327 338.392 289.93 338.392 288.479 338.338L288.425 339.144L290.467 341.401ZM278.968 332.696L278.806 334.792C278.753 335.49 278.645 336.135 278.591 336.834L280.365 336.995L282.138 337.156C283.32 337.263 284.449 337.317 285.685 337.371C286.921 337.425 288.103 337.532 289.285 337.532C290.467 337.532 291.65 337.532 292.886 337.478C292.939 336.028 293.047 334.63 293.101 333.179C290.682 333.233 288.264 333.179 285.954 333.126C283.643 333.072 281.278 332.857 278.968 332.696ZM283.267 331.514L281.117 329.257L279.021 331.03L278.968 331.943C280.365 332.051 281.762 332.158 283.159 332.266L283.267 331.514ZM288.318 329.579L281.225 322.378C280.096 323.399 279.021 324.474 277.893 325.495L274.4 328.451C274.292 330.493 274.078 332.535 273.809 334.63C273.701 335.705 273.54 336.726 273.433 337.801L272.895 340.918C274.239 341.186 275.636 341.401 277.033 341.616C277.57 337.962 278.054 334.362 278.215 330.761L278.269 330.6L278.377 330.493L280.795 328.397L281.063 328.128L281.332 328.397L283.858 331.03L283.965 331.137L283.965 331.352C283.965 331.675 283.965 331.997 283.911 332.266C285.255 332.32 286.598 332.373 287.996 332.373L288.318 329.579ZM271.982 336.565L269.617 338.177L271.337 340.649L272.25 340.81C272.519 339.467 272.734 338.07 272.895 336.726L271.982 336.565ZM270.638 331.46C269.456 332.427 268.113 333.233 266.877 334.147C266.232 334.577 265.641 335.06 264.942 335.436L262.954 336.672L268.22 345.163C269.832 345.485 271.444 345.915 273.057 346.13C274.722 346.399 276.281 346.668 278 346.883L278.162 346.936L278.269 347.044L280.365 349.999L280.58 350.322L280.204 350.59L277.141 352.686L277.033 352.794L276.872 352.74L275.475 352.525C275.099 353.868 274.722 355.319 274.346 356.663L277.57 357.2C279.183 356.233 280.741 355.104 282.299 353.976L284.61 352.31L286.867 350.59L280.848 342.745C277.57 342.476 274.292 341.885 271.122 341.294L270.961 341.24L270.853 341.133L268.865 338.177L268.65 337.855L268.972 337.64L271.767 335.705L271.874 335.598L272.035 335.651C272.358 335.759 272.68 335.759 273.003 335.866C273.164 334.523 273.325 333.179 273.433 331.782L270.638 331.46ZM279.451 350.16L277.678 347.635L276.657 347.474C276.334 348.871 276.066 350.322 275.743 351.719C276.173 351.826 276.549 351.88 276.979 351.88L279.451 350.16ZM268.543 357.737L268.489 357.899L268.328 357.952C267.199 358.544 266.178 359.242 265.05 359.726L264.673 359.887L264.459 359.565L262.739 356.34L262.685 356.179L262.739 356.018L263.061 355.158C261.718 354.782 260.321 354.352 259.031 353.922L257.956 356.609L262.255 365.744L267.307 363.272C269.026 362.413 270.638 361.445 272.25 360.586C273.003 358.436 273.648 356.179 274.239 353.976L275.099 350.752C275.367 349.623 275.582 348.548 275.851 347.42C274.454 347.205 273.11 347.044 271.713 346.721C270.8 350.322 269.832 354.083 268.543 357.737ZM265.05 358.866C265.963 358.382 266.877 357.899 267.736 357.361L268.059 356.502C266.662 356.179 265.211 355.803 263.814 355.481L263.545 356.179L265.05 358.866ZM255.968 347.635C255.538 348.925 255.108 350.322 254.571 351.611C258.977 353.224 263.599 354.621 268.328 355.695C268.758 354.298 269.241 352.955 269.617 351.504C264.835 350.483 260.321 349.193 255.968 347.635ZM260.374 347.527L258.87 344.84C258.117 345.27 257.258 345.7 256.452 346.076L256.237 346.829C257.526 347.259 258.87 347.742 260.213 348.226L260.374 347.527ZM265.694 346.936L260.536 338.231L256.559 340.488C255.216 341.186 253.818 341.831 252.475 342.53C251.884 344.518 251.185 346.399 250.487 348.387L249.358 351.343C248.982 352.364 248.552 353.224 248.176 354.245C249.412 354.836 250.702 355.373 251.938 355.857C252.636 354.191 253.281 352.471 253.98 350.805C254.625 349.193 255.162 347.366 255.699 345.754L255.753 345.593L255.914 345.539C256.828 345.055 257.903 344.626 258.762 344.088L259.085 343.873L259.3 344.196L261.073 347.366L261.127 347.527L261.073 347.689L260.804 348.495C262.148 348.871 263.384 349.247 264.781 349.569L265.694 346.936ZM248.284 349.731L245.597 350.698L246.671 353.492L247.477 353.868C248.015 352.579 248.606 351.343 249.09 350.107L248.284 349.731ZM248.176 344.464C246.779 345.109 245.274 345.647 243.877 346.184L241.674 346.99L239.471 347.689L242.534 357.093C245.435 358.597 248.445 359.887 251.562 361.177L251.723 361.23L251.776 361.392L253.12 364.777L253.281 365.153L252.905 365.314L249.412 366.658L249.251 366.712L249.09 366.658C248.713 366.497 248.23 366.335 247.8 366.121C247.155 367.303 246.456 368.539 245.758 369.775L248.767 371.064C249.681 370.796 250.54 370.473 251.4 370.151L254.033 369.13C255.807 368.539 257.526 367.679 259.246 366.927L255.323 357.845C253.765 357.254 252.206 356.663 250.648 356.072C249.143 355.427 247.639 354.782 246.188 354.083L246.027 354.137L245.973 353.976L244.791 350.644L244.629 350.268L245.006 350.107L248.176 348.871L248.337 348.817L248.498 348.871L249.358 349.301C249.842 348.065 250.272 346.775 250.702 345.593L248.176 344.464ZM252.153 364.777L251.024 361.929L250.111 361.553C249.466 362.843 248.821 364.132 248.176 365.422L249.251 365.852L252.153 364.777ZM239.847 369.452L239.739 369.56L239.578 369.613C238.396 369.936 237.16 370.312 235.978 370.527L235.548 370.634L235.494 370.258L234.527 366.712L234.473 366.55L234.58 366.443L235.118 365.691C233.882 364.992 232.7 364.24 231.517 363.487L229.852 365.798L231.786 375.686L237.321 374.45C239.148 374.02 240.975 373.483 242.749 372.999C243.393 372.032 243.931 371.064 244.576 370.097L246.241 367.142C246.779 366.174 247.316 365.207 247.854 364.24L249.358 361.23C248.069 360.693 246.779 360.156 245.543 359.565C243.77 362.843 241.942 366.282 239.847 369.452ZM236.193 369.667C237.214 369.399 238.181 369.184 239.148 368.861L239.632 368.055C238.342 367.41 236.999 366.712 235.763 366.013C235.655 366.228 235.44 366.443 235.333 366.658L236.193 369.667ZM230.066 356.555C229.314 357.737 228.562 358.92 227.756 360.048C231.625 362.628 235.763 365.153 240.115 367.357C240.921 366.121 241.62 364.885 242.372 363.595C241.298 363.057 240.223 362.52 239.148 361.983C238.073 361.445 237.052 360.854 236.031 360.263C233.936 359.135 232.001 357.845 230.066 356.555ZM234.312 357.576L233.506 354.621C232.646 354.836 231.732 354.997 230.873 355.212L230.443 355.857C231.625 356.609 232.753 357.415 233.989 358.114L234.312 357.576ZM239.686 358.221L236.784 348.548L232.377 349.731C230.926 350.107 229.422 350.429 227.917 350.752C226.896 352.525 225.767 354.191 224.639 355.964L222.812 358.544C222.167 359.403 221.576 360.209 220.931 361.069C222.006 361.929 223.134 362.735 224.263 363.541C225.338 362.036 226.466 360.586 227.433 359.081C228.454 357.63 229.422 356.018 230.335 354.567L230.389 354.406L230.55 354.352C231.625 354.137 232.7 353.922 233.667 353.6L233.989 353.492L234.097 353.922L235.118 357.415L235.172 357.576L235.118 357.737L234.688 358.49C235.87 359.135 237.052 359.887 238.235 360.532C238.772 359.78 239.202 359.027 239.686 358.221ZM222.113 356.77L219.265 357.146L219.641 360.102L220.286 360.639C221.146 359.565 221.952 358.436 222.758 357.308L222.113 356.77ZM223.188 351.611C221.683 351.934 220.125 352.095 218.567 352.256L216.256 352.525L213.945 352.686L214.698 362.574C215.934 363.595 217.223 364.777 218.513 365.744C219.803 366.712 221.146 367.733 222.49 368.754L222.597 368.861L222.651 369.022L223.134 372.623L223.188 372.999L222.704 373.053L218.997 373.536L218.782 373.536L218.674 373.429C218.298 373.16 217.922 372.891 217.599 372.569C216.686 373.59 215.719 374.557 214.751 375.632L217.384 377.62L218.782 377.513L220.179 377.298L222.973 376.976C224.854 376.814 226.735 376.438 228.562 376.116L226.896 366.389C225.499 365.422 224.155 364.508 222.812 363.595C221.468 362.574 220.179 361.607 218.943 360.586L218.835 360.478L218.782 360.317L218.352 356.77L218.298 356.394L218.674 356.34L222.06 355.964L222.221 355.91L222.328 356.018L223.081 356.663C223.833 355.588 224.585 354.406 225.284 353.385L223.188 351.611ZM222.221 372.354L221.845 369.291L221.039 368.7C220.125 369.828 219.158 370.903 218.244 372.032L219.158 372.73L222.221 372.354ZM209.055 373.912L208.948 374.02L208.733 374.02C207.497 374.074 206.261 374.127 205.025 374.074L204.595 374.074L204.595 373.644L204.487 369.99L204.487 369.775L204.595 369.667L205.347 369.022C204.38 368.055 203.359 367.034 202.445 366.121L200.242 368.001L199.759 378.05L205.401 378.211C207.282 378.265 209.163 378.104 211.043 378.158L212.333 376.976L213.569 375.74L215.934 373.268C216.74 372.462 217.492 371.602 218.191 370.796L220.34 368.216C219.158 367.356 218.083 366.497 217.008 365.637C214.536 368.431 211.903 371.279 209.055 373.912ZM205.508 373.268C206.529 373.321 207.55 373.268 208.571 373.214L209.27 372.515C208.195 371.548 207.121 370.581 206.046 369.613L205.401 370.151L205.508 373.268ZM202.66 359.135C201.693 360.102 200.672 361.123 199.651 361.929C202.768 365.368 206.207 368.807 209.861 371.924C210.882 370.903 211.903 369.99 212.924 368.861C209.216 365.798 205.777 362.574 202.66 359.135ZM206.637 361.069L206.529 357.952C205.616 358.006 204.702 357.952 203.789 357.899L203.198 358.49C204.111 359.511 205.132 360.532 206.1 361.499L206.637 361.069ZM211.688 363.004L211.205 352.955L206.583 353.062C205.079 353.062 203.52 353.009 202.016 353.009C200.565 354.567 199.06 355.857 197.502 357.308L195.137 359.457C194.331 360.156 193.525 360.747 192.719 361.445C193.579 362.52 194.439 363.595 195.352 364.616C198.254 362.251 200.941 359.887 203.413 357.308L203.52 357.2L203.681 357.254C204.756 357.254 205.831 357.361 206.906 357.254L207.282 357.2L207.282 357.63L207.389 361.284L207.389 361.499L207.282 361.607L206.637 362.251C207.604 363.219 208.625 364.132 209.646 365.046L211.688 363.004ZM194.868 357.361L192.02 356.985L191.644 359.941L192.182 360.693C193.256 359.833 194.331 358.973 195.352 358.06C195.245 357.845 195.03 357.63 194.868 357.361ZM197.287 352.686C195.728 352.632 194.17 352.364 192.611 352.203C191.859 352.095 191.053 352.041 190.301 351.934L187.99 351.558L186.378 361.338C187.345 362.628 188.312 364.025 189.333 365.261C190.354 366.497 191.429 367.786 192.558 369.13L192.665 369.237L192.611 369.399L192.235 372.999L192.182 373.375L191.698 373.321L187.99 372.838L187.775 372.838L187.668 372.73C187.399 372.354 187.076 372.032 186.808 371.655C185.626 372.408 184.443 373.16 183.261 373.912L185.303 376.384C187.13 376.707 189.011 376.868 190.892 377.137C191.859 377.244 192.773 377.405 193.686 377.459L196.588 377.782L197.34 367.894C196.212 366.658 195.137 365.476 194.062 364.186C192.988 362.896 192.02 361.607 190.999 360.371L190.892 360.263L190.946 360.102L191.429 356.609L191.483 356.233L191.859 356.287L195.245 356.663L195.406 356.716L195.513 356.824L196.158 357.684C197.179 356.77 198.2 355.857 199.114 354.943L197.287 352.686ZM191.322 372.515L191.698 369.452L191.053 368.7C189.871 369.56 188.689 370.42 187.56 371.226C187.775 371.548 188.044 371.817 188.312 372.085L191.322 372.515ZM178.21 370.903L178.049 370.957L177.887 370.903C176.651 370.634 175.469 370.42 174.233 370.043L173.803 369.936L173.857 369.56L174.663 365.959L174.717 365.798L174.878 365.744L175.792 365.261C175.039 364.079 174.287 362.896 173.642 361.714L171.063 363.004L168.268 372.784L173.696 374.235C175.523 374.665 177.35 375.095 179.231 375.471C181.219 374.342 183.207 373.106 185.088 371.87L187.775 370.043C188.742 369.399 189.602 368.754 190.516 368.055C189.602 366.927 188.689 365.906 187.883 364.777C186.378 365.852 184.766 366.927 183.154 368.001C181.542 368.969 179.929 369.936 178.21 370.903ZM174.878 369.399C175.845 369.721 176.866 369.882 177.834 370.097L178.747 369.613C177.887 368.431 177.081 367.195 176.329 366.013L175.63 366.389L174.878 369.399ZM175.523 354.997C174.341 355.642 173.158 356.394 171.922 356.985C174.126 361.123 176.598 365.207 179.446 369.13C180.735 368.378 181.918 367.733 183.1 366.873C180.306 363.004 177.78 359.081 175.523 354.997ZM178.962 357.899L179.607 354.889C178.747 354.674 177.834 354.406 176.974 354.191L176.221 354.621C176.92 355.857 177.565 357.039 178.264 358.275L178.962 357.899ZM183.369 360.908L185.303 351.02L180.843 349.999C179.392 349.623 177.887 349.193 176.436 348.817L175.093 349.623L173.803 350.375C172.89 350.859 172.03 351.396 171.116 351.88C170.203 352.364 169.236 352.901 168.322 353.385C167.409 353.868 166.441 354.298 165.474 354.728C166.065 355.964 166.602 357.254 167.247 358.436C170.579 356.824 173.75 355.158 176.813 353.277L176.974 353.224L177.135 353.277C178.156 353.546 179.231 353.868 180.306 354.083L180.682 354.137L180.628 354.513L179.876 358.06L179.822 358.221L179.661 358.275L178.855 358.758C179.553 359.887 180.306 361.069 181.112 362.198L183.369 360.908ZM168.43 351.45L165.743 350.483L164.668 353.277L165.098 354.137C166.334 353.546 167.57 352.955 168.806 352.364C168.591 352.041 168.483 351.719 168.43 351.45ZM171.869 347.474C170.364 347.044 168.967 346.399 167.516 345.915C166.817 345.647 166.065 345.432 165.367 345.055L163.271 344.142L159.348 353.224C159.993 354.728 160.584 356.287 161.229 357.791C161.927 359.242 162.626 360.801 163.378 362.305L163.432 362.466L163.378 362.628L162.089 366.067L161.927 366.443L161.551 366.282L158.058 364.938L157.897 364.885L157.843 364.723C157.628 364.293 157.413 363.864 157.198 363.326C155.855 363.81 154.512 364.293 153.114 364.723L154.512 367.733C156.231 368.485 158.004 369.076 159.778 369.775C160.638 370.097 161.551 370.473 162.465 370.742L165.152 371.602L168.215 362.198C167.409 360.747 166.602 359.296 165.958 357.791C165.205 356.287 164.56 354.782 163.862 353.331L163.808 353.17L163.862 353.009L165.152 349.677L165.313 349.301L165.689 349.462L168.859 350.698L169.021 350.752L169.074 350.913L169.504 351.88C170.687 351.235 171.869 350.59 173.051 349.946L171.869 347.474ZM161.497 365.368L162.572 362.466L162.089 361.445C160.799 361.983 159.455 362.574 158.058 363.111C158.273 363.541 158.434 363.917 158.596 364.293L161.497 365.368ZM148.977 360.586L148.815 360.639L148.654 360.586C147.526 359.994 146.397 359.511 145.322 358.866L144.893 358.651L145.054 358.275L146.72 354.997L146.773 354.836L146.935 354.782L147.848 354.513C147.364 353.17 146.988 351.826 146.612 350.483L143.818 351.128L138.659 359.833L143.603 362.628C145.269 363.541 146.988 364.293 148.654 365.207C150.857 364.616 153.114 363.864 155.264 363.111L158.434 361.983C159.509 361.553 160.584 361.123 161.551 360.693C160.96 359.457 160.369 358.221 159.778 356.878C158.004 357.576 156.231 358.167 154.404 358.812L153.061 359.296L151.663 359.726L148.977 360.586ZM146.128 358.382C147.042 358.866 147.956 359.35 148.923 359.779L149.836 359.511C149.299 358.114 148.815 356.77 148.332 355.427L147.579 355.642L146.128 358.382ZM150.159 344.464C148.815 344.84 147.418 345.27 146.128 345.593C147.311 350.107 148.708 354.728 150.535 359.242C151.932 358.812 153.276 358.436 154.726 357.952C152.899 353.438 151.341 348.978 150.159 344.464ZM152.738 348.118L154.082 345.378C153.276 345.002 152.47 344.518 151.717 344.088L150.965 344.303C151.341 345.647 151.717 346.99 152.093 348.333L152.738 348.118ZM156.285 352.095L160.584 342.96L156.5 340.918C155.156 340.219 153.813 339.413 152.47 338.714C150.481 339.413 148.547 339.843 146.505 340.38L143.388 341.133C142.367 341.401 141.346 341.562 140.271 341.777C140.54 343.121 140.755 344.518 141.077 345.808C142.85 345.432 144.678 345.002 146.397 344.572C148.117 344.142 149.89 343.658 151.61 343.121L151.771 343.067L151.932 343.121C152.899 343.658 153.759 344.196 154.78 344.679L155.156 344.84L154.995 345.217L153.437 348.495L153.383 348.656L153.222 348.71L152.416 348.978C152.846 350.268 153.276 351.558 153.759 352.901L156.285 352.095ZM144.086 339.359L141.722 337.747L140.002 340.219L140.11 341.079C141.453 340.81 142.797 340.541 144.14 340.273L144.086 339.359ZM148.385 336.242C147.042 335.436 145.806 334.523 144.516 333.663L142.636 332.32C142.044 331.836 141.4 331.406 140.808 330.922L134.79 338.768C135.166 342.046 135.865 345.217 136.563 348.602L136.617 348.763L136.509 348.871L134.467 351.88L134.252 352.202L133.876 351.934L130.813 349.838L130.706 349.731L130.652 349.569C130.545 349.139 130.437 348.71 130.383 348.226C129.04 348.387 127.643 348.495 126.246 348.602L126.89 351.826C127.589 352.417 128.395 352.901 129.201 353.492L131.566 355.104C133.07 356.179 134.736 357.2 136.295 358.221L141.507 349.784C141.077 348.172 140.701 346.614 140.325 344.948C140.002 343.336 139.68 341.724 139.465 340.112L139.411 339.95L139.519 339.843L141.561 336.941L141.776 336.619L142.098 336.834L144.893 338.768L145.054 338.822L145.107 338.983L145.215 339.95C146.505 339.628 147.794 339.305 149.084 338.983L148.385 336.242ZM133.876 351.074L135.65 348.548L135.435 347.581C134.038 347.796 132.587 347.957 131.136 348.226L131.404 349.354L133.876 351.074ZM123.075 343.604L122.86 343.604L122.753 343.497L119.905 341.079C119.797 340.971 119.69 340.864 119.582 340.756L119.851 340.488L122.215 337.693L122.323 337.586L122.538 337.586C122.86 337.586 123.183 337.586 123.505 337.586C123.398 336.189 123.344 334.738 123.29 333.394L120.442 333.341L113.402 340.595C114.8 341.885 116.089 343.175 117.486 344.464L121.785 348.118C124.096 348.065 126.353 347.85 128.664 347.689C129.792 347.635 130.867 347.527 131.996 347.366L135.327 346.936C135.059 345.593 134.736 344.196 134.575 342.852C132.748 343.067 130.867 343.228 128.932 343.443C127.965 343.551 127.052 343.605 126.031 343.658L123.075 343.604ZM120.818 340.703L123.129 342.691L124.042 342.637C123.881 341.186 123.72 339.735 123.559 338.284L122.806 338.284L120.818 340.703ZM128.126 328.236C126.783 328.289 125.332 328.343 123.935 328.343C123.989 330.654 124.042 333.072 124.204 335.49C124.365 337.908 124.633 340.219 124.956 342.691L127.105 342.583L129.309 342.422C128.932 340.112 128.718 337.64 128.503 335.275C128.395 334.093 128.288 332.911 128.234 331.782C128.18 330.546 128.18 329.364 128.126 328.236ZM129.739 332.32L131.673 329.955L130.652 329.042L129.685 328.074L128.879 328.128C128.879 329.525 128.932 330.976 128.986 332.32L129.739 332.32Z" fill="#16877C"/>
<path d="M118.62 333.877C116.578 333.877 114.589 333.715 112.493 333.554L112.279 333.554L112.171 333.447C111.311 332.587 110.451 331.62 109.645 330.706L109.323 330.384L109.592 330.115L112.278 327.643L112.386 327.536L112.547 327.589L113.514 327.697C113.568 326.353 113.622 324.902 113.676 323.559L110.828 323.183L103.036 329.578L106.69 333.877C107.926 335.327 109.215 336.617 110.559 337.961C111.795 338.014 113.031 338.176 114.267 338.229L113.461 339.035C112.44 338.982 111.419 338.928 110.398 338.874L110.183 338.874L110.022 338.713C108.678 337.262 107.227 335.811 105.937 334.306C104.648 332.802 103.304 331.243 102.015 329.739L101.746 329.363L102.068 329.148L110.398 322.43L110.505 322.323L110.666 322.377C111.687 322.538 112.655 322.645 113.676 322.807C113.783 321.409 113.891 320.012 114.052 318.669C112.708 318.508 111.365 318.346 109.968 318.131L109.645 321.248L109.592 321.409L109.484 321.517L101.262 328.019L100.94 328.234L100.671 327.858C98.1455 324.687 95.8348 321.409 93.6316 318.024L93.5778 317.863L93.6316 317.702L94.169 314.37C93.0405 313.994 91.912 313.725 90.7835 313.349L90.6223 313.295L90.5685 313.134L87.6667 307.868L84.9798 302.494L84.7649 302.064L85.1411 301.903L94.8138 297.389L94.975 297.335L95.1362 297.389L97.9843 298.517C98.468 297.174 98.7904 295.884 99.3278 294.594C98.0918 294.111 96.8558 293.627 95.5661 293.09L94.4377 296.153L94.3839 296.314L94.2227 296.368L84.8186 300.398L84.4425 300.559L84.2275 300.129L83.0453 297.335C82.6691 296.422 82.2392 295.454 81.9168 294.594C81.2182 292.714 80.4659 290.887 79.8211 288.952L79.7673 288.791L79.821 288.63L81.2182 285.405C80.1972 284.814 79.1225 284.169 78.1014 283.578L77.9402 283.524L77.8865 283.363L76.2744 277.56C75.8445 275.625 75.4146 273.691 74.9847 271.649L74.8772 271.219L75.2534 271.165L85.6784 269.123L85.8396 269.069L85.9471 269.177L88.5803 270.842C89.3326 269.66 90.0312 268.532 90.8372 267.296C89.7625 266.543 88.634 265.737 87.5593 264.985L85.7322 267.672L85.6247 267.779L85.4635 267.833L75.1459 269.768L74.7697 269.821L74.716 269.338L74.2323 266.382C74.0711 265.361 73.8562 264.394 73.7487 263.427C73.48 261.438 73.2113 259.45 73.0501 257.462L73.0501 257.247L73.1576 257.139L75.2534 254.399C74.3936 253.539 73.5338 252.679 72.674 251.819L72.5665 251.712L72.5665 251.497L72.459 245.478L72.5665 239.46L72.5665 239.03L72.9964 239.03L83.6364 239.567L83.8514 239.567L83.9588 239.675L85.9471 241.985C86.9681 240.964 87.8817 240.051 89.0102 239.137C88.0966 238.116 87.2368 237.042 86.3233 236.021L83.9588 238.17L83.8514 238.277L83.6902 238.224L73.2113 237.633L72.7814 237.633L72.8352 237.149C73.0501 233.172 73.5338 229.142 74.1249 225.219L74.1786 225.058L74.2861 224.951L76.973 222.801C76.3281 221.834 75.737 220.813 75.1459 219.792L75.0921 219.631L75.1459 219.469L76.4356 213.558L78.0477 207.755C78.1014 207.593 78.1552 207.432 78.1552 207.325L78.5851 207.432L88.7952 210.441L88.9564 210.495L89.0102 210.656L90.4073 213.343C91.6433 212.645 92.7718 211.946 94.0615 211.301C93.4166 210.119 92.8255 208.883 92.2344 207.647L89.4401 209.152L89.2788 209.205L89.1176 209.152L79.1225 206.035L78.7463 205.874L78.8538 205.444C80.036 201.575 81.4332 197.813 82.9378 194.159L82.9916 193.998L83.1528 193.944L86.2696 192.439C85.8934 191.311 85.5172 190.182 85.1948 189L85.1411 188.839L85.1948 188.678L87.8817 183.304L90.7835 178.038L90.9985 177.608L91.3209 177.823L100.51 183.25L100.671 183.304L100.725 183.465L101.424 186.421C102.767 186.045 104.057 185.615 105.454 185.292C105.131 184.003 104.863 182.659 104.54 181.369L101.37 182.176L101.209 182.229L101.047 182.176L92.0732 176.748L91.7508 176.533L92.0195 176.157L93.6316 173.578C94.169 172.718 94.7063 171.858 95.2975 171.052C96.4259 169.386 97.5544 167.72 98.7367 166.108L98.8979 165.947L99.0591 165.893L102.498 165.248C102.391 164.066 102.337 162.83 102.23 161.648L102.23 161.433L102.391 161.272C103.681 159.767 105.024 158.209 106.314 156.704C106.958 155.952 107.657 155.253 108.302 154.501L110.344 152.351L110.666 152.029L110.935 152.297L118.566 159.713L118.673 159.821L118.673 160.036L118.62 163.099C120.07 163.045 121.414 162.991 122.811 162.991L122.811 162.884L123.617 162.83C123.671 165.141 123.725 167.451 123.832 169.708L123.886 169.87L123.778 169.977C123.026 170.729 122.381 171.589 121.683 172.395L121.414 172.664L121.091 172.449L118.243 170.138L118.136 170.031L118.082 169.87L117.975 169.01C116.578 169.117 115.18 169.225 113.783 169.332C113.837 170.246 113.944 171.213 113.998 172.127L121.898 178.414L122.596 177.5L123.348 176.641L124.853 174.921C125.337 174.33 125.82 173.739 126.358 173.201L127.916 171.536C127.862 170.3 127.755 169.117 127.755 167.828L128.507 167.828C128.561 169.171 128.615 170.407 128.722 171.697L128.776 171.858L128.668 171.965L127.003 173.739C126.465 174.384 125.982 174.975 125.39 175.566C124.369 176.802 123.295 177.984 122.327 179.274L122.112 179.596L121.79 179.381L113.407 172.825L113.3 172.718L113.246 172.557C113.138 171.589 113.085 170.568 113.031 169.547C111.687 169.708 110.29 169.923 108.893 170.138C109.001 171.536 109.215 172.933 109.323 174.33L112.44 173.9L112.601 173.846L112.708 173.954L121.038 180.348L121.36 180.563L121.145 180.886C120.662 181.584 120.124 182.122 119.641 182.82L118.243 184.862L116.846 186.904L115.557 188.946L115.449 189.054L115.288 189.108L112.386 189.645C112.655 190.559 112.977 191.526 113.246 192.439L113.3 192.601L113.246 192.762C111.634 195.556 110.183 198.404 108.893 201.306L108.732 201.682L108.356 201.521L98.6292 197.168L98.468 197.115L98.4142 196.953C98.0381 196.04 97.7694 195.126 97.447 194.159C96.1035 194.643 94.8138 195.18 93.5241 195.717C94.0615 197.115 94.5451 198.458 95.0288 199.801L97.8231 198.619L97.9843 198.565L98.1456 198.619L107.765 202.757L108.141 202.918L107.98 203.294L107.012 205.551L106.152 207.808L105.293 210.065C105.024 210.871 104.809 211.624 104.54 212.322L104.487 212.483L104.325 212.537L101.638 213.827C102.122 214.633 102.659 215.493 103.143 216.299L103.251 216.406L103.197 216.568C102.283 219.631 101.638 222.747 101.047 225.918L100.994 226.294L100.617 226.24L90.1387 224.359L89.9774 224.306L89.87 224.198C89.3326 223.338 88.7415 222.532 88.2578 221.619C87.0756 222.371 86.0009 223.231 84.8724 224.037C85.6784 225.273 86.4845 226.402 87.3443 227.584L89.8162 225.757L89.9237 225.649L90.0849 225.703L100.456 227.476L100.832 227.53L100.779 227.906L100.403 230.324L100.134 232.743L99.8651 235.161L99.7039 237.579L99.6502 237.74L99.5427 237.848L97.232 239.728C97.9306 240.427 98.6292 241.126 99.3278 241.824L99.4352 241.932L99.4352 242.039C99.3278 245.263 99.3815 248.434 99.5427 251.604L99.5965 251.981L99.1666 251.981L88.5265 252.625L88.3116 252.625L88.2041 252.518C87.4518 251.873 86.6995 251.121 86.0009 250.422C85.0336 251.497 84.2275 252.518 83.2602 253.593C84.335 254.56 85.4098 255.527 86.4308 256.441L88.3653 254.076L88.4728 253.969L88.634 253.915L99.0591 253.163L99.4352 253.109L99.489 253.485C99.5427 254.291 99.5964 255.097 99.6502 255.903L99.9189 258.322L100.188 260.74L100.564 263.158L100.617 263.319L100.51 263.427L98.6829 265.791C99.489 266.275 100.349 266.812 101.209 267.35L101.37 267.403L101.424 267.564C102.068 270.681 102.928 273.798 103.842 276.861L103.949 277.183L103.573 277.345L93.4166 280.515L93.2554 280.569L93.0942 280.515C92.2882 280.032 91.3746 279.548 90.5685 279.064C89.87 280.3 89.2789 281.536 88.634 282.826C89.87 283.525 91.1597 284.169 92.3419 284.814L93.7391 282.02L93.7928 281.859L93.954 281.805L103.949 278.581L104.325 278.419L104.433 278.742C104.702 279.548 104.916 280.3 105.239 281.053L106.099 283.31L106.958 285.567L107.926 287.824L107.98 287.985L107.926 288.146L106.744 290.833C107.603 291.155 108.624 291.424 109.538 291.693L109.699 291.746L109.753 291.908C111.15 294.809 112.655 297.604 114.321 300.344L114.535 300.667L114.213 300.882L105.131 306.417L104.97 306.47L104.809 306.417C103.842 306.202 102.928 305.933 101.961 305.611C101.585 306.954 101.316 308.297 101.047 309.748C102.498 310.125 103.842 310.501 105.239 310.823L105.884 307.814L105.937 307.653L106.045 307.545L114.912 302.01L115.234 301.795L115.449 302.118L116.739 304.16L118.136 306.202L119.533 308.244C120.017 308.942 120.5 309.533 121.038 310.178L121.145 310.286L121.091 310.447L120.662 313.349C121.629 313.456 122.542 313.51 123.563 313.564L123.725 313.618L123.832 313.725C124.907 314.907 125.874 316.197 127.003 317.325L130.281 320.818C130.388 320.926 130.442 320.98 130.549 321.087L130.281 321.356L122.757 328.879L122.65 328.986L122.435 328.986L119.479 328.825C119.479 330.115 119.479 331.512 119.533 332.856L118.62 333.877ZM110.559 330.437C111.204 331.19 111.956 331.942 112.601 332.694L113.622 332.748C113.622 331.243 113.622 329.846 113.568 328.395L112.762 328.342L110.559 330.437ZM119.211 318.884C117.813 318.776 116.416 318.669 115.073 318.508C114.643 323.129 114.321 327.965 114.428 332.802C115.879 332.856 117.276 332.963 118.727 333.017C118.673 330.599 118.727 328.18 118.727 325.816L118.781 324.043L118.888 322.323C119.049 321.195 119.103 320.066 119.211 318.884ZM120.447 323.237L122.704 321.087C122.059 320.442 121.521 319.69 120.93 318.991L120.017 318.938C119.909 320.335 119.802 321.732 119.694 323.129C119.963 323.183 120.178 323.183 120.447 323.237ZM122.381 328.18L129.582 321.087L126.465 317.755C125.444 316.627 124.477 315.445 123.456 314.316C121.36 314.262 119.372 313.994 117.276 313.832C115.234 313.618 113.031 313.349 110.989 312.919C110.774 314.316 110.505 315.66 110.398 317.057C112.279 317.325 114.052 317.594 115.825 317.755C117.545 317.97 119.479 318.078 121.199 318.185L121.36 318.239L121.468 318.346C122.166 319.152 122.811 320.012 123.563 320.765L123.832 321.033L123.563 321.302L120.93 323.828L120.823 323.935L120.608 323.935L119.694 323.881C119.641 325.225 119.641 326.622 119.587 327.965L122.381 328.18ZM115.288 311.952L113.676 309.587L111.204 311.307L111.043 312.22C112.44 312.435 113.729 312.65 115.127 312.865L115.288 311.952ZM120.447 310.554C119.963 309.963 119.479 309.372 119.049 308.727L117.706 306.847L116.363 304.966C115.933 304.321 115.557 303.622 115.127 302.977L106.744 308.244C105.991 311.468 105.508 314.639 105.024 318.024L104.97 318.185L104.863 318.293L101.907 320.388L101.585 320.603L101.316 320.227L99.2203 317.164L99.1128 317.057L99.1665 316.895C99.2203 316.412 99.3278 315.982 99.3815 315.498C98.0381 315.122 96.6409 314.8 95.2437 314.37L94.7063 317.594C95.19 318.4 95.7273 319.152 96.3185 319.959L97.9306 322.323C99.0053 323.935 100.134 325.386 101.316 326.891L109.108 320.818C109.269 319.152 109.484 317.54 109.645 315.874C109.914 314.209 110.183 312.65 110.451 310.984L110.505 310.823L110.613 310.716L113.568 308.727L113.891 308.512L114.106 308.835L116.04 311.629L116.148 311.737L116.094 311.898L115.879 312.865C117.222 313.026 118.566 313.188 119.909 313.241L120.447 310.554ZM101.746 319.475L104.272 317.702L104.433 316.681C103.036 316.358 101.585 316.089 100.188 315.767L100.026 317.003L101.746 319.475ZM94.1152 308.62L93.954 308.566L93.9003 308.405L92.1269 305.127L91.9657 304.751L92.2881 304.536L95.4587 302.763L95.6199 302.709L95.7811 302.763C96.1035 302.87 96.3185 302.977 96.6409 303.085C97.0171 301.742 97.4469 300.344 97.8768 299.055L95.19 297.98L86.0546 302.279L88.5265 307.33L91.3209 312.274C93.5241 312.973 95.7811 313.618 97.9306 314.262C99.0591 314.531 100.134 314.853 101.209 315.068L104.487 315.767C104.702 314.37 104.916 312.973 105.131 311.683C103.304 311.253 101.477 310.823 99.6502 310.286C98.7366 310.017 97.7694 309.802 96.8558 309.533L94.1152 308.62ZM92.9867 305.127L94.4914 307.814L95.3512 308.136C95.7273 306.685 96.0498 305.288 96.3722 303.891L95.6199 303.676L92.9867 305.127ZM104.164 295.992C102.874 295.562 101.477 295.132 100.134 294.648C99.3815 296.798 98.6292 299.055 97.9306 301.365C97.232 303.676 96.6409 305.987 96.1572 308.405L98.1993 309.05L100.295 309.641C100.725 307.276 101.37 304.912 102.015 302.655C102.337 301.473 102.659 300.398 103.036 299.27C103.412 298.141 103.788 297.013 104.164 295.992ZM104.272 300.398L106.958 298.893C106.475 298.087 106.099 297.281 105.723 296.475L104.97 296.26C104.54 297.55 104.003 298.947 103.68 300.237L104.272 300.398ZM104.916 305.664L113.622 300.506C112.064 297.872 110.613 295.239 109.323 292.445C108.356 292.122 107.335 291.854 106.367 291.531L103.412 290.51L100.456 289.382L99.0053 288.791L97.5544 288.2C96.9633 289.436 96.4797 290.672 95.996 292.015C97.6619 292.714 99.3815 293.358 101.047 294.057C102.767 294.702 104.487 295.239 106.152 295.723L106.314 295.777L106.367 295.938L107.066 297.389L107.818 298.786L108.033 299.108L107.711 299.323L104.594 301.15L104.433 301.204L104.272 301.15L103.466 300.882C103.089 302.225 102.767 303.515 102.391 304.858C103.143 305.181 104.003 305.503 104.916 305.664ZM102.068 288.307C101.638 287.447 101.37 286.534 100.994 285.62L98.1993 286.695L97.8231 287.501C99.1128 288.038 100.295 288.576 101.638 289.059L102.068 288.307ZM107.281 288.146L106.314 285.996L105.508 283.793C104.916 282.342 104.379 280.945 103.949 279.44L94.5451 282.611L93.4166 284.814C93.0942 285.567 92.7718 286.319 92.4494 287.071C91.8045 288.576 91.1059 290.134 90.5148 291.693L90.4611 291.854L90.2999 291.908L86.9144 293.251L86.5382 293.412L86.377 293.036L85.0336 289.543L84.9798 289.382L85.0336 289.221L85.5172 287.985C84.335 287.34 83.099 286.641 81.8631 285.943L80.5734 288.952C81.1645 290.725 81.8631 292.499 82.5617 294.272C82.8841 295.132 83.2602 296.045 83.6364 296.851L84.7649 299.485L93.8465 295.454C94.4377 293.896 95.0288 292.337 95.5661 290.833C96.211 289.328 96.8558 287.823 97.5007 286.319L97.5544 286.158L97.7156 286.104L101.047 284.814L101.424 284.653L101.585 285.029C102.015 286.104 102.337 287.179 102.821 288.2L102.874 288.361L102.821 288.522L102.391 289.382C103.627 289.866 104.916 290.295 106.099 290.725L107.281 288.146ZM86.9681 292.23L89.8162 291.101L90.1924 290.188C88.9027 289.543 87.613 288.898 86.3233 288.253L85.8934 289.328L86.9681 292.23ZM82.2392 279.978L82.078 279.924L82.0243 279.763L81.057 276.216L80.9495 275.786L81.3794 275.679L84.9261 274.712L85.0873 274.658L85.1948 274.765C85.4635 274.926 85.7322 275.088 86.0009 275.249C86.6995 274.013 87.4518 272.831 88.1504 271.595L85.8397 269.929L75.9519 271.971C76.3818 273.798 76.758 275.679 77.1879 277.506L78.6388 282.933C82.6154 285.405 86.4845 287.555 90.5685 289.489C91.1059 288.2 91.6433 286.91 92.2344 285.674C90.5685 284.868 88.9027 283.954 87.2906 282.987L84.7649 281.536L82.2392 279.978ZM81.9705 276.27L82.7766 279.225L83.5827 279.709C84.2813 278.366 84.9261 277.076 85.6247 275.84L84.9798 275.41L81.9705 276.27ZM95.0288 270.09C93.8465 269.338 92.6643 268.585 91.4821 267.833C90.1924 269.768 88.9564 271.756 87.7205 273.852C86.4845 275.948 85.356 278.043 84.2275 280.247C85.4635 281.053 86.6994 281.751 88.0429 282.45C89.0639 280.247 90.1924 278.151 91.3746 276.109C91.9657 275.088 92.5568 274.067 93.1479 273.046C93.7928 272.078 94.3839 271.057 95.0288 270.09ZM94.0615 274.389L97.0171 273.583L96.6946 272.293L96.4259 270.95L95.7811 270.52C95.0288 271.702 94.2764 272.884 93.5241 274.067L94.0615 274.389ZM93.4166 279.763L103.089 276.861C102.23 273.959 101.424 271.004 100.779 267.994C99.9189 267.457 99.0053 266.973 98.0918 266.382L95.5124 264.663C93.7928 263.48 91.9657 262.298 90.3536 261.008C89.4938 262.083 88.6877 263.212 87.9354 264.286C89.4401 265.361 90.891 266.382 92.3419 267.403C93.8465 268.371 95.4049 269.392 96.9096 270.251L97.0708 270.305L97.1245 270.466L97.5007 272.025L97.8769 273.583L97.9843 273.905L97.5544 274.013L94.0615 275.034L93.9003 275.088L93.7391 275.034L92.9867 274.604C92.3419 275.786 91.5896 276.969 90.9985 278.204C91.8583 278.849 92.6106 279.279 93.4166 279.763ZM94.8138 262.137C94.6526 261.223 94.5451 260.256 94.4377 259.289L91.4821 259.665L90.9447 260.31C92.0195 261.17 93.1479 261.976 94.2764 262.782L94.8138 262.137ZM99.9726 263.212L99.5965 260.901L99.3278 258.59C99.1666 257.032 98.9516 255.527 98.8441 253.915L88.9564 254.667L87.398 256.548C86.8607 257.193 86.4308 257.838 85.8934 258.483C84.8724 259.826 83.9051 261.116 82.9378 262.513L82.8303 262.621L82.6691 262.674L79.0687 263.158L78.6926 263.212L78.6388 262.728L78.1552 259.02L78.1552 258.805L78.2627 258.698L79.015 257.623C77.994 256.709 77.0267 255.742 75.9519 254.775L73.9637 257.408C74.1249 259.289 74.3936 261.17 74.6085 262.997L74.8235 264.394L75.0384 265.791L75.4683 268.585L85.2485 266.866C86.2158 265.469 87.1293 264.125 88.0429 262.782C89.0102 261.492 90.0312 260.149 90.9985 258.859L91.1059 258.752L91.2671 258.698L94.8138 258.268L95.19 258.214L95.2437 258.59C95.4049 259.719 95.4587 260.847 95.7274 261.976L95.7811 262.137L95.6736 262.244L95.0288 262.997C96.1035 263.749 97.232 264.448 98.3067 265.2L99.9726 263.212ZM79.2299 262.352L82.293 261.976L82.8841 261.17C81.7556 260.256 80.6808 259.289 79.5524 258.375L78.8538 259.289L79.2299 262.352ZM77.5641 249.186L77.4566 249.079L77.4566 248.864C77.4029 247.628 77.3491 246.392 77.4029 245.156L77.4029 244.726L77.8328 244.726L81.4869 244.619L81.7019 244.619L81.8093 244.726L82.4542 245.478C83.4215 244.511 84.4425 243.49 85.4098 242.523L83.5289 240.32L73.4263 239.89L73.2651 245.532L73.4263 251.175C76.7043 254.453 79.9285 257.569 83.4215 260.417C84.2813 259.235 85.1411 258.16 85.9471 257.032C84.4962 255.796 83.1528 254.56 81.7019 253.217C81.0033 252.518 80.2509 251.873 79.6061 251.228L77.5641 249.186ZM78.2089 245.64L78.2627 248.703L78.9613 249.401C79.9285 248.326 80.8958 247.144 81.8631 246.177L81.272 245.586L78.2089 245.64ZM92.3956 242.738C91.4283 241.77 90.5148 240.749 89.4938 239.728C87.8279 241.287 86.1083 242.899 84.4425 244.672C82.7229 246.392 81.1645 248.165 79.5524 249.992L81.057 251.497L82.6154 252.948C84.12 251.121 85.7859 249.347 87.3443 247.574C88.2041 246.714 88.9564 245.854 89.7625 245.048C90.676 244.35 91.4821 243.544 92.3956 242.738ZM90.4073 246.768L93.5241 246.661C93.4704 245.747 93.5241 244.833 93.5241 243.974L92.933 243.383C91.912 244.296 90.891 245.317 89.9237 246.284L90.4073 246.768ZM88.5265 251.766L98.6292 251.228C98.468 248.165 98.4142 245.102 98.5217 242.093C97.7694 241.341 97.0708 240.642 96.3185 239.89L94.2227 237.579C92.8255 236.074 91.3746 234.408 90.0849 232.796L88.4728 234.086L86.9144 235.429C88.0966 236.827 89.2789 238.224 90.5148 239.567C91.7508 240.911 93.0405 242.2 94.2764 243.436L94.3839 243.544L94.3302 243.705L94.3302 245.317L94.3302 246.929L94.3839 247.305L93.954 247.305L90.3536 247.467L90.1387 247.467L90.0312 247.359L89.3863 246.714C88.419 247.682 87.5055 248.703 86.592 249.724C87.1831 250.53 87.8279 251.175 88.5265 251.766ZM94.0615 234.946C94.169 233.979 94.2764 233.011 94.4377 232.098L91.4821 231.722L90.7835 232.313C91.6433 233.387 92.5031 234.462 93.4166 235.483L94.0615 234.946ZM98.7904 237.31C98.8441 236.504 98.8441 235.752 98.9516 235L99.2203 232.689L99.489 230.378C99.5965 229.626 99.7577 228.82 99.8652 228.067L90.0849 226.455C87.398 228.39 84.9261 230.432 82.293 232.635L82.1855 232.743L82.0243 232.689L78.4239 232.313L78.0477 232.259L78.1014 231.775L78.5851 228.067L78.5851 227.852L78.6926 227.745L79.7673 226.885C79.015 225.703 78.2089 224.574 77.4566 223.392L74.9847 225.434C74.4473 229.196 73.9637 232.904 73.8024 236.612L83.6902 237.256C84.9261 236.128 86.1621 235 87.398 233.979C88.6877 232.904 89.9237 231.883 91.2134 230.915L91.3209 230.808L91.4821 230.862L95.0288 231.292L95.4049 231.345L95.3512 231.722C95.19 232.85 95.0288 233.979 94.975 235.107L94.9213 235.268L94.8138 235.376L93.954 236.021C94.8676 237.042 95.7811 238.063 96.6946 238.976L98.7904 237.31ZM78.9075 231.507L81.9706 231.883L82.7229 231.238C81.8631 230.056 81.057 228.927 80.1972 227.745L79.3374 228.497L78.9075 231.507ZM80.4122 218.395L80.3584 218.233L80.4122 218.072C80.6808 216.836 80.8958 215.654 81.2182 214.472L81.3257 214.042L81.7019 214.096L85.3023 214.902L85.4635 214.955L85.5172 215.117L86.0009 216.03C87.1831 215.278 88.3653 214.526 89.5475 213.881L88.2578 211.301L78.5851 208.507L77.1342 213.934L75.8982 219.469C77.0267 221.458 78.3164 223.392 79.5524 225.273C80.7883 227.154 82.078 228.981 83.4215 230.754C84.5499 229.841 85.6247 228.981 86.6995 228.121C84.4962 224.951 82.293 221.673 80.4122 218.395ZM81.8631 215.009L81.2182 218.018L81.7556 218.878C82.9378 218.018 84.1738 217.212 85.356 216.353L84.9261 215.6L81.8631 215.009ZM96.3185 215.6C95.6736 214.418 94.9213 213.236 94.2227 212C92.1807 213.075 90.1924 214.311 88.0966 215.547C86.0546 216.836 84.12 218.126 82.1318 219.577L83.2065 221.404C83.5827 221.995 84.0126 222.64 84.3887 223.231C86.2695 221.78 88.3116 220.49 90.2999 219.147C91.2671 218.502 92.2344 217.857 93.2554 217.266C94.2227 216.729 95.2437 216.138 96.3185 215.6ZM93.4704 218.986L96.4797 219.631C96.6409 218.717 96.9096 217.911 97.1783 216.997L96.7484 216.245C95.5661 216.89 94.2764 217.642 93.148 218.341L93.4704 218.986ZM90.4073 223.446L100.349 225.327C100.671 223.822 100.994 222.317 101.316 220.813L101.585 219.684L101.907 218.61L102.498 216.406C101.961 215.547 101.37 214.633 100.886 213.719L99.3815 211.033C98.4142 209.206 97.3395 207.271 96.5334 205.39L94.6526 206.304L92.8255 207.271C93.6316 208.937 94.4914 210.549 95.2975 212.107C96.1573 213.719 97.0708 215.278 98.0381 216.782L98.0918 216.944L98.0381 217.105L97.6619 218.663C97.5544 219.201 97.447 219.738 97.2857 220.222L97.232 220.598L96.8558 220.544L93.2554 219.846L93.0942 219.792L92.9867 219.684L92.5031 218.878C91.3746 219.577 90.1924 220.329 89.0639 221.135C89.4401 221.834 89.87 222.694 90.4073 223.446ZM99.8114 208.453C100.134 207.593 100.51 206.68 100.779 205.766L97.9843 204.692L97.1245 205.121C97.7156 206.357 98.3068 207.593 98.8979 208.829L99.8114 208.453ZM103.842 211.839C104.057 211.086 104.325 210.388 104.54 209.635L105.4 207.486L106.206 205.283C106.475 204.584 106.797 203.832 107.12 203.187L97.9843 199.318C94.8676 200.5 92.0195 201.951 88.9027 203.456L88.7415 203.509L88.5803 203.456L85.1411 202.273L84.7649 202.112L84.9261 201.736L86.2695 198.243L86.3233 198.082L86.4845 198.028C86.9144 197.813 87.3443 197.598 87.7742 197.383C87.2906 196.04 86.8069 194.696 86.377 193.299L83.3677 194.696C81.9168 198.189 80.6271 201.736 79.4986 205.336L88.9564 208.346C90.4073 207.54 91.912 206.787 93.3092 206.035C94.8138 205.283 96.3185 204.638 97.7694 203.939L97.9306 203.885L98.0918 203.939L101.424 205.229L101.8 205.39L101.638 205.766C101.209 206.841 100.832 207.862 100.456 208.991L100.403 209.152L100.241 209.206L99.274 209.635C99.9189 210.818 100.564 212 101.209 213.182L103.842 211.839ZM85.8396 201.575L88.7415 202.65L89.7625 202.166C89.2251 200.876 88.634 199.533 88.0966 198.136L86.9681 198.727L85.8396 201.575ZM90.5148 189.054L90.4611 188.893L90.5148 188.732C91.0522 187.657 91.5896 186.475 92.1269 185.4L92.3419 184.97L92.7181 185.131L95.9961 186.797L96.1573 186.851L96.211 187.012L96.4797 187.925C97.8231 187.442 99.1665 187.066 100.51 186.689L99.8651 183.895L91.1597 178.844L88.3653 183.788L85.8934 188.839C86.5382 191.096 87.3443 193.299 88.0429 195.395C88.7952 197.544 89.6013 199.64 90.5148 201.736C91.7508 201.145 93.0405 200.5 94.2764 199.909C93.5779 198.136 92.933 196.416 92.3419 194.535C92.0732 193.622 91.697 192.708 91.4284 191.795L90.5148 189.054ZM92.7718 186.152L91.4283 188.893L91.697 189.806C93.0942 189.269 94.4377 188.785 95.7811 188.302L95.5661 187.549L92.7718 186.152ZM106.69 190.182C106.314 188.839 105.937 187.496 105.561 186.152C103.358 186.743 101.047 187.442 98.7367 188.14C96.4259 188.839 94.2227 189.753 91.912 190.666L92.5568 192.708L93.2554 194.804C95.4049 193.837 97.7694 193.084 99.9726 192.278C101.101 191.902 102.176 191.472 103.304 191.203C104.433 190.827 105.561 190.451 106.69 190.182ZM103.089 192.708L105.83 194.052C106.206 193.245 106.69 192.439 107.12 191.687L106.905 190.935C105.561 191.311 104.164 191.633 102.874 192.063L103.089 192.708ZM99.0591 196.308L108.248 200.554C109.592 197.813 110.935 195.073 112.44 192.386C112.117 191.418 111.795 190.451 111.526 189.43L110.72 186.475L109.968 183.465L109.592 181.907L109.323 180.348C107.98 180.617 106.636 180.886 105.346 181.208C105.723 182.982 106.099 184.755 106.582 186.528C107.066 188.302 107.603 190.021 108.087 191.687L108.141 191.848L108.087 192.009L107.335 193.407C107.066 193.89 106.905 194.374 106.636 194.858L106.475 195.234L106.099 195.073L102.821 193.514L102.66 193.46L102.606 193.299L102.337 192.493C101.047 192.923 99.7577 193.353 98.4142 193.837C98.5217 194.589 98.7367 195.449 99.0591 196.308ZM111.795 184.11C112.279 183.304 112.87 182.498 113.407 181.746L110.935 180.026L110.075 180.134C110.344 181.477 110.613 182.82 110.989 184.164L111.795 184.11ZM114.912 188.302L116.148 186.313L117.491 184.433C118.405 183.197 119.211 181.853 120.232 180.617L112.332 174.652L109.86 174.975L107.442 175.458C105.83 175.781 104.218 176.103 102.552 176.479L102.391 176.533L102.283 176.426L99.274 174.384L98.9516 174.169L99.2203 173.792L101.316 170.729L101.424 170.622L101.585 170.568L102.928 170.3C102.767 168.956 102.659 167.559 102.552 166.162L99.3278 166.807C98.253 168.311 97.1783 169.923 96.1035 171.428C95.5661 172.18 95.0825 172.986 94.5989 173.792L93.0942 176.157L101.531 181.369C103.143 180.94 104.755 180.51 106.367 180.187C107.98 179.865 109.592 179.542 111.204 179.22L111.365 179.166L111.472 179.274L114.374 181.316L114.697 181.531L114.482 181.853C113.837 182.82 113.138 183.734 112.547 184.647L112.493 184.809L112.332 184.862L111.365 184.97C111.687 186.26 112.01 187.549 112.386 188.785L114.912 188.302ZM99.9726 173.9L102.552 175.62L103.519 175.405C103.304 174.007 103.089 172.61 102.874 171.106L101.746 171.374L99.9726 173.9ZM107.442 162.991L107.442 162.776L107.55 162.669L109.968 159.821L110.29 159.498L110.559 159.767L113.353 162.131L113.461 162.239L113.461 162.454L113.461 163.421C114.804 163.26 116.255 163.206 117.652 163.099L117.706 160.251L110.451 153.211L108.517 155.253C107.872 155.898 107.227 156.65 106.636 157.349L102.982 161.648C103.251 166.323 103.627 170.783 104.379 175.19C105.776 174.867 107.12 174.599 108.463 174.33C108.194 172.449 107.98 170.622 107.872 168.687C107.657 166.86 107.442 164.926 107.442 162.991ZM110.29 160.788L108.302 163.099L108.356 164.012C109.807 163.851 111.258 163.69 112.708 163.529L112.708 162.776L110.29 160.788ZM122.865 167.989C122.811 166.645 122.757 165.194 122.757 163.797C120.447 163.851 118.028 163.905 115.61 164.066C113.246 164.281 110.828 164.55 108.409 164.818C108.463 166.269 108.624 167.72 108.732 169.225C109.914 169.01 111.096 168.902 112.279 168.687C113.461 168.58 114.697 168.419 115.825 168.365C118.19 168.15 120.5 167.989 122.865 167.989ZM118.727 169.655L121.091 171.589C121.683 170.891 122.274 170.192 122.919 169.547L122.865 168.741C121.468 168.741 120.07 168.849 118.673 168.956L118.727 169.655Z" fill="#16877C"/>
<path fill-rule="evenodd" clip-rule="evenodd" d="M284.782 313.543C320.011 272.774 318.272 211.1 279.567 172.394C240.861 133.689 179.187 131.95 138.418 167.179L117.16 145.922C169.688 99.0027 250.355 100.756 300.78 151.181C351.205 201.607 352.958 282.273 306.039 334.801L284.782 313.543Z" fill="#189387"/>
</svg>
