<svg width="323" height="323" viewBox="0 0 323 323" fill="none" xmlns="http://www.w3.org/2000/svg">
<path fill-rule="evenodd" clip-rule="evenodd" d="M267.778 201.569C303.007 160.8 301.268 99.1255 262.563 60.4198C223.857 21.7141 162.183 19.9757 121.414 55.2046L100.156 33.947C152.684 -12.9719 233.351 -11.2187 283.776 39.2066C334.201 89.6319 335.954 170.298 289.035 222.826L267.778 201.569Z" fill="#C12DD9"/>
<path d="M276.96 221.42C276.907 223.408 276.745 225.504 276.584 227.492L276.584 227.707L276.477 227.815C276.047 228.244 275.617 228.674 275.133 229.051L273.736 230.233L273.414 230.555L273.145 230.286L270.673 227.6L270.566 227.492L270.619 227.331L270.727 226.364C269.383 226.31 267.933 226.256 266.643 226.149C266.535 227.116 266.428 228.083 266.267 228.997L272.608 236.842C275.456 234.424 278.411 232.006 281.044 229.373C281.152 228.083 281.259 226.901 281.313 225.665L282.119 226.471L281.904 229.48L281.904 229.695L281.743 229.857C278.841 232.651 275.832 235.23 272.715 237.81L272.339 238.078L272.124 237.756L265.461 229.373L265.353 229.265L265.407 229.104C265.568 228.083 265.729 227.17 265.837 226.095C264.44 225.987 263.042 225.88 261.645 225.665C261.484 227.008 261.269 228.406 261.108 229.749L264.225 230.072L264.386 230.125L264.493 230.233L270.942 238.508L271.157 238.831L270.781 239.099L268.362 240.98C267.556 241.571 266.75 242.162 265.89 242.7C264.225 243.828 262.612 245.011 260.893 246.085L260.732 246.139L260.57 246.085L257.239 245.548C256.863 246.676 256.594 247.805 256.164 248.88L256.11 249.041L255.949 249.095C254.229 250.062 252.456 251.083 250.683 251.996L245.309 254.683L244.879 254.898L244.718 254.522L240.258 244.796L240.204 244.634L240.258 244.473C240.634 243.56 241.064 242.592 241.386 241.625C240.096 241.195 238.753 240.712 237.41 240.228C236.926 241.464 236.442 242.7 235.905 243.99L238.968 245.118L239.129 245.172L239.183 245.333L243.482 254.898L243.643 255.274L243.213 255.489C241.386 256.242 239.559 257.101 237.678 257.8L234.884 258.875L233.487 259.412L232.036 259.896L231.875 259.95L231.713 259.896L228.489 258.499C227.898 259.52 227.253 260.594 226.608 261.562L226.501 261.669L226.34 261.723C224.405 262.26 222.471 262.798 220.536 263.228L214.625 264.517L213.98 264.732L213.926 264.356L211.938 253.877L211.884 253.716L211.992 253.609C212.583 252.802 213.174 251.996 213.765 251.19C212.583 250.438 211.401 249.686 210.272 248.88C209.52 249.954 208.714 251.083 207.854 252.158L210.541 253.985L210.648 254.092L210.702 254.253L212.529 264.571L212.583 264.947L212.099 265.001C210.165 265.323 208.176 265.699 206.134 265.914L203.179 266.291L201.728 266.452L200.223 266.559L200.008 266.559L199.901 266.452L197.16 264.356C196.3 265.216 195.441 266.076 194.635 266.882L194.527 266.989L194.312 266.989C192.324 267.043 190.336 267.097 188.293 267.097C186.305 267.043 184.263 267.043 182.329 266.935L181.845 266.882L181.845 266.452L182.382 255.812L182.382 255.597L182.49 255.489C183.296 254.898 184.048 254.146 184.801 253.501L183.403 251.996L182.006 250.384C180.985 251.298 179.91 252.158 178.889 253.071L181.039 255.436L181.146 255.543L181.093 255.704L180.394 266.183L180.394 266.613L179.91 266.559C177.922 266.398 175.88 266.291 173.892 266.022C171.904 265.753 169.915 265.592 167.927 265.216L167.766 265.162L167.658 265.055L165.509 262.368C164.542 263.013 163.52 263.604 162.499 264.195L162.338 264.249L162.177 264.195C160.243 263.765 158.254 263.389 156.32 262.851C154.385 262.314 152.397 261.83 150.516 261.239L150.086 261.132L150.194 260.702L153.31 250.492L153.364 250.331L153.525 250.277C154.439 249.901 155.352 249.417 156.266 248.933L155.245 247.16L154.278 245.333C153.095 245.978 151.859 246.569 150.57 247.214L152.074 250.008L152.128 250.169L152.074 250.331L148.958 260.326L148.796 260.702L148.367 260.594L145.518 259.681C144.551 259.358 143.638 258.982 142.67 258.66C140.79 257.961 138.909 257.263 137.082 256.403L136.92 256.349L136.867 256.188L135.416 253.017C134.287 253.394 133.159 253.77 131.977 254.092L131.815 254.146L131.654 254.092C129.881 253.179 128.054 252.319 126.28 251.405C124.561 250.438 122.734 249.471 121.068 248.45L120.692 248.181L120.907 247.859L126.388 238.723L126.442 238.562L126.603 238.508C127.57 238.293 128.591 238.025 129.558 237.81L128.967 235.821C128.806 235.123 128.591 234.478 128.43 233.779C127.14 234.102 125.797 234.371 124.453 234.639L125.206 237.756L125.259 237.917L125.206 238.078L119.724 246.999L119.509 247.321L119.133 247.053C115.694 245.011 112.416 242.7 109.192 240.335L109.031 240.174L108.977 240.013L108.332 236.574C107.15 236.681 105.914 236.735 104.678 236.789L104.463 236.789L104.302 236.627L99.7341 232.705C98.2831 231.361 96.7785 229.964 95.3813 228.567L95.0589 228.244L95.3276 227.976L102.797 220.399L102.905 220.291L103.12 220.291L106.183 220.345C106.129 218.894 106.075 217.551 106.075 216.153L105.968 216.153L105.968 215.294C108.278 215.347 110.589 215.186 112.792 215.132L112.953 215.079L113.061 215.186C113.437 215.562 113.813 215.939 114.243 216.261L115.479 217.282L115.748 217.551L115.479 217.819L113.168 220.667L113.061 220.775L112.9 220.829L112.04 220.936C112.147 222.333 112.255 223.73 112.362 225.128C113.276 225.074 114.243 225.074 115.157 224.913L121.498 217.067C119.133 215.132 116.823 213.144 114.673 210.995C113.437 211.048 112.201 211.102 110.965 211.156L111.019 210.35C112.309 210.35 113.598 210.242 114.834 210.189L114.996 210.135L115.103 210.242C116.285 211.317 117.414 212.446 118.65 213.467L120.477 215.079C121.122 215.616 121.659 216.153 122.304 216.583L122.626 216.798L122.411 217.121L115.802 225.45L115.694 225.558L115.533 225.611C114.566 225.719 113.545 225.772 112.524 225.826C112.631 227.223 112.9 228.567 113.061 229.91C114.458 229.803 115.909 229.642 117.252 229.48L116.823 226.364L116.769 226.202L116.876 226.095L123.325 217.819L123.54 217.497L123.862 217.712L125.85 219.593L127.893 220.99L129.935 222.387C130.633 222.871 131.332 223.247 131.977 223.677L132.084 223.784L132.138 223.945L132.675 226.847C133.589 226.579 134.502 226.31 135.47 225.987L135.631 225.934L135.792 225.987C137.189 226.74 138.586 227.6 140.037 228.298L144.336 230.448L144.712 230.609L144.551 230.985L140.091 240.712L140.037 240.873L139.876 240.926C138.909 241.249 137.995 241.518 137.082 241.786L137.78 243.775C138.049 244.473 138.318 245.064 138.586 245.763C139.983 245.225 141.327 244.742 142.67 244.258L141.542 241.518L141.488 241.356L141.542 241.195L145.787 231.576L145.948 231.2L146.324 231.361L148.581 232.328C149.334 232.651 150.086 232.866 150.838 233.188C152.343 233.726 153.848 234.371 155.406 234.854L155.567 234.908L155.621 235.069L156.857 237.702C157.663 237.219 158.523 236.789 159.383 236.251L159.49 236.144L159.651 236.198C161.21 236.574 162.768 237.057 164.327 237.434L169.002 238.455L169.378 238.508L169.324 238.884L167.336 249.363L167.282 249.524L167.175 249.632C166.315 250.169 165.509 250.653 164.649 251.19C165.401 252.373 166.207 253.501 167.067 254.576C168.303 253.77 169.432 252.964 170.668 252.158L168.841 249.686L168.733 249.578L168.787 249.417L170.614 239.099L170.668 238.723L171.044 238.777L173.462 239.153C174.268 239.314 175.074 239.368 175.88 239.422C177.492 239.637 179.104 239.852 180.77 239.905L180.931 239.959L181.039 240.067L182.92 242.377C183.618 241.679 184.317 241.088 184.962 240.335L185.069 240.228L185.177 240.228C186.789 240.228 188.401 240.335 189.959 240.282C191.518 240.228 193.13 240.228 194.742 240.12L195.118 240.067L195.118 240.497L195.709 251.19L195.709 251.405L195.602 251.513C194.957 252.265 194.205 252.91 193.506 253.609L195.064 255.059L196.623 256.403C197.59 255.328 198.557 254.253 199.525 253.179L197.214 251.19L197.106 251.083L197.053 250.922L196.354 240.443L196.354 240.013L196.73 239.959L199.148 239.798C199.955 239.744 200.761 239.583 201.567 239.529C203.179 239.314 204.845 239.153 206.403 238.884L206.564 238.831L206.672 238.938L208.982 240.712C209.466 239.905 210.003 239.046 210.487 238.24L210.541 238.078L210.702 238.025L213.066 237.487C213.873 237.326 214.679 237.165 215.431 236.95C216.936 236.52 218.494 236.144 220.052 235.66L220.375 235.553L220.482 235.983L223.599 246.193L223.653 246.354L223.599 246.515C223.115 247.429 222.632 248.235 222.148 249.041C223.384 249.739 224.62 250.331 225.91 250.975C226.608 249.739 227.253 248.45 227.898 247.268L225.104 245.87L224.942 245.817L224.889 245.655L221.718 235.714L221.557 235.338L221.879 235.23L224.244 234.478C225.05 234.209 225.802 233.887 226.501 233.618C228.059 233.027 229.564 232.49 231.015 231.791L231.176 231.737L231.337 231.791L234.024 232.973C234.293 232.06 234.669 231.146 234.884 230.179L234.938 230.018L235.099 229.964C236.496 229.212 238.001 228.567 239.398 227.815L243.589 225.45L243.912 225.235L244.127 225.558L249.501 234.693L249.554 234.854L249.501 235.015C249.286 235.983 248.963 236.842 248.641 237.81L250.683 238.347L252.725 238.777C253.101 237.326 253.477 235.983 253.8 234.585L250.79 233.941L250.629 233.887L250.575 233.726L245.094 224.805L244.879 224.483L245.202 224.268C246.599 223.408 247.996 222.548 249.286 221.581C250.575 220.614 251.972 219.754 253.208 218.733L253.316 218.625L253.477 218.679L256.325 219.163C256.433 218.196 256.486 217.282 256.54 216.261L256.594 216.1L256.701 215.992L260.356 212.876L263.848 209.598L264.117 209.329L264.386 209.598L271.855 217.175L271.963 217.282L271.963 217.497L271.802 220.453C273.091 220.453 274.488 220.453 275.778 220.453L276.853 221.527L276.96 221.42ZM273.467 229.427L274.65 228.459L275.778 227.438L275.832 226.417C274.327 226.417 272.93 226.417 271.479 226.364L271.425 227.17L273.467 229.427ZM261.968 220.721L261.806 222.817C261.753 223.516 261.645 224.16 261.591 224.859L263.365 225.02L265.138 225.181C266.32 225.289 267.449 225.343 268.685 225.396C269.921 225.45 271.103 225.558 272.285 225.558C273.467 225.558 274.65 225.558 275.886 225.504C275.939 224.053 276.047 222.656 276.101 221.205C273.682 221.259 271.264 221.205 268.954 221.151C266.643 221.097 264.278 220.882 261.968 220.721ZM266.267 219.539L264.117 217.282L262.021 219.055L261.968 219.969C263.365 220.076 264.762 220.184 266.159 220.291L266.267 219.539ZM271.318 217.604L264.225 210.404C263.096 211.425 262.021 212.499 260.893 213.52L257.4 216.476C257.292 218.518 257.078 220.56 256.809 222.656C256.701 223.73 256.54 224.752 256.433 225.826L255.895 228.943C257.239 229.212 258.636 229.427 260.033 229.642C260.57 225.987 261.054 222.387 261.215 218.787L261.269 218.625L261.377 218.518L263.795 216.422L264.063 216.154L264.332 216.422L266.858 219.055L266.965 219.163L266.965 219.378C266.965 219.7 266.965 220.023 266.911 220.291C268.255 220.345 269.598 220.399 270.996 220.399L271.318 217.604ZM254.982 224.59L252.617 226.202L254.337 228.674L255.25 228.836C255.519 227.492 255.734 226.095 255.895 224.752L254.982 224.59ZM253.638 219.485C252.456 220.453 251.113 221.259 249.877 222.172C249.232 222.602 248.641 223.086 247.942 223.462L245.954 224.698L251.22 233.188C252.832 233.511 254.444 233.941 256.057 234.156C257.722 234.424 259.281 234.693 261 234.908L261.162 234.962L261.269 235.069L263.365 238.025L263.58 238.347L263.204 238.616L260.141 240.712L260.033 240.819L259.872 240.765L258.475 240.55C258.099 241.894 257.722 243.345 257.346 244.688L260.57 245.226C262.183 244.258 263.741 243.13 265.299 242.001L267.61 240.335L269.867 238.616L263.848 230.77C260.57 230.501 257.292 229.91 254.122 229.319L253.961 229.265L253.853 229.158L251.865 226.202L251.65 225.88L251.972 225.665L254.767 223.73L254.874 223.623L255.035 223.677C255.358 223.784 255.68 223.784 256.003 223.892C256.164 222.548 256.325 221.205 256.433 219.808L253.638 219.485ZM262.451 238.186L260.678 235.66L259.657 235.499C259.334 236.896 259.066 238.347 258.743 239.744C259.173 239.852 259.549 239.905 259.979 239.905L262.451 238.186ZM251.543 245.763L251.489 245.924L251.328 245.978C250.199 246.569 249.178 247.268 248.05 247.751L247.673 247.912L247.459 247.59L245.739 244.366L245.685 244.204L245.739 244.043L246.061 243.183C244.718 242.807 243.321 242.377 242.031 241.948L240.956 244.634L245.255 253.77L250.307 251.298C252.026 250.438 253.638 249.471 255.25 248.611C256.003 246.461 256.648 244.204 257.239 242.001L258.099 238.777C258.367 237.649 258.582 236.574 258.851 235.445C257.454 235.23 256.11 235.069 254.713 234.747C253.8 238.347 252.832 242.109 251.543 245.763ZM248.05 246.891C248.963 246.408 249.877 245.924 250.736 245.387L251.059 244.527C249.662 244.204 248.211 243.828 246.814 243.506L246.545 244.204L248.05 246.891ZM238.968 235.66C238.538 236.95 238.108 238.347 237.571 239.637C241.977 241.249 246.599 242.646 251.328 243.721C251.758 242.324 252.241 240.98 252.617 239.529C247.835 238.508 243.321 237.219 238.968 235.66ZM243.374 235.553L241.87 232.866C241.117 233.296 240.258 233.726 239.452 234.102L239.237 234.854C240.526 235.284 241.87 235.768 243.213 236.251L243.374 235.553ZM248.694 234.962L243.536 226.256L239.559 228.513C238.216 229.212 236.818 229.857 235.475 230.555C234.884 232.543 234.185 234.424 233.487 236.413L232.358 239.368C231.982 240.389 231.552 241.249 231.176 242.27C232.412 242.861 233.702 243.398 234.938 243.882C235.636 242.216 236.281 240.497 236.98 238.831C237.625 237.219 238.162 235.392 238.699 233.779L238.753 233.618L238.914 233.564C239.828 233.081 240.903 232.651 241.762 232.114L242.085 231.899L242.3 232.221L244.073 235.392L244.127 235.553L244.073 235.714L243.804 236.52C245.148 236.896 246.384 237.272 247.781 237.595L248.694 234.962ZM231.284 237.756L228.597 238.723L229.671 241.518L230.477 241.894C231.015 240.604 231.606 239.368 232.09 238.132L231.284 237.756ZM231.176 232.49C229.779 233.135 228.274 233.672 226.877 234.209L224.674 235.015L222.471 235.714L225.534 245.118C228.435 246.623 231.445 247.912 234.562 249.202L234.723 249.256L234.776 249.417L236.12 252.802L236.281 253.179L235.905 253.34L232.412 254.683L232.251 254.737L232.09 254.683C231.713 254.522 231.23 254.361 230.8 254.146C230.155 255.328 229.456 256.564 228.758 257.8L231.767 259.09C232.681 258.821 233.54 258.499 234.4 258.176L237.033 257.155C238.807 256.564 240.526 255.704 242.246 254.952L238.323 245.87C236.765 245.279 235.206 244.688 233.648 244.097C232.143 243.452 230.639 242.807 229.188 242.109L229.027 242.162L228.973 242.001L227.791 238.67L227.629 238.293L228.006 238.132L231.176 236.896L231.337 236.842L231.498 236.896L232.358 237.326C232.842 236.09 233.272 234.8 233.702 233.618L231.176 232.49ZM235.153 252.802L234.024 249.954L233.111 249.578C232.466 250.868 231.821 252.158 231.176 253.447L232.251 253.877L235.153 252.802ZM222.847 257.478L222.739 257.585L222.578 257.639C221.396 257.961 220.16 258.337 218.978 258.552L218.548 258.66L218.494 258.284L217.527 254.737L217.473 254.576L217.58 254.468L218.118 253.716C216.882 253.017 215.7 252.265 214.517 251.513L212.852 253.823L214.786 263.711L220.321 262.475C222.148 262.045 223.975 261.508 225.749 261.024C226.393 260.057 226.931 259.09 227.576 258.123L229.241 255.167C229.779 254.2 230.316 253.232 230.854 252.265L232.358 249.256C231.069 248.718 229.779 248.181 228.543 247.59C226.77 250.868 224.942 254.307 222.847 257.478ZM219.193 257.693C220.214 257.424 221.181 257.209 222.148 256.887L222.632 256.08C221.342 255.436 219.999 254.737 218.763 254.038C218.655 254.253 218.44 254.468 218.333 254.683L219.193 257.693ZM213.066 244.581C212.314 245.763 211.562 246.945 210.756 248.074C214.625 250.653 218.763 253.179 223.115 255.382C223.921 254.146 224.62 252.91 225.372 251.62C224.298 251.083 223.223 250.546 222.148 250.008C221.073 249.471 220.052 248.88 219.031 248.289C216.936 247.16 215.001 245.87 213.066 244.581ZM217.312 245.602L216.506 242.646C215.646 242.861 214.732 243.022 213.873 243.237L213.443 243.882C214.625 244.634 215.753 245.44 216.989 246.139L217.312 245.602ZM222.686 246.247L219.784 236.574L215.377 237.756C213.926 238.132 212.422 238.455 210.917 238.777C209.896 240.55 208.767 242.216 207.639 243.99L205.812 246.569C205.167 247.429 204.576 248.235 203.931 249.095C205.006 249.954 206.134 250.76 207.263 251.567C208.338 250.062 209.466 248.611 210.433 247.106C211.454 245.655 212.422 244.043 213.335 242.592L213.389 242.431L213.55 242.377C214.625 242.162 215.7 241.948 216.667 241.625L216.989 241.518L217.097 241.948L218.118 245.44L218.172 245.602L218.118 245.763L217.688 246.515C218.87 247.16 220.052 247.912 221.235 248.557C221.772 247.805 222.202 247.053 222.686 246.247ZM205.113 244.796L202.265 245.172L202.641 248.127L203.286 248.665C204.146 247.59 204.952 246.461 205.758 245.333L205.113 244.796ZM206.188 239.637C204.683 239.959 203.125 240.12 201.567 240.282L199.256 240.55L196.945 240.712L197.698 250.599C198.934 251.62 200.223 252.802 201.513 253.77C202.803 254.737 204.146 255.758 205.49 256.779L205.597 256.887L205.651 257.048L206.134 260.648L206.188 261.024L205.704 261.078L201.997 261.562L201.782 261.562L201.674 261.454C201.298 261.186 200.922 260.917 200.599 260.594C199.686 261.615 198.719 262.583 197.751 263.657L200.384 265.646L201.782 265.538L203.179 265.323L205.973 265.001C207.854 264.84 209.735 264.464 211.562 264.141L209.896 254.415C208.499 253.447 207.155 252.534 205.812 251.62C204.468 250.599 203.179 249.632 201.943 248.611L201.835 248.503L201.782 248.342L201.352 244.796L201.298 244.419L201.674 244.366L205.06 243.99L205.221 243.936L205.328 244.043L206.081 244.688C206.833 243.613 207.585 242.431 208.284 241.41L206.188 239.637ZM205.221 260.379L204.845 257.316L204.039 256.725C203.125 257.854 202.158 258.929 201.244 260.057L202.158 260.756L205.221 260.379ZM192.055 261.938L191.948 262.045L191.733 262.045C190.497 262.099 189.261 262.153 188.025 262.099L187.595 262.099L187.595 261.669L187.487 258.015L187.487 257.8L187.595 257.693L188.347 257.048C187.38 256.08 186.359 255.059 185.445 254.146L183.242 256.027L182.759 266.076L188.401 266.237C190.282 266.291 192.163 266.129 194.043 266.183L195.333 265.001L196.569 263.765L198.934 261.293C199.74 260.487 200.492 259.627 201.191 258.821L203.34 256.242C202.158 255.382 201.083 254.522 200.008 253.662C197.536 256.457 194.903 259.305 192.055 261.938ZM188.508 261.293C189.529 261.347 190.55 261.293 191.571 261.239L192.27 260.541C191.195 259.573 190.121 258.606 189.046 257.639L188.401 258.176L188.508 261.293ZM185.66 247.16C184.693 248.127 183.672 249.148 182.651 249.954C185.768 253.394 189.207 256.833 192.861 259.95C193.882 258.929 194.903 258.015 195.924 256.887C192.216 253.824 188.777 250.599 185.66 247.16ZM189.637 249.095L189.529 245.978C188.616 246.032 187.702 245.978 186.789 245.924L186.198 246.515C187.111 247.536 188.132 248.557 189.1 249.524L189.637 249.095ZM194.688 251.029L194.205 240.98L189.583 241.088C188.079 241.088 186.52 241.034 185.016 241.034C183.565 242.592 182.06 243.882 180.502 245.333L178.137 247.482C177.331 248.181 176.525 248.772 175.719 249.471C176.579 250.546 177.439 251.62 178.352 252.641C181.254 250.277 183.941 247.912 186.413 245.333L186.52 245.225L186.681 245.279C187.756 245.279 188.831 245.387 189.906 245.279L190.282 245.225L190.282 245.655L190.389 249.31L190.389 249.525L190.282 249.632L189.637 250.277C190.604 251.244 191.625 252.158 192.646 253.071L194.688 251.029ZM177.868 245.387L175.02 245.011L174.644 247.966L175.182 248.718C176.256 247.859 177.331 246.999 178.352 246.085C178.245 245.87 178.03 245.655 177.868 245.387ZM180.287 240.712C178.728 240.658 177.17 240.389 175.611 240.228C174.859 240.12 174.053 240.067 173.301 239.959L170.99 239.583L169.378 249.363C170.345 250.653 171.312 252.05 172.333 253.286C173.354 254.522 174.429 255.812 175.558 257.155L175.665 257.263L175.611 257.424L175.235 261.024L175.182 261.4L174.698 261.347L170.99 260.863L170.775 260.863L170.668 260.756C170.399 260.379 170.076 260.057 169.808 259.681C168.626 260.433 167.443 261.186 166.261 261.938L168.303 264.41C170.13 264.732 172.011 264.893 173.892 265.162C174.859 265.27 175.773 265.431 176.686 265.485L179.588 265.807L180.34 255.919C179.212 254.683 178.137 253.501 177.062 252.211C175.988 250.922 175.02 249.632 173.999 248.396L173.892 248.289L173.946 248.127L174.429 244.634L174.483 244.258L174.859 244.312L178.245 244.688L178.406 244.742L178.513 244.849L179.158 245.709C180.179 244.796 181.2 243.882 182.114 242.969L180.287 240.712ZM174.322 260.541L174.698 257.478L174.053 256.725C172.871 257.585 171.689 258.445 170.56 259.251C170.775 259.573 171.044 259.842 171.312 260.111L174.322 260.541ZM161.21 258.929L161.049 258.982L160.887 258.929C159.651 258.66 158.469 258.445 157.233 258.069L156.803 257.961L156.857 257.585L157.663 253.985L157.717 253.823L157.878 253.77L158.792 253.286C158.039 252.104 157.287 250.922 156.642 249.739L154.063 251.029L151.268 260.809L156.696 262.26C158.523 262.69 160.35 263.12 162.231 263.496C164.219 262.368 166.207 261.132 168.088 259.896L170.775 258.069C171.742 257.424 172.602 256.779 173.516 256.08C172.602 254.952 171.689 253.931 170.883 252.802C169.378 253.877 167.766 254.952 166.154 256.027C164.542 256.994 162.929 257.961 161.21 258.929ZM157.878 257.424C158.845 257.746 159.866 257.908 160.834 258.122L161.747 257.639C160.887 256.457 160.081 255.221 159.329 254.038L158.63 254.415L157.878 257.424ZM158.523 243.022C157.341 243.667 156.158 244.419 154.922 245.011C157.126 249.148 159.598 253.232 162.446 257.155C163.735 256.403 164.918 255.758 166.1 254.898C163.306 251.029 160.78 247.106 158.523 243.022ZM161.962 245.924L162.607 242.915C161.747 242.7 160.834 242.431 159.974 242.216L159.221 242.646C159.92 243.882 160.565 245.064 161.264 246.3L161.962 245.924ZM166.369 248.933L168.303 239.046L163.843 238.025C162.392 237.649 160.887 237.219 159.436 236.842L158.093 237.649L156.803 238.401C155.89 238.884 155.03 239.422 154.116 239.905C153.203 240.389 152.236 240.926 151.322 241.41C150.409 241.894 149.441 242.324 148.474 242.754C149.065 243.99 149.602 245.279 150.247 246.461C153.579 244.849 156.75 243.183 159.813 241.303L159.974 241.249L160.135 241.303C161.156 241.571 162.231 241.894 163.306 242.109L163.682 242.162L163.628 242.539L162.876 246.085L162.822 246.247L162.661 246.3L161.855 246.784C162.553 247.912 163.306 249.095 164.112 250.223L166.369 248.933ZM151.43 239.476L148.743 238.508L147.668 241.303L148.098 242.162C149.334 241.571 150.57 240.98 151.806 240.389C151.591 240.067 151.483 239.744 151.43 239.476ZM154.869 235.499C153.364 235.069 151.967 234.424 150.516 233.941C149.817 233.672 149.065 233.457 148.367 233.081L146.271 232.167L142.348 241.249C142.993 242.754 143.584 244.312 144.229 245.817C144.927 247.268 145.626 248.826 146.378 250.331L146.432 250.492L146.378 250.653L145.089 254.092L144.927 254.468L144.551 254.307L141.058 252.964L140.897 252.91L140.843 252.749C140.628 252.319 140.413 251.889 140.198 251.352C138.855 251.835 137.512 252.319 136.114 252.749L137.512 255.758C139.231 256.51 141.004 257.101 142.778 257.8C143.638 258.122 144.551 258.499 145.465 258.767L148.152 259.627L151.215 250.223C150.409 248.772 149.602 247.321 148.958 245.817C148.205 244.312 147.56 242.807 146.862 241.356L146.808 241.195L146.862 241.034L148.152 237.702L148.313 237.326L148.689 237.487L151.859 238.723L152.021 238.777L152.074 238.938L152.504 239.905C153.687 239.261 154.869 238.616 156.051 237.971L154.869 235.499ZM144.497 253.394L145.572 250.492L145.089 249.471C143.799 250.008 142.455 250.599 141.058 251.137C141.273 251.567 141.434 251.943 141.596 252.319L144.497 253.394ZM131.977 248.611L131.815 248.665L131.654 248.611C130.526 248.02 129.397 247.536 128.322 246.891L127.893 246.676L128.054 246.3L129.72 243.022L129.773 242.861L129.935 242.807L130.848 242.539C130.364 241.195 129.988 239.852 129.612 238.508L126.818 239.153L121.659 247.859L126.603 250.653C128.269 251.567 129.988 252.319 131.654 253.232C133.857 252.641 136.114 251.889 138.264 251.137L141.434 250.008C142.509 249.578 143.584 249.148 144.551 248.718C143.96 247.482 143.369 246.247 142.778 244.903C141.004 245.602 139.231 246.193 137.404 246.838L136.061 247.321L134.663 247.751L131.977 248.611ZM129.128 246.408C130.042 246.891 130.956 247.375 131.923 247.805L132.836 247.536C132.299 246.139 131.815 244.796 131.332 243.452L130.579 243.667L129.128 246.408ZM133.159 232.49C131.815 232.866 130.418 233.296 129.128 233.618C130.311 238.132 131.708 242.754 133.535 247.268C134.932 246.838 136.276 246.461 137.726 245.978C135.899 241.464 134.341 237.004 133.159 232.49ZM135.738 236.144L137.082 233.403C136.276 233.027 135.47 232.543 134.717 232.114L133.965 232.328C134.341 233.672 134.717 235.015 135.093 236.359L135.738 236.144ZM139.285 240.12L143.584 230.985L139.5 228.943C138.156 228.244 136.813 227.438 135.47 226.74C133.481 227.438 131.547 227.868 129.505 228.406L126.388 229.158C125.367 229.427 124.346 229.588 123.271 229.803C123.54 231.146 123.755 232.543 124.077 233.833C125.85 233.457 127.678 233.027 129.397 232.597C131.117 232.167 132.89 231.684 134.61 231.146L134.771 231.093L134.932 231.146C135.899 231.684 136.759 232.221 137.78 232.705L138.156 232.866L137.995 233.242L136.437 236.52L136.383 236.681L136.222 236.735L135.416 237.004C135.846 238.293 136.276 239.583 136.759 240.926L139.285 240.12ZM127.086 227.385L124.722 225.772L123.002 228.244L123.11 229.104C124.453 228.836 125.797 228.567 127.14 228.298L127.086 227.385ZM131.385 224.268C130.042 223.462 128.806 222.548 127.516 221.688L125.636 220.345C125.044 219.861 124.4 219.431 123.808 218.948L117.79 226.794C118.166 230.071 118.865 233.242 119.563 236.627L119.617 236.789L119.509 236.896L117.467 239.905L117.252 240.228L116.876 239.959L113.813 237.863L113.706 237.756L113.652 237.595C113.545 237.165 113.437 236.735 113.383 236.251C112.04 236.413 110.643 236.52 109.246 236.627L109.89 239.852C110.589 240.443 111.395 240.926 112.201 241.518L114.566 243.13C116.07 244.204 117.736 245.225 119.295 246.246L124.507 237.81C124.077 236.198 123.701 234.639 123.325 232.973C123.002 231.361 122.68 229.749 122.465 228.137L122.411 227.976L122.519 227.868L124.561 224.966L124.776 224.644L125.098 224.859L127.893 226.794L128.054 226.847L128.107 227.008L128.215 227.976C129.505 227.653 130.794 227.331 132.084 227.008L131.385 224.268ZM116.876 239.099L118.65 236.574L118.435 235.606C117.038 235.821 115.587 235.983 114.136 236.251L114.404 237.38L116.876 239.099ZM106.075 231.63L105.86 231.63L105.753 231.522L102.905 229.104C102.797 228.997 102.69 228.889 102.582 228.782L102.851 228.513L105.215 225.719L105.323 225.611L105.538 225.611C105.86 225.611 106.183 225.611 106.505 225.611C106.398 224.214 106.344 222.763 106.29 221.42L103.442 221.366L96.4023 228.621C97.7995 229.91 99.0892 231.2 100.486 232.49L104.785 236.144C107.096 236.09 109.353 235.875 111.664 235.714C112.792 235.66 113.867 235.553 114.996 235.392L118.327 234.962C118.059 233.618 117.736 232.221 117.575 230.878C115.748 231.093 113.867 231.254 111.932 231.469C110.965 231.576 110.052 231.63 109.031 231.684L106.075 231.63ZM103.818 228.728L106.129 230.716L107.042 230.663C106.881 229.212 106.72 227.761 106.559 226.31L105.806 226.31L103.818 228.728ZM111.126 216.261C109.783 216.315 108.332 216.368 106.935 216.368C106.989 218.679 107.042 221.097 107.204 223.516C107.365 225.934 107.633 228.244 107.956 230.716L110.105 230.609L112.309 230.448C111.932 228.137 111.718 225.665 111.503 223.301C111.395 222.118 111.288 220.936 111.234 219.808C111.18 218.572 111.18 217.389 111.126 216.261ZM112.739 220.345L114.673 217.981L113.652 217.067L112.685 216.1L111.879 216.153C111.879 217.551 111.932 219.002 111.986 220.345L112.739 220.345Z" fill="#C12DD9"/>
<path d="M101.62 221.902C99.5775 221.902 97.5892 221.741 95.4935 221.58L95.2785 221.58L95.171 221.472C94.3112 220.612 93.4514 219.645 92.6454 218.731L92.3229 218.409L92.5916 218.14L95.2785 215.668L95.386 215.561L95.5472 215.615L96.5145 215.722C96.5682 214.379 96.6219 212.928 96.6757 211.584L93.8276 211.208L86.0357 217.603L89.6898 221.902C90.9258 223.353 92.2155 224.643 93.5589 225.986C94.7949 226.04 96.0308 226.201 97.2668 226.255L96.4607 227.061C95.4397 227.007 94.4187 226.953 93.3977 226.9L93.1827 226.9L93.0215 226.738C91.6781 225.287 90.2272 223.836 88.9375 222.332C87.6478 220.827 86.3043 219.269 85.0146 217.764L84.7459 217.388L85.0684 217.173L93.3977 210.456L93.5052 210.348L93.6664 210.402C94.6874 210.563 95.6547 210.671 96.6757 210.832C96.7832 209.435 96.8906 208.038 97.0518 206.694C95.7084 206.533 94.365 206.372 92.9678 206.157L92.6454 209.274L92.5916 209.435L92.4842 209.542L84.2623 216.045L83.9399 216.26L83.6712 215.883C81.1455 212.713 78.8348 209.435 76.6316 206.049L76.5778 205.888L76.6316 205.727L77.169 202.395C76.0405 202.019 74.912 201.75 73.7835 201.374L73.6223 201.32L73.5685 201.159L70.6667 195.893L67.9798 190.519L67.7649 190.089L68.1411 189.928L77.8138 185.414L77.975 185.36L78.1362 185.414L80.9843 186.543C81.468 185.199 81.7904 183.91 82.3278 182.62C81.0918 182.136 79.8558 181.653 78.5661 181.115L77.4377 184.178L77.3839 184.339L77.2227 184.393L67.8186 188.423L67.4425 188.585L67.2275 188.155L66.0453 185.36C65.6691 184.447 65.2392 183.48 64.9168 182.62C64.2182 180.739 63.4659 178.912 62.8211 176.977L62.7673 176.816L62.821 176.655L64.2182 173.431C63.1972 172.84 62.1225 172.195 61.1014 171.604L60.9402 171.55L60.8865 171.389L59.2744 165.585C58.8445 163.65 58.4146 161.716 57.9847 159.674L57.8772 159.244L58.2534 159.19L68.6784 157.148L68.8396 157.094L68.9471 157.202L71.5803 158.868C72.3326 157.686 73.0312 156.557 73.8372 155.321C72.7625 154.569 71.634 153.763 70.5593 153.01L68.7322 155.697L68.6247 155.805L68.4635 155.859L58.1459 157.793L57.7697 157.847L57.716 157.363L57.2323 154.408C57.0711 153.387 56.8562 152.419 56.7487 151.452C56.48 149.464 56.2113 147.475 56.0501 145.487L56.0501 145.272L56.1576 145.165L58.2534 142.424C57.3936 141.564 56.5338 140.705 55.674 139.845L55.5665 139.737L55.5665 139.522L55.459 133.504L55.5665 127.485L55.5665 127.055L55.9964 127.055L66.6364 127.593L66.8514 127.593L66.9588 127.7L68.9471 130.011C69.9681 128.99 70.8817 128.076 72.0102 127.163C71.0966 126.142 70.2368 125.067 69.3233 124.046L66.9588 126.195L66.8514 126.303L66.6902 126.249L56.2113 125.658L55.7814 125.658L55.8352 125.174C56.0501 121.198 56.5338 117.168 57.1249 113.245L57.1786 113.083L57.2861 112.976L59.973 110.826C59.3281 109.859 58.737 108.838 58.1459 107.817L58.0921 107.656L58.1459 107.495L59.4356 101.584L61.0477 95.78C61.1014 95.6188 61.1552 95.4576 61.1552 95.3501L61.5851 95.4576L71.7952 98.4669L71.9564 98.5206L72.0102 98.6818L73.4073 101.369C74.6433 100.67 75.7718 99.9715 77.0615 99.3267C76.4166 98.1444 75.8255 96.9085 75.2344 95.6725L72.4401 97.1772L72.2788 97.2309L72.1176 97.1772L62.1225 94.0604L61.7463 93.8992L61.8538 93.4693C63.036 89.6002 64.4332 85.8385 65.9378 82.1844L65.9916 82.0232L66.1528 81.9694L69.2696 80.4648C68.8934 79.3363 68.5172 78.2078 68.1948 77.0256L68.1411 76.8644L68.1948 76.7032L70.8817 71.3294L73.7835 66.0631L73.9985 65.6332L74.3209 65.8482L83.51 71.2757L83.6712 71.3294L83.725 71.4906L84.4235 74.4462C85.767 74.07 87.0567 73.6401 88.4539 73.3177C88.1314 72.028 87.8627 70.6846 87.5403 69.3949L84.3698 70.2009L84.2086 70.2547L84.0474 70.2009L75.0732 64.7734L74.7508 64.5585L75.0195 64.1823L76.6316 61.6029C77.169 60.7431 77.7063 59.8833 78.2975 59.0772C79.4259 57.4114 80.5544 55.7455 81.7367 54.1334L81.8979 53.9722L82.0591 53.9185L85.4983 53.2736C85.3908 52.0914 85.3371 50.8554 85.2296 49.6732L85.2296 49.4582L85.3908 49.297C86.6805 47.7924 88.0239 46.234 89.3136 44.7293C89.9585 43.977 90.6571 43.2784 91.3019 42.5261L93.344 40.3766L93.6664 40.0542L93.9351 40.3229L101.566 47.7386L101.673 47.8461L101.673 48.0611L101.62 51.1241C103.07 51.0704 104.414 51.0166 105.811 51.0166L105.811 50.9092L106.617 50.8554C106.671 53.1661 106.725 55.4769 106.832 57.7338L106.886 57.895L106.778 58.0025C106.026 58.7548 105.381 59.6146 104.683 60.4207L104.414 60.6894L104.091 60.4744L101.243 58.1637L101.136 58.0563L101.082 57.895L100.975 57.0352C99.5775 57.1427 98.1803 57.2502 96.7832 57.3577C96.8369 58.2712 96.9444 59.2385 96.9981 60.152L104.898 66.4393L105.596 65.5258L106.348 64.666L107.853 62.9464C108.337 62.3552 108.82 61.7641 109.358 61.2268L110.916 59.5609C110.862 58.3249 110.755 57.1427 110.755 55.853L111.507 55.853C111.561 57.1964 111.615 58.4324 111.722 59.7221L111.776 59.8833L111.668 59.9908L110.003 61.7641C109.465 62.409 108.982 63.0001 108.39 63.5912C107.369 64.8272 106.295 66.0094 105.327 67.2991L105.112 67.6215L104.79 67.4066L96.407 60.8506L96.2995 60.7431L96.2458 60.5819C96.1383 59.6146 96.0846 58.5936 96.0308 57.5726C94.6874 57.7338 93.2902 57.9488 91.8931 58.1637C92.0005 59.5609 92.2155 60.9581 92.323 62.3552L95.4397 61.9253L95.6009 61.8716L95.7084 61.9791L104.038 68.3739L104.36 68.5888L104.145 68.9112C103.662 69.6098 103.124 70.1472 102.641 70.8458L101.243 72.8878L99.8462 74.9298L98.5565 76.9718L98.449 77.0793L98.2878 77.1331L95.386 77.6704C95.6547 78.584 95.9771 79.5513 96.2458 80.4648L96.2995 80.626L96.2458 80.7872C94.6337 83.5816 93.1828 86.4297 91.8931 89.3315L91.7318 89.7076L91.3557 89.5464L81.6292 85.1937L81.468 85.14L81.4142 84.9787C81.0381 84.0652 80.7694 83.1517 80.447 82.1844C79.1035 82.668 77.8138 83.2054 76.5241 83.7428C77.0615 85.14 77.5451 86.4834 78.0288 87.8268L80.8231 86.6446L80.9843 86.5909L81.1456 86.6446L90.7646 90.7824L91.1407 90.9436L90.9795 91.3198L90.0122 93.5767L89.1524 95.8337L88.2926 98.0907C88.024 98.8968 87.809 99.6491 87.5403 100.348L87.4866 100.509L87.3254 100.563L84.6385 101.852C85.1221 102.658 85.6595 103.518 86.1431 104.324L86.2506 104.432L86.1969 104.593C85.2833 107.656 84.6385 110.773 84.0474 113.943L83.9936 114.319L83.6175 114.266L73.1387 112.385L72.9774 112.331L72.87 112.224C72.3326 111.364 71.7415 110.558 71.2578 109.644C70.0756 110.397 69.0009 111.256 67.8724 112.062C68.6784 113.298 69.4845 114.427 70.3443 115.609L72.8162 113.782L72.9237 113.675L73.0849 113.728L83.4563 115.502L83.8324 115.555L83.7787 115.932L83.4025 118.35L83.1338 120.768L82.8651 123.186L82.7039 125.604L82.6502 125.766L82.5427 125.873L80.232 127.754C80.9306 128.452 81.6292 129.151 82.3278 129.85L82.4352 129.957L82.4352 130.065C82.3278 133.289 82.3815 136.459 82.5427 139.63L82.5965 140.006L82.1666 140.006L71.5265 140.651L71.3116 140.651L71.2041 140.543C70.4518 139.898 69.6995 139.146 69.0009 138.448C68.0336 139.522 67.2275 140.543 66.2602 141.618C67.335 142.585 68.4098 143.553 69.4308 144.466L71.3653 142.102L71.4728 141.994L71.634 141.941L82.0591 141.188L82.4352 141.134L82.489 141.511C82.5427 142.317 82.5964 143.123 82.6502 143.929L82.9189 146.347L83.1876 148.765L83.5637 151.183L83.6175 151.345L83.51 151.452L81.6829 153.817C82.489 154.3 83.3488 154.838 84.2086 155.375L84.3698 155.429L84.4235 155.59C85.0684 158.707 85.9282 161.823 86.8417 164.886L86.9492 165.209L86.573 165.37L76.4166 168.541L76.2554 168.594L76.0942 168.541C75.2882 168.057 74.3746 167.573 73.5685 167.09C72.87 168.326 72.2789 169.562 71.634 170.851C72.87 171.55 74.1597 172.195 75.3419 172.84L76.7391 170.045L76.7928 169.884L76.954 169.83L86.9492 166.606L87.3254 166.445L87.4328 166.767C87.7015 167.573 87.9165 168.326 88.2389 169.078L89.0987 171.335L89.9585 173.592L90.9258 175.849L90.9795 176.01L90.9258 176.171L89.7435 178.858C90.6033 179.181 91.6244 179.449 92.5379 179.718L92.6991 179.772L92.7528 179.933C94.15 182.835 95.6547 185.629 97.3205 188.37L97.5355 188.692L97.2131 188.907L88.1314 194.442L87.9702 194.496L87.809 194.442C86.8417 194.227 85.9282 193.958 84.9609 193.636C84.5847 194.979 84.3161 196.323 84.0474 197.774C85.4983 198.15 86.8417 198.526 88.2389 198.849L88.8837 195.839L88.9375 195.678L89.0449 195.571L97.9116 190.036L98.2341 189.821L98.449 190.143L99.7387 192.185L101.136 194.227L102.533 196.269C103.017 196.968 103.5 197.559 104.038 198.204L104.145 198.311L104.091 198.472L103.662 201.374C104.629 201.482 105.542 201.535 106.563 201.589L106.725 201.643L106.832 201.75C107.907 202.933 108.874 204.222 110.003 205.351L113.281 208.844C113.388 208.951 113.442 209.005 113.549 209.112L113.281 209.381L105.757 216.904L105.65 217.012L105.435 217.012L102.479 216.851C102.479 218.14 102.479 219.537 102.533 220.881L101.62 221.902ZM93.5589 218.463C94.2038 219.215 94.9561 219.967 95.6009 220.72L96.6219 220.773C96.6219 219.269 96.6219 217.872 96.5682 216.421L95.7621 216.367L93.5589 218.463ZM102.211 206.909C100.813 206.802 99.4163 206.694 98.0729 206.533C97.643 211.154 97.3205 215.991 97.428 220.827C98.8789 220.881 100.276 220.988 101.727 221.042C101.673 218.624 101.727 216.206 101.727 213.841L101.781 212.068L101.888 210.348C102.049 209.22 102.103 208.091 102.211 206.909ZM103.447 211.262L105.704 209.112C105.059 208.468 104.521 207.715 103.93 207.017L103.017 206.963C102.909 208.36 102.802 209.757 102.694 211.154C102.963 211.208 103.178 211.208 103.447 211.262ZM105.381 216.206L112.582 209.112L109.465 205.781C108.444 204.652 107.477 203.47 106.456 202.341C104.36 202.288 102.372 202.019 100.276 201.858C98.2341 201.643 96.0308 201.374 93.9888 200.944C93.7739 202.341 93.5052 203.685 93.3977 205.082C95.2785 205.351 97.0518 205.619 98.8252 205.781C100.545 205.996 102.479 206.103 104.199 206.211L104.36 206.264L104.468 206.372C105.166 207.178 105.811 208.038 106.563 208.79L106.832 209.059L106.563 209.327L103.93 211.853L103.823 211.961L103.608 211.961L102.694 211.907C102.641 213.25 102.641 214.647 102.587 215.991L105.381 216.206ZM98.2878 199.977L96.6757 197.613L94.2038 199.332L94.0425 200.246C95.4397 200.461 96.7294 200.676 98.1266 200.891L98.2878 199.977ZM103.447 198.58C102.963 197.989 102.479 197.398 102.049 196.753L100.706 194.872L99.3626 192.991C98.9327 192.346 98.5565 191.648 98.1266 191.003L89.7435 196.269C88.9912 199.493 88.5076 202.664 88.0239 206.049L87.9702 206.211L87.8627 206.318L84.9072 208.414L84.5847 208.629L84.3161 208.253L82.2203 205.19L82.1128 205.082L82.1665 204.921C82.2203 204.437 82.3278 204.007 82.3815 203.524C81.0381 203.148 79.6409 202.825 78.2437 202.395L77.7063 205.619C78.19 206.426 78.7273 207.178 79.3185 207.984L80.9306 210.348C82.0053 211.961 83.1338 213.411 84.3161 214.916L92.108 208.844C92.2692 207.178 92.4842 205.566 92.6454 203.9C92.9141 202.234 93.1827 200.676 93.4514 199.01L93.5052 198.849L93.6126 198.741L96.5682 196.753L96.8906 196.538L97.1056 196.86L99.0401 199.655L99.1476 199.762L99.0939 199.923L98.8789 200.891C100.222 201.052 101.566 201.213 102.909 201.267L103.447 198.58ZM84.746 207.5L87.2716 205.727L87.4328 204.706C86.0356 204.384 84.5847 204.115 83.1876 203.792L83.0264 205.028L84.746 207.5ZM77.1152 196.645L76.954 196.592L76.9003 196.43L75.1269 193.152L74.9657 192.776L75.2881 192.561L78.4587 190.788L78.6199 190.734L78.7811 190.788C79.1035 190.895 79.3185 191.003 79.6409 191.11C80.0171 189.767 80.4469 188.37 80.8768 187.08L78.19 186.005L69.0546 190.304L71.5265 195.356L74.3209 200.299C76.5241 200.998 78.7811 201.643 80.9306 202.288C82.0591 202.556 83.1338 202.879 84.2086 203.094L87.4866 203.792C87.7015 202.395 87.9165 200.998 88.1314 199.708C86.3043 199.278 84.4773 198.849 82.6502 198.311C81.7366 198.042 80.7694 197.828 79.8558 197.559L77.1152 196.645ZM75.9867 193.152L77.4914 195.839L78.3512 196.162C78.7273 194.711 79.0498 193.314 79.3722 191.916L78.6199 191.701L75.9867 193.152ZM87.1641 184.017C85.8744 183.587 84.4773 183.157 83.1338 182.674C82.3815 184.823 81.6292 187.08 80.9306 189.391C80.232 191.701 79.6409 194.012 79.1572 196.43L81.1993 197.075L83.295 197.666C83.7249 195.302 84.3698 192.937 85.0146 190.68C85.3371 189.498 85.6595 188.423 86.0356 187.295C86.4118 186.166 86.788 185.038 87.1641 184.017ZM87.2716 188.423L89.9585 186.919C89.4749 186.113 89.0987 185.307 88.7225 184.501L87.9702 184.286C87.5403 185.575 87.0029 186.973 86.6805 188.262L87.2716 188.423ZM87.9165 193.69L96.6219 188.531C95.0636 185.898 93.6126 183.265 92.3229 180.47C91.3557 180.148 90.3347 179.879 89.3674 179.557L86.4118 178.536L83.4563 177.407L82.0053 176.816L80.5544 176.225C79.9633 177.461 79.4797 178.697 78.996 180.04C80.6619 180.739 82.3815 181.384 84.0474 182.082C85.767 182.727 87.4866 183.265 89.1524 183.748L89.3136 183.802L89.3674 183.963L90.066 185.414L90.8183 186.811L91.0332 187.134L90.7108 187.349L87.594 189.176L87.4328 189.23L87.2716 189.176L86.4656 188.907C86.0894 190.251 85.767 191.54 85.3908 192.884C86.1431 193.206 87.0029 193.529 87.9165 193.69ZM85.0684 176.333C84.6385 175.473 84.3698 174.559 83.9936 173.646L81.1993 174.72L80.8231 175.526C82.1128 176.064 83.295 176.601 84.6385 177.085L85.0684 176.333ZM90.2809 176.171L89.3136 174.022L88.5076 171.819C87.9165 170.368 87.3791 168.97 86.9492 167.466L77.5451 170.636L76.4166 172.84C76.0942 173.592 75.7718 174.344 75.4494 175.097C74.8045 176.601 74.1059 178.16 73.5148 179.718L73.4611 179.879L73.2999 179.933L69.9144 181.276L69.5382 181.438L69.377 181.061L68.0336 177.568L67.9798 177.407L68.0336 177.246L68.5172 176.01C67.335 175.365 66.099 174.667 64.8631 173.968L63.5734 176.977C64.1645 178.751 64.8631 180.524 65.5617 182.297C65.8841 183.157 66.2602 184.071 66.6364 184.877L67.7649 187.51L76.8465 183.48C77.4377 181.921 78.0288 180.363 78.5661 178.858C79.211 177.354 79.8558 175.849 80.5007 174.344L80.5544 174.183L80.7156 174.129L84.0474 172.84L84.4235 172.678L84.5847 173.055C85.0146 174.129 85.3371 175.204 85.8207 176.225L85.8744 176.386L85.8207 176.547L85.3908 177.407C86.6268 177.891 87.9165 178.321 89.0987 178.751L90.2809 176.171ZM69.9681 180.255L72.8162 179.127L73.1924 178.213C71.9027 177.568 70.613 176.924 69.3233 176.279L68.8934 177.354L69.9681 180.255ZM65.2392 168.003L65.078 167.949L65.0243 167.788L64.057 164.242L63.9495 163.812L64.3794 163.704L67.9261 162.737L68.0873 162.683L68.1948 162.791C68.4635 162.952 68.7322 163.113 69.0009 163.274C69.6995 162.038 70.4518 160.856 71.1504 159.62L68.8397 157.954L58.9519 159.996C59.3818 161.823 59.758 163.704 60.1879 165.531L61.6388 170.959C65.6154 173.431 69.4845 175.58 73.5685 177.515C74.1059 176.225 74.6433 174.935 75.2344 173.699C73.5685 172.893 71.9027 171.98 70.2906 171.013L67.7649 169.562L65.2392 168.003ZM64.9705 164.295L65.7766 167.251L66.5827 167.735C67.2813 166.391 67.9261 165.101 68.6247 163.865L67.9798 163.436L64.9705 164.295ZM78.0288 158.116C76.8465 157.363 75.6643 156.611 74.4821 155.859C73.1924 157.793 71.9564 159.781 70.7205 161.877C69.4845 163.973 68.356 166.069 67.2275 168.272C68.4635 169.078 69.6994 169.777 71.0429 170.475C72.0639 168.272 73.1924 166.176 74.3746 164.134C74.9657 163.113 75.5568 162.092 76.1479 161.071C76.7928 160.104 77.3839 159.083 78.0288 158.116ZM77.0615 162.415L80.0171 161.608L79.6946 160.319L79.4259 158.975L78.7811 158.545C78.0288 159.728 77.2764 160.91 76.5241 162.092L77.0615 162.415ZM76.4166 167.788L86.0894 164.886C85.2296 161.985 84.4235 159.029 83.7787 156.02C82.9189 155.482 82.0053 154.999 81.0918 154.408L78.5124 152.688C76.7928 151.506 74.9657 150.324 73.3536 149.034C72.4938 150.109 71.6877 151.237 70.9354 152.312C72.4401 153.387 73.891 154.408 75.3419 155.429C76.8465 156.396 78.4049 157.417 79.9096 158.277L80.0708 158.33L80.1245 158.492L80.5007 160.05L80.8769 161.608L80.9843 161.931L80.5544 162.038L77.0615 163.059L76.9003 163.113L76.7391 163.059L75.9867 162.629C75.3419 163.812 74.5896 164.994 73.9985 166.23C74.8583 166.875 75.6106 167.305 76.4166 167.788ZM77.8138 150.162C77.6526 149.249 77.5451 148.282 77.4377 147.314L74.4821 147.69L73.9447 148.335C75.0195 149.195 76.1479 150.001 77.2764 150.807L77.8138 150.162ZM82.9726 151.237L82.5965 148.926L82.3278 146.616C82.1666 145.057 81.9516 143.553 81.8441 141.941L71.9564 142.693L70.398 144.574C69.8607 145.219 69.4308 145.863 68.8934 146.508C67.8724 147.852 66.9051 149.141 65.9378 150.539L65.8303 150.646L65.6691 150.7L62.0687 151.183L61.6926 151.237L61.6388 150.753L61.1552 147.046L61.1552 146.831L61.2627 146.723L62.015 145.648C60.994 144.735 60.0267 143.768 58.9519 142.8L56.9637 145.433C57.1249 147.314 57.3936 149.195 57.6085 151.022L57.8235 152.419L58.0384 153.817L58.4683 156.611L68.2485 154.891C69.2158 153.494 70.1293 152.151 71.0429 150.807C72.0102 149.518 73.0312 148.174 73.9985 146.884L74.1059 146.777L74.2671 146.723L77.8138 146.293L78.19 146.24L78.2437 146.616C78.4049 147.744 78.4587 148.873 78.7274 150.001L78.7811 150.162L78.6736 150.27L78.0288 151.022C79.1035 151.774 80.232 152.473 81.3067 153.225L82.9726 151.237ZM62.2299 150.377L65.293 150.001L65.8841 149.195C64.7556 148.282 63.6808 147.314 62.5524 146.401L61.8538 147.314L62.2299 150.377ZM60.5641 137.212L60.4566 137.104L60.4566 136.889C60.4029 135.653 60.3491 134.417 60.4029 133.181L60.4029 132.751L60.8328 132.751L64.4869 132.644L64.7019 132.644L64.8093 132.751L65.4542 133.504C66.4215 132.536 67.4425 131.515 68.4098 130.548L66.5289 128.345L56.4263 127.915L56.2651 133.557L56.4263 139.2C59.7043 142.478 62.9285 145.595 66.4215 148.443C67.2813 147.261 68.1411 146.186 68.9471 145.057C67.4962 143.821 66.1528 142.585 64.7019 141.242C64.0033 140.543 63.2509 139.898 62.6061 139.254L60.5641 137.212ZM61.2089 133.665L61.2627 136.728L61.9613 137.427C62.9285 136.352 63.8958 135.17 64.8631 134.202L64.272 133.611L61.2089 133.665ZM75.3956 130.763C74.4283 129.796 73.5148 128.775 72.4938 127.754C70.8279 129.312 69.1083 130.924 67.4425 132.698C65.7229 134.417 64.1645 136.191 62.5524 138.018L64.057 139.522L65.6154 140.973C67.12 139.146 68.7859 137.373 70.3443 135.599C71.2041 134.74 71.9564 133.88 72.7625 133.074C73.676 132.375 74.4821 131.569 75.3956 130.763ZM73.4073 134.793L76.5241 134.686C76.4704 133.772 76.5241 132.859 76.5241 131.999L75.933 131.408C74.912 132.321 73.891 133.343 72.9237 134.31L73.4073 134.793ZM71.5265 139.791L81.6292 139.254C81.468 136.191 81.4142 133.128 81.5217 130.118C80.7694 129.366 80.0708 128.667 79.3185 127.915L77.2227 125.604C75.8255 124.1 74.3746 122.434 73.0849 120.822L71.4728 122.111L69.9144 123.455C71.0966 124.852 72.2789 126.249 73.5148 127.593C74.7508 128.936 76.0405 130.226 77.2764 131.462L77.3839 131.569L77.3302 131.73L77.3302 133.343L77.3302 134.955L77.3839 135.331L76.954 135.331L73.3536 135.492L73.1387 135.492L73.0312 135.385L72.3863 134.74C71.419 135.707 70.5055 136.728 69.592 137.749C70.1831 138.555 70.8279 139.2 71.5265 139.791ZM77.0615 122.971C77.169 122.004 77.2764 121.037 77.4377 120.123L74.4821 119.747L73.7835 120.338C74.6433 121.413 75.5031 122.488 76.4166 123.509L77.0615 122.971ZM81.7904 125.336C81.8441 124.53 81.8441 123.777 81.9516 123.025L82.2203 120.714L82.489 118.403C82.5965 117.651 82.7577 116.845 82.8652 116.093L73.0849 114.481C70.398 116.415 67.9261 118.457 65.293 120.66L65.1855 120.768L65.0243 120.714L61.4239 120.338L61.0477 120.284L61.1014 119.801L61.5851 116.093L61.5851 115.878L61.6926 115.77L62.7673 114.911C62.015 113.728 61.2089 112.6 60.4566 111.418L57.9847 113.46C57.4473 117.221 56.9637 120.929 56.8024 124.637L66.6902 125.282C67.9261 124.153 69.1621 123.025 70.398 122.004C71.6877 120.929 72.9237 119.908 74.2134 118.941L74.3209 118.833L74.4821 118.887L78.0288 119.317L78.4049 119.371L78.3512 119.747C78.19 120.875 78.0288 122.004 77.975 123.132L77.9213 123.294L77.8138 123.401L76.954 124.046C77.8676 125.067 78.7811 126.088 79.6946 127.001L81.7904 125.336ZM61.9075 119.532L64.9706 119.908L65.7229 119.263C64.8631 118.081 64.057 116.953 63.1972 115.77L62.3374 116.523L61.9075 119.532ZM63.4122 106.42L63.3584 106.259L63.4122 106.098C63.6808 104.862 63.8958 103.679 64.2182 102.497L64.3257 102.067L64.7019 102.121L68.3023 102.927L68.4635 102.981L68.5172 103.142L69.0009 104.056C70.1831 103.303 71.3653 102.551 72.5475 101.906L71.2578 99.3266L61.5851 96.5323L60.1342 101.96L58.8982 107.495C60.0267 109.483 61.3164 111.418 62.5524 113.298C63.7883 115.179 65.078 117.006 66.4215 118.78C67.5499 117.866 68.6247 117.006 69.6995 116.147C67.4962 112.976 65.293 109.698 63.4122 106.42ZM64.8631 103.035L64.2182 106.044L64.7556 106.904C65.9378 106.044 67.1738 105.238 68.356 104.378L67.9261 103.626L64.8631 103.035ZM79.3185 103.626C78.6736 102.443 77.9213 101.261 77.2227 100.025C75.1807 101.1 73.1924 102.336 71.0966 103.572C69.0546 104.862 67.12 106.151 65.1318 107.602L66.2065 109.429C66.5827 110.02 67.0126 110.665 67.3887 111.256C69.2695 109.805 71.3116 108.516 73.2999 107.172C74.2671 106.527 75.2344 105.883 76.2554 105.292C77.2227 104.754 78.2437 104.163 79.3185 103.626ZM76.4704 107.011L79.4797 107.656C79.6409 106.742 79.9096 105.936 80.1783 105.023L79.7484 104.271C78.5661 104.915 77.2764 105.668 76.148 106.366L76.4704 107.011ZM73.4073 111.471L83.3488 113.352C83.6712 111.848 83.9936 110.343 84.316 108.838L84.5847 107.71L84.9072 106.635L85.4983 104.432C84.9609 103.572 84.3698 102.658 83.8862 101.745L82.3815 99.058C81.4142 97.2309 80.3395 95.2963 79.5334 93.4155L77.6526 94.3291L75.8255 95.2963C76.6316 96.9622 77.4914 98.5743 78.2975 100.133C79.1573 101.745 80.0708 103.303 81.0381 104.808L81.0918 104.969L81.0381 105.13L80.6619 106.689C80.5544 107.226 80.447 107.763 80.2857 108.247L80.232 108.623L79.8558 108.57L76.2554 107.871L76.0942 107.817L75.9867 107.71L75.5031 106.904C74.3746 107.602 73.1924 108.355 72.0639 109.161C72.4401 109.859 72.87 110.719 73.4073 111.471ZM82.8114 96.4786C83.1338 95.6188 83.51 94.7052 83.7787 93.7917L80.9843 92.717L80.1245 93.1468C80.7156 94.3828 81.3068 95.6188 81.8979 96.8547L82.8114 96.4786ZM86.8417 99.864C87.0567 99.1117 87.3254 98.4131 87.5403 97.6608L88.4001 95.5113L89.2062 93.3081C89.4749 92.6095 89.7973 91.8571 90.1197 91.2123L80.9843 87.3432C77.8676 88.5254 75.0195 89.9763 71.9027 91.481L71.7415 91.5347L71.5803 91.481L68.1411 90.2988L67.7649 90.1375L67.9261 89.7614L69.2695 86.2684L69.3233 86.1072L69.4845 86.0535C69.9144 85.8385 70.3443 85.6236 70.7742 85.4086C70.2906 84.0652 69.8069 82.7218 69.377 81.3246L66.3677 82.7218C64.9168 86.2147 63.6271 89.7614 62.4986 93.3618L71.9564 96.3711C73.4073 95.565 74.912 94.8127 76.3092 94.0604C77.8138 93.3081 79.3185 92.6632 80.7694 91.9646L80.9306 91.9109L81.0918 91.9646L84.4235 93.2543L84.7997 93.4155L84.6385 93.7917C84.2086 94.8665 83.8324 95.8875 83.4563 97.0159L83.4025 97.1772L83.2413 97.2309L82.274 97.6608C82.9189 98.843 83.5637 100.025 84.2086 101.207L86.8417 99.864ZM68.8396 89.6002L71.7415 90.6749L72.7625 90.1913C72.2251 88.9016 71.634 87.5581 71.0966 86.161L69.9681 86.7521L68.8396 89.6002ZM73.5148 77.0793L73.4611 76.9181L73.5148 76.7569C74.0522 75.6821 74.5896 74.4999 75.1269 73.4252L75.3419 72.9953L75.7181 73.1565L78.9961 74.8224L79.1573 74.8761L79.211 75.0373L79.4797 75.9508C80.8231 75.4672 82.1665 75.091 83.51 74.7149L82.8651 71.9205L74.1597 66.8692L71.3653 71.813L68.8934 76.8644C69.5382 79.1214 70.3443 81.3246 71.0429 83.4203C71.7952 85.5698 72.6013 87.6656 73.5148 89.7614C74.7508 89.1703 76.0405 88.5254 77.2764 87.9343C76.5779 86.161 75.933 84.4414 75.3419 82.5606C75.0732 81.647 74.697 80.7335 74.4284 79.8199L73.5148 77.0793ZM75.7718 74.1775L74.4283 76.9181L74.697 77.8316C76.0942 77.2943 77.4377 76.8106 78.7811 76.327L78.5661 75.5747L75.7718 74.1775ZM89.6898 78.2078C89.3136 76.8644 88.9375 75.5209 88.5613 74.1775C86.3581 74.7686 84.0474 75.4672 81.7367 76.1658C79.4259 76.8644 77.2227 77.7779 74.912 78.6915L75.5568 80.7335L76.2554 82.8292C78.4049 81.862 80.7694 81.1096 82.9726 80.3036C84.1011 79.9274 85.1759 79.4975 86.3044 79.2288C87.4328 78.8527 88.5613 78.4765 89.6898 78.2078ZM86.0894 80.7335L88.83 82.0769C89.2062 81.2709 89.6898 80.4648 90.1197 79.7125L89.9048 78.9602C88.5613 79.3363 87.1642 79.6587 85.8745 80.0886L86.0894 80.7335ZM82.0591 84.3339L91.2482 88.5792C92.5916 85.8385 93.9351 83.0979 95.4397 80.4111C95.1173 79.4438 94.7949 78.4765 94.5262 77.4555L93.7201 74.4999L92.9678 71.4906L92.5916 69.9322L92.323 68.3739C90.9795 68.6425 89.6361 68.9112 88.3464 69.2337C88.7225 71.007 89.0987 72.7803 89.5823 74.5537C90.066 76.327 90.6034 78.0466 91.087 79.7125L91.1407 79.8737L91.087 80.0349L90.3347 81.4321C90.066 81.9157 89.9048 82.3993 89.6361 82.883L89.4749 83.2591L89.0987 83.0979L85.8207 81.5395L85.6595 81.4858L85.6058 81.3246L85.3371 80.5185C84.0474 80.9484 82.7577 81.3783 81.4142 81.862C81.5217 82.6143 81.7367 83.4741 82.0591 84.3339ZM94.7949 72.1355C95.2785 71.3294 95.8696 70.5234 96.407 69.771L93.9351 68.0514L93.0753 68.1589C93.344 69.5023 93.6127 70.8458 93.9888 72.1892L94.7949 72.1355ZM97.9117 76.327L99.1476 74.3387L100.491 72.4579C101.405 71.2219 102.211 69.8785 103.232 68.6425L95.3323 62.6777L92.8603 63.0001L90.4421 63.4837C88.83 63.8062 87.2179 64.1286 85.552 64.5048L85.3908 64.5585L85.2833 64.451L82.274 62.409L81.9516 62.194L82.2203 61.8179L84.3161 58.7548L84.4235 58.6474L84.5847 58.5936L85.9282 58.3249C85.767 56.9815 85.6595 55.5843 85.552 54.1871L82.3278 54.832C81.253 56.3366 80.1783 57.9488 79.1035 59.4534C78.5661 60.2057 78.0825 61.0118 77.5989 61.8179L76.0942 64.1823L84.531 69.3949C86.1431 68.965 87.7553 68.5351 89.3674 68.2126C90.9795 67.8902 92.5916 67.5678 94.2038 67.2454L94.365 67.1916L94.4725 67.2991L97.3743 69.3411L97.6967 69.5561L97.4817 69.8785C96.8369 70.8458 96.1383 71.7593 95.5472 72.6729L95.4935 72.8341L95.3323 72.8878L94.365 72.9953C94.6874 74.285 95.0098 75.5747 95.386 76.8106L97.9117 76.327ZM82.9726 61.9253L85.552 63.6449L86.5193 63.43C86.3044 62.0328 86.0894 60.6356 85.8745 59.131L84.746 59.3997L82.9726 61.9253ZM90.4421 51.0166L90.4421 50.8017L90.5496 50.6942L92.9678 47.8461L93.2902 47.5237L93.5589 47.7924L96.3533 50.1568L96.4607 50.2643L96.4607 50.4792L96.4608 51.4465C97.8042 51.2853 99.2551 51.2316 100.652 51.1241L100.706 48.276L93.4514 41.2364L91.5169 43.2784C90.872 43.9233 90.2272 44.6756 89.6361 45.3742L85.9819 49.6732C86.2506 54.3483 86.6268 58.8086 87.3791 63.2151C88.7763 62.8926 90.1197 62.6239 91.4632 62.3553C91.1945 60.4744 90.9795 58.6474 90.872 56.7128C90.6571 54.8857 90.4421 52.9512 90.4421 51.0166ZM93.2902 48.8134L91.3019 51.1241L91.3557 52.0376C92.8066 51.8764 94.2575 51.7152 95.7084 51.554L95.7084 50.8017L93.2902 48.8134ZM105.865 56.0142C105.811 54.6708 105.757 53.2199 105.757 51.8227C103.447 51.8764 101.028 51.9302 98.6102 52.0914C96.2458 52.3063 93.8276 52.575 91.4094 52.8437C91.4631 54.2946 91.6244 55.7455 91.7318 57.2502C92.9141 57.0352 94.0963 56.9278 95.2785 56.7128C96.4607 56.6053 97.6967 56.4441 98.8252 56.3904C101.19 56.1754 103.5 56.0142 105.865 56.0142ZM101.727 57.6801L104.091 59.6146C104.683 58.916 105.274 58.2175 105.919 57.5726L105.865 56.7665C104.468 56.7665 103.07 56.874 101.673 56.9815L101.727 57.6801Z" fill="#C12DD9"/>
</svg>
