<svg width="323" height="323" viewBox="0 0 323 323" fill="none" xmlns="http://www.w3.org/2000/svg">
<path d="M276.468 220.89C276.407 222.871 276.238 224.96 276.07 226.941L276.069 227.155L275.962 227.263C275.532 227.692 275.102 228.122 274.619 228.499L273.222 229.682L272.9 230.004L272.633 229.738L270.181 227.071L270.075 226.964L270.129 226.803L270.24 225.839C268.902 225.791 267.456 225.743 266.172 225.641C266.061 226.605 265.951 227.569 265.786 228.479L272.073 236.271C274.919 233.851 277.873 231.431 280.506 228.797C280.618 227.512 280.73 226.334 280.788 225.103L281.588 225.903L281.362 228.901L281.361 229.115L281.2 229.276C278.299 232.071 275.291 234.652 272.176 237.234L271.801 237.503L271.588 237.183L264.982 228.857L264.875 228.751L264.93 228.59C265.094 227.572 265.258 226.661 265.369 225.59C263.978 225.489 262.587 225.387 261.196 225.178C261.03 226.517 260.81 227.91 260.645 229.249L263.748 229.558L263.908 229.611L264.015 229.717L270.407 237.936L270.62 238.257L270.244 238.526L267.828 240.409C267.023 241.001 266.218 241.593 265.359 242.131C263.695 243.262 262.085 244.446 260.368 245.523L260.207 245.577L260.046 245.524L256.73 245.002C256.351 246.127 256.079 247.252 255.646 248.325L255.592 248.486L255.431 248.54C253.715 249.51 251.944 250.534 250.174 251.451L244.811 254.148L244.382 254.364L244.222 253.989L239.817 244.317L239.764 244.157L239.818 243.996C240.196 243.085 240.628 242.12 240.953 241.155C239.67 240.732 238.333 240.255 236.997 239.778C236.511 241.011 236.024 242.244 235.484 243.531L238.531 244.644L238.691 244.697L238.744 244.857L242.99 254.369L243.149 254.743L242.72 254.959C240.897 255.715 239.073 256.579 237.197 257.282L234.409 258.363L233.016 258.904L231.568 259.391L231.408 259.445L231.247 259.393L228.041 258.013C227.448 259.032 226.801 260.106 226.155 261.072L226.048 261.179L225.887 261.233C223.958 261.776 222.029 262.319 220.1 262.754L214.207 264.062L213.563 264.278L213.511 263.904L211.571 253.473L211.518 253.313L211.625 253.205C212.217 252.4 212.809 251.595 213.401 250.789C212.226 250.045 211.052 249.3 209.931 248.501C209.177 249.575 208.37 250.702 207.509 251.776L210.179 253.585L210.285 253.692L210.338 253.852L212.119 264.123L212.171 264.498L211.689 264.553C209.76 264.882 207.778 265.264 205.743 265.486L202.798 265.872L201.352 266.038L199.852 266.151L199.638 266.152L199.532 266.046L196.81 263.968C195.95 264.828 195.09 265.688 194.284 266.494L194.176 266.601L193.962 266.602C191.981 266.663 190.001 266.725 187.966 266.732C185.986 266.687 183.952 266.694 182.025 266.595L181.543 266.543L181.545 266.115L182.121 255.514L182.122 255.3L182.23 255.192C183.035 254.6 183.787 253.848 184.539 253.203L183.153 251.709L181.767 250.108C180.747 251.022 179.673 251.883 178.652 252.797L180.784 255.144L180.891 255.251L180.837 255.412L180.101 265.853L180.099 266.281L179.618 266.229C177.638 266.076 175.604 265.977 173.624 265.717C171.645 265.457 169.665 265.304 167.685 264.937L167.525 264.884L167.418 264.778L165.287 262.109C164.321 262.755 163.302 263.348 162.283 263.941L162.122 263.995L161.961 263.942C160.036 263.521 158.057 263.154 156.132 262.626C154.207 262.098 152.228 261.624 150.357 261.043L149.929 260.937L150.037 260.509L153.181 250.326L153.236 250.165L153.396 250.111C154.308 249.733 155.22 249.247 156.132 248.762L155.121 246.999L154.165 245.183C152.985 245.83 151.751 246.423 150.464 247.071L151.952 249.849L152.005 250.009L151.951 250.17L148.808 260.139L148.646 260.514L148.218 260.409L145.384 259.509C144.422 259.192 143.513 258.821 142.551 258.503C140.68 257.815 138.809 257.126 136.992 256.276L136.832 256.224L136.779 256.063L135.346 252.91C134.22 253.289 133.095 253.668 131.916 253.994L131.755 254.048L131.595 253.995C129.832 253.092 128.015 252.243 126.252 251.34C124.542 250.383 122.726 249.426 121.071 248.415L120.697 248.149L120.912 247.827L126.408 238.706L126.462 238.545L126.622 238.491C127.587 238.273 128.605 238.001 129.569 237.784L128.988 235.805C128.83 235.11 128.619 234.468 128.461 233.773C127.175 234.099 125.835 234.372 124.496 234.645L125.234 237.747L125.286 237.907L125.232 238.068L119.738 246.975L119.522 247.297L119.149 247.031C115.731 245.01 112.474 242.721 109.271 240.378L109.111 240.218L109.058 240.057L108.429 236.634C107.251 236.745 106.02 236.804 104.788 236.862L104.574 236.863L104.414 236.703L99.8792 232.813C98.439 231.48 96.9455 230.094 95.559 228.707L95.2391 228.388L95.5078 228.119L102.978 220.542L103.085 220.435L103.299 220.434L106.35 220.476C106.302 219.031 106.254 217.693 106.259 216.301L106.152 216.301L106.156 215.445C108.457 215.489 110.76 215.32 112.955 215.258L113.116 215.204L113.222 215.31C113.595 215.684 113.969 216.057 114.396 216.376L115.623 217.389L115.89 217.655L115.621 217.924L113.308 220.77L113.201 220.878L113.04 220.932L112.183 221.042C112.285 222.433 112.386 223.825 112.488 225.216C113.398 225.159 114.362 225.156 115.273 224.991L121.619 217.152C119.271 215.233 116.977 213.262 114.844 211.129C113.613 211.187 112.381 211.245 111.15 211.304L111.207 210.5C112.491 210.495 113.776 210.383 115.008 210.325L115.169 210.271L115.275 210.378C116.449 211.444 117.569 212.564 118.796 213.576L120.61 215.175C121.25 215.708 121.783 216.241 122.424 216.667L122.745 216.88L122.529 217.202L115.913 225.524L115.805 225.632L115.645 225.686C114.681 225.797 113.663 225.854 112.646 225.912C112.748 227.303 113.01 228.64 113.166 229.978C114.558 229.865 116.004 229.699 117.343 229.533L116.926 226.43L116.874 226.27L116.981 226.162L123.437 217.894L123.652 217.572L123.972 217.785L125.946 219.651L127.974 221.035L130.003 222.419C130.697 222.898 131.392 223.27 132.033 223.696L132.139 223.802L132.192 223.963L132.716 226.851C133.627 226.58 134.538 226.309 135.503 225.984L135.664 225.93L135.824 225.983C137.213 226.727 138.602 227.578 140.044 228.268L144.319 230.393L144.693 230.552L144.531 230.928L140.05 240.634L139.996 240.795L139.835 240.849C138.871 241.174 137.96 241.445 137.048 241.716L137.737 243.694C138.002 244.389 138.267 244.977 138.532 245.672C139.926 245.131 141.266 244.644 142.606 244.157L141.493 241.431L141.44 241.271L141.494 241.11L145.76 231.512L145.922 231.136L146.296 231.295L148.54 232.25C149.289 232.569 150.037 232.78 150.785 233.098C152.282 233.628 153.779 234.264 155.329 234.74L155.49 234.793L155.542 234.953L156.764 237.572C157.568 237.087 158.427 236.655 159.285 236.117L159.393 236.009L159.553 236.062C161.104 236.431 162.654 236.907 164.205 237.275L168.859 238.274L169.233 238.327L169.178 238.701L167.157 249.148L167.103 249.308L166.996 249.416C166.137 249.955 165.332 250.439 164.474 250.978C165.219 252.153 166.017 253.274 166.87 254.341C168.104 253.534 169.231 252.726 170.466 251.919L168.655 249.463L168.548 249.356L168.603 249.196L170.462 238.911L170.517 238.536L170.892 238.588L173.299 238.953C174.101 239.111 174.904 239.161 175.707 239.212C177.312 239.42 178.917 239.627 180.576 239.675L180.737 239.728L180.844 239.834L182.708 242.129C183.407 241.43 184.105 240.839 184.75 240.087L184.858 239.979L184.965 239.979C186.571 239.973 188.176 240.074 189.729 240.014C191.281 239.955 192.887 239.948 194.494 239.835L194.869 239.78L194.867 240.208L195.415 250.859L195.414 251.073L195.306 251.18C194.661 251.932 193.909 252.578 193.211 253.276L194.758 254.715L196.305 256.048C197.272 254.973 198.24 253.899 199.208 252.825L196.914 250.853L196.807 250.746L196.754 250.586L196.098 240.15L196.1 239.722L196.475 239.667L198.885 239.497C199.688 239.44 200.491 239.277 201.294 239.22C202.901 239 204.561 238.833 206.115 238.559L206.276 238.505L206.382 238.612L208.677 240.369C209.162 239.564 209.701 238.706 210.186 237.901L210.24 237.74L210.401 237.686L212.758 237.142C213.562 236.978 214.365 236.814 215.115 236.597C216.616 236.163 218.17 235.783 219.724 235.295L220.046 235.186L220.151 235.614L223.217 245.773L223.27 245.934L223.215 246.094C222.73 247.006 222.245 247.811 221.76 248.616C222.989 249.307 224.218 249.891 225.5 250.529C226.201 249.295 226.848 248.008 227.495 246.827L224.717 245.446L224.556 245.393L224.503 245.233L221.383 235.342L221.224 234.968L221.546 234.86L223.904 234.101C224.708 233.83 225.459 233.506 226.156 233.236C227.71 232.641 229.211 232.1 230.659 231.398L230.82 231.344L230.98 231.397L233.652 232.565C233.924 231.654 234.302 230.742 234.52 229.778L234.574 229.617L234.735 229.563C236.129 228.808 237.631 228.16 239.025 227.405L243.21 225.033L243.532 224.818L243.745 225.138L249.063 234.218L249.116 234.379L249.062 234.539C248.844 235.504 248.519 236.361 248.194 237.326L250.226 237.854L252.259 238.274C252.639 236.827 253.019 235.488 253.346 234.095L250.35 233.464L250.19 233.411L250.137 233.25L244.711 224.385L244.498 224.065L244.82 223.85C246.215 222.988 247.611 222.126 248.899 221.157C250.188 220.189 251.583 219.327 252.818 218.305L252.925 218.198L253.086 218.251L255.921 218.721C256.032 217.757 256.089 216.847 256.146 215.83L256.2 215.669L256.308 215.562L259.96 212.443L263.452 209.164L263.721 208.895L263.987 209.162L271.399 216.681L271.506 216.788L271.505 217.002L271.333 219.947C272.618 219.942 274.009 219.936 275.294 219.931L276.361 220.998L276.468 220.89ZM272.958 228.88L274.139 227.912L275.267 226.891L275.325 225.873C273.826 225.879 272.434 225.884 270.989 225.836L270.932 226.64L272.958 228.88ZM261.536 220.252L261.367 222.34C261.311 223.037 261.201 223.679 261.145 224.375L262.911 224.529L264.677 224.683C265.854 224.786 266.978 224.835 268.209 224.884C269.44 224.932 270.617 225.035 271.795 225.03C272.973 225.026 274.15 225.021 275.382 224.963C275.441 223.517 275.553 222.125 275.613 220.68C273.203 220.742 270.795 220.698 268.493 220.654C266.191 220.609 263.837 220.404 261.536 220.252ZM265.823 219.058L263.69 216.818L261.596 218.592L261.539 219.503C262.93 219.604 264.321 219.706 265.713 219.808L265.823 219.058ZM270.862 217.111L263.824 209.966C262.696 210.987 261.621 212.062 260.493 213.083L257.002 216.041C256.887 218.075 256.665 220.11 256.389 222.199C256.278 223.27 256.114 224.288 256.002 225.359L255.455 228.466C256.792 228.728 258.183 228.937 259.574 229.146C260.124 225.504 260.619 221.915 260.794 218.328L260.848 218.167L260.955 218.06L263.372 215.963L263.641 215.694L263.908 215.961L266.413 218.574L266.52 218.681L266.519 218.895C266.518 219.216 266.517 219.537 266.462 219.805C267.8 219.853 269.138 219.902 270.53 219.896L270.862 217.111ZM254.562 224.133L252.2 225.748L253.904 228.204L254.813 228.361C255.086 227.022 255.305 225.629 255.471 224.29L254.562 224.133ZM253.243 219.053C252.062 220.021 250.72 220.829 249.486 221.744C248.842 222.175 248.251 222.659 247.554 223.036L245.568 224.275L250.782 232.713C252.386 233.028 253.991 233.45 255.596 233.658C257.254 233.919 258.805 234.181 260.518 234.388L260.678 234.441L260.785 234.548L262.861 237.484L263.074 237.804L262.698 238.073L259.639 240.173L259.531 240.28L259.371 240.227L257.98 240.019C257.6 241.358 257.22 242.805 256.84 244.145L260.05 244.668C261.659 243.698 263.216 242.568 264.773 241.438L267.081 239.769L269.336 238.048L263.371 230.255C260.106 230 256.843 229.424 253.687 228.847L253.527 228.794L253.42 228.688L251.451 225.751L251.238 225.431L251.56 225.215L254.351 223.278L254.458 223.17L254.619 223.223C254.94 223.329 255.261 223.328 255.582 223.433C255.747 222.094 255.913 220.756 256.026 219.363L253.243 219.053ZM261.95 237.648L260.194 235.139L259.177 234.982C258.851 236.375 258.577 237.822 258.251 239.215C258.679 239.32 259.053 239.372 259.481 239.37L261.95 237.648ZM251.054 245.238L251 245.399L250.84 245.453C249.713 246.046 248.693 246.746 247.567 247.232L247.192 247.394L246.979 247.073L245.278 243.868L245.226 243.708L245.28 243.547L245.604 242.689C244.267 242.32 242.877 241.897 241.594 241.474L240.513 244.154L244.761 253.238L249.802 250.756C251.518 249.893 253.128 248.923 254.737 248.061C255.495 245.916 256.146 243.666 256.743 241.469L257.612 238.253C257.884 237.128 258.102 236.057 258.374 234.932C256.983 234.723 255.646 234.567 254.255 234.252C253.331 237.842 252.353 241.593 251.054 245.238ZM247.571 246.375C248.483 245.89 249.394 245.405 250.253 244.866L250.577 244.008C249.187 243.693 247.743 243.323 246.352 243.008L246.082 243.704L247.571 246.375ZM238.567 235.222C238.134 236.509 237.7 237.902 237.16 239.189C241.543 240.778 246.142 242.152 250.848 243.204C251.282 241.811 251.769 240.471 252.149 239.024C247.389 238.025 242.897 236.758 238.567 235.222ZM242.957 235.098L241.468 232.427C240.717 232.859 239.859 233.29 239.055 233.668L238.838 234.418C240.121 234.841 241.457 235.318 242.794 235.795L242.957 235.098ZM248.259 234.489L243.153 225.837L239.183 228.1C237.842 228.801 236.448 229.449 235.107 230.15C234.511 232.133 233.807 234.009 233.104 235.993L231.968 238.941C231.59 239.96 231.158 240.818 230.78 241.836C232.009 242.42 233.291 242.951 234.521 243.428C235.223 241.766 235.872 240.05 236.574 238.388C237.223 236.78 237.765 234.958 238.307 233.35L238.361 233.189L238.522 233.135C239.433 232.649 240.506 232.217 241.364 231.678L241.686 231.463L241.899 231.783L243.653 234.935L243.706 235.095L243.652 235.256L243.382 236.06C244.718 236.43 245.948 236.8 247.339 237.115L248.259 234.489ZM230.904 237.339L228.224 238.313L229.284 241.093L230.085 241.464C230.625 240.178 231.219 238.944 231.706 237.711L230.904 237.339ZM230.817 232.094C229.423 232.741 227.922 233.283 226.528 233.823L224.33 234.635L222.133 235.339L225.148 244.695C228.033 246.183 231.026 247.456 234.125 248.729L234.286 248.782L234.339 248.942L235.664 252.31L235.823 252.684L235.448 252.846L231.963 254.197L231.802 254.251L231.642 254.199C231.268 254.039 230.787 253.881 230.359 253.668C229.712 254.848 229.012 256.082 228.311 257.316L231.304 258.589C232.215 258.318 233.073 257.994 233.93 257.669L236.557 256.642C238.326 256.046 240.042 255.183 241.758 254.427L237.885 245.396C236.335 244.813 234.785 244.23 233.235 243.647C231.739 243.01 230.242 242.374 228.8 241.683L228.639 241.738L228.586 241.577L227.421 238.263L227.262 237.889L227.637 237.727L230.8 236.483L230.961 236.429L231.121 236.482L231.976 236.907C232.463 235.674 232.896 234.388 233.329 233.208L230.817 232.094ZM234.7 252.313L233.587 249.48L232.679 249.109C232.031 250.396 231.384 251.684 230.737 252.971L231.806 253.395L234.7 252.313ZM222.424 257.018L222.316 257.125L222.156 257.179C220.977 257.505 219.744 257.885 218.565 258.103L218.137 258.212L218.085 257.837L217.135 254.308L217.082 254.148L217.189 254.04L217.728 253.289C216.499 252.598 215.324 251.853 214.149 251.108L212.481 253.416L214.37 263.258L219.889 262.006C221.71 261.571 223.533 261.028 225.301 260.54C225.947 259.574 226.486 258.608 227.132 257.642L228.803 254.691C229.342 253.726 229.881 252.76 230.42 251.794L231.93 248.791C230.648 248.261 229.365 247.73 228.136 247.146C226.357 250.418 224.524 253.851 222.424 257.018ZM218.783 257.246C219.801 256.974 220.765 256.756 221.73 256.432L222.215 255.627C220.933 254.989 219.597 254.299 218.369 253.607C218.261 253.822 218.046 254.037 217.938 254.251L218.783 257.246ZM212.731 244.208C211.977 245.388 211.223 246.569 210.415 247.696C214.26 250.251 218.372 252.751 222.7 254.929C223.507 253.695 224.208 252.461 224.962 251.173C223.894 250.642 222.825 250.111 221.757 249.58C220.688 249.048 219.673 248.463 218.658 247.879C216.575 246.762 214.653 245.485 212.731 244.208ZM216.956 245.209L216.164 242.267C215.307 242.485 214.396 242.649 213.539 242.866L213.108 243.51C214.283 244.255 215.404 245.054 216.633 245.745L216.956 245.209ZM222.306 245.83L219.453 236.206L215.059 237.4C213.612 237.781 212.112 238.108 210.612 238.435C209.588 240.205 208.457 241.869 207.326 243.64L205.496 246.216C204.851 247.075 204.259 247.881 203.613 248.739C204.68 249.592 205.801 250.39 206.923 251.189C207.999 249.686 209.129 248.236 210.098 246.734C211.121 245.285 212.09 243.675 213.006 242.226L213.06 242.065L213.221 242.011C214.292 241.793 215.364 241.575 216.329 241.25L216.65 241.141L216.756 241.569L217.759 245.045L217.812 245.205L217.758 245.366L217.327 246.117C218.502 246.755 219.677 247.5 220.852 248.138C221.39 247.386 221.822 246.635 222.306 245.83ZM204.807 244.452L201.969 244.838L202.332 247.781L202.972 248.314C203.833 247.24 204.64 246.113 205.448 244.985L204.807 244.452ZM205.898 239.309C204.398 239.636 202.845 239.803 201.292 239.969L198.989 240.246L196.686 240.415L197.398 250.262C198.625 251.275 199.905 252.447 201.186 253.406C202.467 254.365 203.802 255.377 205.136 256.388L205.243 256.495L205.296 256.655L205.764 260.24L205.816 260.615L205.334 260.67L201.638 261.166L201.424 261.167L201.317 261.06C200.944 260.794 200.57 260.528 200.25 260.208C199.336 261.229 198.369 262.196 197.401 263.27L200.016 265.241L201.409 265.128L202.801 264.909L205.586 264.577C207.46 264.409 209.335 264.027 211.157 263.699L209.535 254.016C208.147 253.058 206.812 252.153 205.477 251.248C204.143 250.236 202.862 249.278 201.634 248.265L201.528 248.159L201.475 247.998L201.06 244.467L201.008 244.092L201.383 244.037L204.757 243.65L204.918 243.596L205.024 243.702L205.771 244.342C206.525 243.268 207.279 242.088 207.979 241.068L205.898 239.309ZM204.855 259.976L204.492 256.926L203.691 256.34C202.776 257.468 201.809 258.542 200.894 259.67L201.802 260.363L204.855 259.976ZM191.733 261.579L191.626 261.687L191.412 261.687C190.18 261.746 188.949 261.804 187.718 261.755L187.29 261.757L187.291 261.329L187.198 257.689L187.199 257.475L187.307 257.367L188.059 256.722C187.099 255.762 186.086 254.749 185.179 253.842L182.977 255.724L182.457 265.737L188.077 265.876C189.95 265.922 191.824 265.754 193.698 265.8L194.987 264.618L196.223 263.382L198.588 260.91C199.394 260.104 200.147 259.245 200.846 258.439L202.997 255.861C201.822 255.009 200.755 254.157 199.688 253.305C197.215 256.098 194.581 258.945 191.733 261.579ZM188.203 260.95C189.22 261 190.237 260.942 191.254 260.885L191.953 260.186C190.886 259.227 189.819 258.268 188.752 257.308L188.108 257.846L188.203 260.95ZM185.42 246.883C184.453 247.85 183.432 248.871 182.411 249.678C185.503 253.092 188.916 256.505 192.544 259.595C193.565 258.574 194.586 257.66 195.607 256.532C191.925 253.495 188.512 250.297 185.42 246.883ZM189.374 248.794L189.279 245.69C188.368 245.747 187.459 245.697 186.549 245.647L185.958 246.238C186.864 247.252 187.877 248.265 188.837 249.225L189.374 248.794ZM194.398 250.702L193.955 240.694L189.351 240.818C187.852 240.824 186.3 240.777 184.801 240.782C183.35 242.34 181.846 243.631 180.288 245.082L177.924 247.233C177.119 247.932 176.313 248.524 175.508 249.223C176.36 250.29 177.213 251.357 178.119 252.371C181.018 250.004 183.704 247.639 186.176 245.06L186.284 244.952L186.444 245.005C187.515 245.001 188.585 245.104 189.656 244.993L190.031 244.938L190.029 245.366L190.122 249.006L190.122 249.22L190.014 249.327L189.369 249.972C190.329 250.932 191.343 251.838 192.356 252.744L194.398 250.702ZM177.665 245.146L174.829 244.782L174.443 247.728L174.975 248.475C176.049 247.615 177.123 246.754 178.144 245.84C178.038 245.626 177.824 245.413 177.665 245.146ZM180.092 240.479C178.539 240.432 176.988 240.17 175.436 240.016C174.687 239.911 173.884 239.861 173.135 239.757L170.835 239.391L169.192 249.14C170.15 250.421 171.108 251.809 172.121 253.036C173.133 254.264 174.199 255.544 175.318 256.878L175.424 256.985L175.37 257.146L174.982 260.734L174.927 261.109L174.445 261.057L170.753 260.589L170.539 260.59L170.433 260.483C170.166 260.11 169.846 259.79 169.58 259.416C168.4 260.17 167.219 260.924 166.038 261.678L168.063 264.133C169.882 264.447 171.755 264.6 173.627 264.861C174.591 264.964 175.5 265.121 176.41 265.171L179.299 265.481L180.087 255.629C178.967 254.402 177.901 253.228 176.836 251.947C175.77 250.667 174.811 249.386 173.799 248.159L173.692 248.052L173.746 247.891L174.242 244.41L174.297 244.035L174.671 244.087L178.042 244.449L178.203 244.501L178.309 244.608L178.948 245.462C179.969 244.548 180.989 243.634 181.903 242.721L180.092 240.479ZM174.073 260.255L174.46 257.203L173.82 256.456C172.64 257.317 171.459 258.178 170.331 258.985C170.544 259.305 170.811 259.572 171.077 259.839L174.073 260.255ZM161.018 258.7L160.857 258.754L160.697 258.701C159.467 258.438 158.29 258.228 157.06 257.859L156.632 257.753L156.687 257.378L157.504 253.789L157.558 253.628L157.719 253.574L158.631 253.088C157.886 251.913 157.141 250.739 156.503 249.563L153.929 250.858L151.108 260.612L156.509 262.036C158.327 262.457 160.145 262.878 162.018 263.246C164.003 262.114 165.988 260.875 167.866 259.637L170.55 257.807C171.516 257.16 172.375 256.515 173.288 255.815C172.382 254.695 171.476 253.681 170.677 252.56C169.174 253.636 167.564 254.713 165.954 255.79C164.344 256.76 162.735 257.73 161.018 258.7ZM157.705 257.214C158.667 257.531 159.684 257.688 160.646 257.898L161.558 257.413C160.706 256.239 159.908 255.01 159.163 253.836L158.466 254.213L157.705 257.214ZM158.403 242.865C157.222 243.512 156.042 244.266 154.808 244.859C156.987 248.973 159.434 253.032 162.256 256.928C163.544 256.174 164.724 255.527 165.905 254.666C163.136 250.823 160.635 246.925 158.403 242.865ZM161.817 245.742L162.471 242.742C161.616 242.531 160.707 242.267 159.851 242.056L159.1 242.487C159.791 243.716 160.429 244.891 161.12 246.12L161.817 245.742ZM166.195 248.723L168.161 238.866L163.721 237.866C162.277 237.497 160.78 237.074 159.336 236.705L157.995 237.513L156.707 238.268C155.795 238.753 154.937 239.292 154.025 239.777C153.113 240.262 152.148 240.801 151.236 241.287C150.324 241.772 149.359 242.204 148.393 242.636C148.977 243.865 149.508 245.147 150.146 246.323C153.471 244.704 156.635 243.032 159.694 241.147L159.855 241.093L160.015 241.146C161.031 241.409 162.101 241.726 163.17 241.936L163.545 241.989L163.49 242.363L162.727 245.899L162.673 246.06L162.512 246.114L161.707 246.599C162.399 247.721 163.144 248.896 163.942 250.017L166.195 248.723ZM151.35 239.359L148.677 238.406L147.596 241.194L148.021 242.048C149.254 241.455 150.488 240.861 151.721 240.268C151.508 239.947 151.403 239.626 151.35 239.359ZM154.791 235.385C153.294 234.962 151.905 234.325 150.461 233.849C149.766 233.584 149.018 233.373 148.323 233.001L146.239 232.099L142.297 241.16C142.933 242.657 143.516 244.207 144.153 245.703C144.843 247.146 145.533 248.696 146.277 250.192L146.329 250.352L146.275 250.513L144.977 253.944L144.815 254.319L144.441 254.16L140.967 252.835L140.806 252.782L140.754 252.622C140.541 252.194 140.329 251.767 140.117 251.233C138.776 251.719 137.436 252.206 136.043 252.64L137.423 255.632C139.133 256.375 140.897 256.957 142.661 257.646C143.516 257.964 144.425 258.335 145.334 258.6L148.007 259.446L151.095 250.066C150.297 248.624 149.5 247.182 148.863 245.685C148.12 244.189 147.483 242.693 146.793 241.25L146.74 241.09L146.794 240.929L148.092 237.605L148.254 237.23L148.628 237.389L151.781 238.608L151.942 238.661L151.995 238.821L152.419 239.783C153.599 239.136 154.779 238.489 155.96 237.842L154.791 235.385ZM144.391 253.25L145.473 250.355L144.995 249.34C143.708 249.88 142.368 250.474 140.974 251.015C141.186 251.443 141.345 251.817 141.505 252.191L144.391 253.25ZM131.937 248.534L131.776 248.588L131.616 248.535C130.494 247.951 129.371 247.473 128.303 246.835L127.876 246.623L128.038 246.247L129.71 242.975L129.764 242.815L129.925 242.761L130.836 242.489C130.359 241.153 129.99 239.816 129.62 238.479L126.834 239.132L121.662 247.824L126.576 250.589C128.232 251.492 129.942 252.235 131.598 253.139C133.795 252.542 136.046 251.784 138.19 251.026L141.353 249.89C142.425 249.457 143.497 249.025 144.463 248.593C143.879 247.364 143.294 246.135 142.711 244.799C140.942 245.502 139.173 246.097 137.35 246.747L136.01 247.234L134.617 247.667L131.937 248.534ZM129.108 246.35C130.016 246.828 130.924 247.307 131.886 247.731L132.797 247.46C132.267 246.07 131.791 244.734 131.314 243.398L130.564 243.615L129.108 246.35ZM133.176 232.47C131.837 232.85 130.443 233.284 129.157 233.61C130.318 238.102 131.692 242.7 133.494 247.19C134.888 246.756 136.228 246.376 137.675 245.889C135.872 241.399 134.337 236.962 133.176 232.47ZM135.732 236.1L137.081 233.365C136.279 232.993 135.478 232.515 134.73 232.089L133.98 232.306C134.35 233.643 134.719 234.98 135.089 236.317L135.732 236.1ZM139.25 240.048L143.567 230.931L139.507 228.913C138.171 228.222 136.836 227.424 135.5 226.733C133.517 227.437 131.588 227.873 129.552 228.416L126.444 229.177C125.426 229.449 124.408 229.613 123.337 229.832C123.599 231.169 123.808 232.56 124.124 233.843C125.892 233.462 127.714 233.027 129.429 232.592C131.143 232.157 132.912 231.668 134.627 231.126L134.788 231.072L134.948 231.125C135.91 231.657 136.764 232.189 137.779 232.667L138.153 232.826L137.991 233.201L136.426 236.472L136.372 236.633L136.211 236.687L135.407 236.958C135.831 238.241 136.254 239.524 136.731 240.861L139.25 240.048ZM127.147 227.408L124.798 225.811L123.075 228.28L123.179 229.136C124.518 228.863 125.858 228.591 127.197 228.318L127.147 227.408ZM131.441 224.287C130.106 223.489 128.879 222.584 127.597 221.732L125.729 220.401C125.142 219.921 124.501 219.496 123.914 219.016L117.888 226.855C118.25 230.119 118.934 233.274 119.617 236.644L119.67 236.805L119.563 236.912L117.517 239.918L117.301 240.24L116.928 239.974L113.885 237.898L113.778 237.791L113.725 237.631C113.62 237.203 113.514 236.775 113.462 236.293C112.124 236.459 110.731 236.571 109.339 236.684L109.969 239.893C110.663 240.479 111.464 240.958 112.265 241.544L114.614 243.141C116.108 244.206 117.764 245.216 119.312 246.227L124.537 237.803C124.115 236.199 123.747 234.648 123.378 232.99C123.063 231.385 122.748 229.78 122.54 228.175L122.487 228.015L122.595 227.907L124.64 225.009L124.856 224.687L125.176 224.9L127.952 226.816L128.113 226.869L128.165 227.029L128.269 227.993C129.555 227.666 130.841 227.34 132.127 227.014L131.441 224.287ZM116.931 239.117L118.707 236.594L118.497 235.632C117.104 235.851 115.658 236.017 114.212 236.29L114.475 237.414L116.931 239.117ZM106.2 231.718L105.986 231.718L105.879 231.612L103.051 229.214C102.945 229.107 102.838 229.001 102.731 228.894L103 228.625L105.366 225.833L105.474 225.725L105.688 225.724C106.009 225.723 106.33 225.722 106.651 225.721C106.55 224.329 106.502 222.884 106.453 221.546L103.616 221.503L96.5759 228.757C97.9628 230.036 99.2426 231.316 100.629 232.596L104.898 236.219C107.2 236.157 109.449 235.934 111.752 235.765C112.876 235.707 113.947 235.596 115.072 235.431L118.392 234.99C118.13 233.652 117.814 232.262 117.659 230.924C115.838 231.145 113.963 231.313 112.035 231.535C111.072 231.645 110.161 231.702 109.144 231.76L106.2 231.718ZM103.963 228.836L106.257 230.807L107.167 230.75C107.012 229.306 106.857 227.861 106.702 226.416L105.953 226.419L103.963 228.836ZM111.291 216.388C109.952 216.447 108.507 216.506 107.115 216.512C107.16 218.813 107.204 221.222 107.355 223.63C107.507 226.038 107.765 228.339 108.077 230.8L110.219 230.685L112.414 230.516C112.048 228.216 111.844 225.754 111.639 223.4C111.536 222.222 111.434 221.045 111.384 219.921C111.336 218.69 111.34 217.512 111.291 216.388ZM112.881 220.451L114.817 218.088L113.804 217.182L112.844 216.222L112.041 216.278C112.035 217.67 112.083 219.115 112.132 220.453L112.881 220.451Z" fill="#C21F81"/>
<path d="M101.803 222.048C99.7689 222.056 97.7889 221.903 95.7018 221.751L95.4877 221.752L95.381 221.645C94.5278 220.792 93.6751 219.831 92.8756 218.925L92.5557 218.605L92.8243 218.336L95.5104 215.863L95.6179 215.756L95.7783 215.809L96.7414 215.912C96.8001 214.573 96.8592 213.128 96.9179 211.789L94.0822 211.426L86.2956 217.826L89.9192 222.094C91.1449 223.535 92.4246 224.815 93.7578 226.148C94.9888 226.197 96.2194 226.352 97.4504 226.401L96.6443 227.207C95.6274 227.158 94.6106 227.108 93.5937 227.058L93.3795 227.059L93.2196 226.899C91.8869 225.459 90.4471 224.019 89.1681 222.525C87.8892 221.031 86.5569 219.484 85.2779 217.99L85.0117 217.617L85.3337 217.401L93.6568 210.678L93.7643 210.57L93.9247 210.623C94.9412 210.78 95.9043 210.883 96.9208 211.04C97.0332 209.648 97.1456 208.256 97.3114 206.917C95.9737 206.761 94.6361 206.606 93.2451 206.397L92.9119 209.503L92.8578 209.664L92.7503 209.771L84.5351 216.28L84.213 216.496L83.9468 216.122C81.4431 212.973 79.1538 209.717 76.972 206.353L76.9191 206.192L76.9733 206.032L77.5214 202.711C76.3987 202.34 75.2755 202.077 74.1528 201.706L73.9924 201.654L73.9395 201.493L71.0691 196.258L68.4132 190.915L68.2007 190.488L68.576 190.326L78.229 185.792L78.3898 185.738L78.5502 185.791L81.383 186.904C81.8699 185.564 82.1961 184.278 82.7363 182.991C81.507 182.514 80.2776 182.037 78.9949 181.507L77.859 184.562L77.8048 184.723L77.644 184.777L68.2606 188.828L67.8853 188.99L67.6728 188.563L66.5059 185.784C66.1346 184.875 65.7101 183.913 65.3922 183.058C64.7035 181.187 63.9611 179.37 63.3262 177.445L63.2733 177.285L63.3274 177.124L64.7316 173.907C63.7168 173.322 62.6487 172.684 61.6338 172.099L61.4734 172.046L61.4205 171.886L59.8369 166.11C59.4161 164.185 58.9952 162.259 58.5748 160.227L58.4694 159.799L58.8443 159.744L69.2372 157.67L69.398 157.616L69.5047 157.722L72.1213 159.372C72.8753 158.191 73.5755 157.064 74.3832 155.83C73.3155 155.085 72.1945 154.286 71.1267 153.541L69.2963 156.224L69.1889 156.332L69.0281 156.386L58.7427 158.353L58.3677 158.408L58.3161 157.926L57.8456 154.984C57.689 153.967 57.4785 153.005 57.3752 152.041C57.1152 150.062 56.8552 148.082 56.7022 146.102L56.703 145.888L56.8105 145.781L58.9087 143.042C58.0555 142.189 57.2024 141.336 56.3492 140.483L56.2425 140.376L56.2433 140.162L56.1594 134.167L56.2896 128.171L56.2912 127.743L56.7195 127.741L67.3166 128.236L67.5307 128.235L67.6373 128.341L69.6091 130.636C70.6301 129.615 71.5437 128.701 72.6713 127.787C71.7652 126.773 70.9128 125.706 70.0067 124.692L67.6431 126.843L67.5356 126.95L67.3753 126.897L56.9389 126.349L56.5107 126.35L56.5661 125.868C56.7955 121.906 57.2927 117.889 57.8967 113.979L57.9508 113.819L58.0583 113.711L60.7431 111.56C60.1044 110.598 59.5195 109.584 58.9346 108.569L58.8817 108.408L58.9358 108.248L60.2433 102.354L61.8715 96.5667C61.9257 96.4059 61.9798 96.2451 61.9802 96.138L62.4081 96.2434L72.5674 99.202L72.7278 99.2549L72.7807 99.4152L74.1622 102.086C75.3961 101.386 76.5229 100.686 77.8102 100.038C77.1723 98.863 76.5882 97.6341 76.0041 96.4051L73.2147 97.9147L73.0539 97.9689L72.8936 97.916L62.9487 94.8495L62.5746 94.6904L62.6834 94.2617C63.8759 90.403 65.2821 86.6504 66.7951 83.0045L66.8492 82.8437L67.01 82.7896L70.1206 81.2787C69.7502 80.156 69.3798 79.0333 69.0632 77.8569L69.0103 77.6965L69.0644 77.5357L71.7616 72.1722L74.6725 66.915L74.8883 66.486L75.2087 66.6988L84.3416 72.0702L84.502 72.1231L84.5549 72.2835L85.2395 75.225C86.5792 74.8451 87.8656 74.412 89.2587 74.0854C88.9424 72.8019 88.6799 71.4646 88.3637 70.1811L85.2023 70.9963L85.0415 71.0504L84.8811 70.9975L75.9622 65.6253L75.6419 65.4125L75.911 65.0367L77.5268 62.461C78.0654 61.6025 78.604 60.7439 79.196 59.9386C80.3265 58.2748 81.4571 56.6111 82.6409 55.0006L82.8022 54.8394L82.963 54.7852L86.3914 54.1296C86.2889 52.9524 86.2401 51.7214 86.1376 50.5441L86.1384 50.33L86.2996 50.1687C87.5902 48.6649 88.9344 47.1073 90.2249 45.6035C90.8702 44.8516 91.5688 44.153 92.2141 43.4011L94.2565 41.252L94.5789 40.9296L94.8456 41.1962L102.418 48.5542L102.525 48.6609L102.524 48.875L102.459 51.9265C103.905 51.8674 105.243 51.8087 106.635 51.8033L106.635 51.6962L107.438 51.6396C107.483 53.9413 107.528 56.2429 107.626 58.4908L107.679 58.6512L107.572 58.7586C106.819 59.511 106.174 60.37 105.475 61.1756L105.206 61.4443L104.886 61.2314L102.057 58.9405L101.951 58.8339L101.898 58.6735L101.794 57.8174C100.402 57.9298 99.0095 58.0422 97.6173 58.1547C97.6673 59.0645 97.7706 60.0276 97.8207 60.9374L105.666 67.1703L106.365 66.2575L107.118 65.3982L108.623 63.6794C109.107 63.0887 109.591 62.498 110.129 61.9606L111.688 60.2952C111.639 59.0642 111.536 57.8869 111.541 56.6021L112.291 56.5992C112.339 57.9373 112.388 59.1683 112.49 60.4527L112.543 60.613L112.435 60.7205L110.769 62.4934C110.231 63.1379 109.747 63.7286 109.156 64.3197C108.134 65.5548 107.059 66.7366 106.091 68.0251L105.875 68.3471L105.555 68.1342L97.2291 61.6356L97.1225 61.529L97.0696 61.3686C96.9662 60.4054 96.9166 59.3886 96.867 58.3717C95.5281 58.5374 94.1355 58.7569 92.7429 58.9764C92.8446 60.3678 93.0533 61.7588 93.155 63.1502L96.2615 62.71L96.4223 62.6558L96.5289 62.7625L104.802 69.1007L105.122 69.3136L104.907 69.6356C104.422 70.3333 103.885 70.8707 103.4 71.5685L102.001 73.608L100.601 75.6476L99.3085 77.6867L99.201 77.7942L99.0402 77.8483L96.1475 78.3948C96.4116 79.3038 96.7291 80.2661 96.9932 81.1751L97.0461 81.3355L96.992 81.4963C95.3753 84.2861 93.919 87.1288 92.6232 90.0245L92.4611 90.3998L92.087 90.2407L82.4146 85.942L82.2542 85.8891L82.2013 85.7287C81.8301 84.8201 81.5659 83.9111 81.2485 82.9488C79.9083 83.4357 78.6215 83.976 77.3347 84.5163C77.8647 85.906 78.3413 87.2424 78.8179 88.5788L81.606 87.3904L81.7668 87.3363L81.9272 87.3892L91.4934 91.4741L91.8675 91.6333L91.7055 92.0086L90.7332 94.2607L89.8681 96.5123L89.0029 98.7639C88.7322 99.5679 88.5151 100.318 88.2448 101.015L88.1907 101.176L88.0299 101.23L85.3484 102.525C85.827 103.326 86.359 104.181 86.8377 104.982L86.9444 105.088L86.8902 105.249C85.9684 108.304 85.3141 111.411 84.7131 114.572L84.6581 114.947L84.2836 114.895L73.8522 113.061L73.6919 113.008L73.5852 112.902C73.0532 112.047 72.4674 111.247 71.9892 110.338C70.8086 111.092 69.7347 111.953 68.6074 112.76C69.4056 113.989 70.2043 115.11 71.0562 116.284L73.5257 114.454L73.6332 114.347L73.7935 114.4L84.1182 116.127L84.4928 116.179L84.4378 116.554L84.0538 118.964L83.7768 121.374L83.4999 123.784L83.33 126.193L83.2759 126.354L83.1684 126.462L80.8593 128.344C81.5525 129.037 82.2458 129.73 82.939 130.424L83.0456 130.53L83.0452 130.637C82.9258 133.85 82.9671 137.008 83.1155 140.166L83.1676 140.54L82.7394 140.542L72.1377 141.225L71.9236 141.226L71.817 141.119C71.07 140.48 70.3235 139.733 69.6302 139.04C68.6626 140.114 67.8557 141.134 66.888 142.209C67.9549 143.168 69.0218 144.128 70.0354 145.034L71.9716 142.671L72.0791 142.563L72.2398 142.509L82.6278 141.72L83.0027 141.665L83.0548 142.039C83.1052 142.842 83.1557 143.645 83.2061 144.448L83.4645 146.855L83.7228 149.263L84.0883 151.671L84.1412 151.831L84.0337 151.939L82.2046 154.301C83.0057 154.78 83.8601 155.312 84.7145 155.844L84.8749 155.897L84.9278 156.057C85.5582 159.159 86.4028 162.261 87.301 165.309L87.4069 165.629L87.0315 165.791L76.902 168.989L76.7412 169.043L76.5808 168.99C75.7797 168.511 74.8715 168.033 74.0704 167.554C73.3697 168.788 72.7762 170.022 72.1288 171.309C73.3574 172 74.6396 172.638 75.8148 173.275L77.2174 170.486L77.2715 170.326L77.4323 170.271L87.4015 167.021L87.7768 166.859L87.8827 167.18C88.1472 167.982 88.3585 168.731 88.6768 169.479L89.5246 171.724L90.3724 173.969L91.3273 176.213L91.3802 176.374L91.3261 176.535L90.1381 179.216C90.9933 179.533 92.0094 179.797 92.9184 180.061L93.0788 180.114L93.1317 180.275C94.5123 183.16 96.0005 185.938 97.6494 188.662L97.8623 188.982L97.5403 189.197L88.4723 194.746L88.3115 194.8L88.1511 194.747C87.1883 194.537 86.2794 194.273 85.317 193.955C84.9372 195.295 84.6643 196.634 84.3911 198.08C85.835 198.45 87.1718 198.819 88.5624 199.135L89.2163 196.135L89.2705 195.974L89.378 195.866L98.2319 190.319L98.5539 190.103L98.7668 190.424L100.044 192.453L101.428 194.482L102.812 196.511C103.291 197.205 103.77 197.792 104.303 198.432L104.41 198.539L104.356 198.699L103.916 201.592C104.879 201.695 105.789 201.745 106.806 201.795L106.966 201.848L107.073 201.954C108.139 203.128 109.098 204.409 110.218 205.529L113.47 208.996C113.576 209.102 113.63 209.156 113.736 209.262L113.467 209.531L105.944 217.054L105.837 217.162L105.623 217.162L102.679 217.013C102.674 218.298 102.669 219.69 102.717 221.028L101.803 222.048ZM93.7867 218.653C94.4261 219.4 95.1727 220.147 95.8122 220.894L96.8291 220.943C96.8348 219.445 96.8402 218.053 96.7922 216.608L95.9895 216.557L93.7867 218.653ZM102.45 207.111C101.058 207.009 99.6668 206.908 98.3291 206.752C97.8831 211.357 97.5433 216.177 97.6318 220.994C99.077 221.042 100.468 221.144 101.913 221.192C101.869 218.783 101.932 216.374 101.941 214.018L102.001 212.252L102.115 210.538C102.28 209.413 102.338 208.289 102.45 207.111ZM103.664 211.442L105.921 209.292C105.281 208.652 104.748 207.905 104.162 207.211L103.252 207.161C103.14 208.554 103.027 209.946 102.915 211.338C103.182 211.391 103.397 211.39 103.664 211.442ZM105.572 216.36L112.773 209.266L109.681 205.959C108.668 204.839 107.709 203.665 106.696 202.545C104.609 202.499 102.629 202.239 100.542 202.086C98.5085 201.88 96.3147 201.621 94.2822 201.201C94.0627 202.593 93.7899 203.933 93.6775 205.325C95.55 205.585 97.3155 205.846 99.0814 206C100.794 206.207 102.72 206.307 104.433 206.407L104.593 206.46L104.7 206.567C105.393 207.367 106.032 208.221 106.778 208.968L107.045 209.234L106.776 209.503L104.144 212.029L104.036 212.137L103.822 212.138L102.912 212.088C102.853 213.426 102.848 214.818 102.789 216.156L105.572 216.36ZM98.5684 200.221L96.9715 197.871L94.5025 199.594L94.3384 200.504C95.7294 200.713 97.0133 200.922 98.4043 201.131L98.5684 200.221ZM103.713 198.809C103.233 198.222 102.754 197.635 102.328 196.994L100.997 195.126L99.6659 193.257C99.2401 192.617 98.8681 191.922 98.4423 191.281L90.0712 196.56C89.3094 199.774 88.8154 202.935 88.3206 206.309L88.2665 206.47L88.159 206.577L85.2067 208.676L84.8847 208.892L84.6185 208.518L82.5426 205.475L82.4359 205.368L82.4901 205.207C82.5455 204.725 82.6542 204.297 82.7096 203.815C81.3727 203.445 79.9822 203.129 78.592 202.706L78.0443 205.92C78.523 206.721 79.0554 207.469 79.6412 208.27L81.238 210.619C82.3024 212.221 83.421 213.662 84.5929 215.156L92.3783 209.077C92.5453 207.417 92.7656 205.81 92.9326 204.15C93.2066 202.489 93.4803 200.936 93.7543 199.276L93.8085 199.115L93.9159 199.007L96.8678 197.015L97.1898 196.8L97.4027 197.12L99.3191 199.896L99.4257 200.003L99.3716 200.164L99.1537 201.128C100.491 201.284 101.829 201.439 103.167 201.488L103.713 198.809ZM85.0497 207.767L87.5724 205.991L87.7369 204.973C86.3464 204.657 84.9021 204.395 83.5115 204.079L83.3462 205.311L85.0497 207.767ZM77.4899 196.983L77.3295 196.93L77.2766 196.77L75.5227 193.511L75.3635 193.137L75.6856 192.922L78.8507 191.143L79.0115 191.089L79.1719 191.142C79.4927 191.247 79.7064 191.354 80.0271 191.459C80.407 190.12 80.8406 188.726 81.2738 187.44L78.6014 186.38L69.4846 190.697L71.9276 195.72L74.6923 200.634C76.8844 201.321 79.1302 201.955 81.269 202.589C82.3921 202.852 83.4615 203.169 84.5313 203.379L87.794 204.063C88.0135 202.67 88.233 201.277 88.452 199.992C86.6336 199.571 84.8152 199.149 82.9972 198.621C82.0882 198.357 81.1255 198.147 80.2165 197.882L77.4899 196.983ZM76.3792 193.508L77.8677 196.178L78.723 196.496C79.1033 195.05 79.4298 193.657 79.7564 192.263L79.0078 192.052L76.3792 193.508ZM87.5487 184.364C86.2657 183.941 84.8755 183.518 83.5391 183.042C82.7814 185.186 82.0233 187.437 81.3185 189.742C80.6137 192.046 80.016 194.35 79.5249 196.761L81.5566 197.395L83.6421 197.976C84.0794 195.619 84.7309 193.261 85.3819 191.011C85.7076 189.832 86.033 188.76 86.412 187.634C86.7911 186.509 87.1701 185.383 87.5487 184.364ZM87.6389 188.754L90.3212 187.244C89.8425 186.443 89.4709 185.642 89.0993 184.84L88.3507 184.629C87.9175 185.915 87.3768 187.309 87.0507 188.595L87.6389 188.754ZM88.261 193.997L96.9529 188.825C95.4106 186.208 93.9754 183.59 92.7014 180.812C91.739 180.494 90.723 180.23 89.7607 179.913L86.8204 178.907L83.8805 177.794L82.4374 177.211L80.9943 176.628C80.4008 177.861 79.9142 179.094 79.4273 180.435C81.0841 181.124 82.7946 181.76 84.4514 182.449C86.1619 183.085 87.8728 183.614 89.5304 184.089L89.6908 184.142L89.7437 184.303L90.4341 185.745L91.1781 187.134L91.391 187.454L91.069 187.67L87.9572 189.502L87.7964 189.556L87.636 189.503L86.8341 189.239C86.4542 190.578 86.128 191.864 85.7482 193.204C86.4964 193.522 87.3516 193.84 88.261 193.997ZM85.4906 176.718C85.0656 175.863 84.8015 174.954 84.4303 174.045L81.6425 175.127L81.2647 175.931C82.5474 176.461 83.723 176.992 85.0594 177.469L85.4906 176.718ZM90.6837 176.537L89.7284 174.399L88.9339 172.208C88.3506 170.765 87.8207 169.375 87.3982 167.878L78.0181 171.072L76.8855 173.271C76.5614 174.022 76.2373 174.773 75.9132 175.523C75.2651 177.025 74.5632 178.58 73.9684 180.134L73.9142 180.295L73.7534 180.349L70.3758 181.701L70.0004 181.863L69.8413 181.489L68.5164 178.014L68.4635 177.854L68.5177 177.693L69.0042 176.46C67.829 175.822 66.6004 175.131 65.3719 174.44L64.0756 177.443C64.6576 179.207 65.3468 180.971 66.0358 182.734C66.3537 183.59 66.7249 184.498 67.0966 185.3L68.2106 187.919L77.2728 183.869C77.8677 182.314 78.4625 180.759 79.0036 179.259C79.6517 177.757 80.2999 176.256 80.948 174.754L81.0022 174.594L81.163 174.54L84.4869 173.242L84.8622 173.08L85.0214 173.454C85.4455 174.523 85.7625 175.592 86.2404 176.608L86.2933 176.768L86.2392 176.929L85.8076 177.787C87.037 178.264 88.3201 178.687 89.4961 179.111L90.6837 176.537ZM70.4332 180.683L73.2747 179.548L73.6529 178.637C72.3707 177.999 71.0884 177.362 69.8061 176.725L69.3738 177.797L70.4332 180.683ZM65.7696 168.496L65.6092 168.444L65.5563 168.283L64.6063 164.754L64.5009 164.326L64.9296 164.217L68.4663 163.24L68.6271 163.186L68.7338 163.293C69.0008 163.452 69.2679 163.612 69.5349 163.771C70.2356 162.537 70.9895 161.357 71.6902 160.123L69.3947 158.472L59.5372 160.544C59.9584 162.363 60.3259 164.235 60.7471 166.053L62.1716 171.454C66.1234 173.902 69.9694 176.028 74.0303 177.939C74.5706 176.653 75.1109 175.366 75.7045 174.132C74.0481 173.336 72.3921 172.432 70.7899 171.475L68.2795 170.039L65.7696 168.496ZM65.5161 164.804L66.3077 167.745L67.1089 168.224C67.8099 166.883 68.4572 165.595 69.1579 164.362L68.5172 163.936L65.5161 164.804ZM78.5479 158.598C77.3731 157.853 76.1983 157.108 75.0235 156.363C73.7314 158.295 72.4925 160.28 71.2533 162.373C70.014 164.465 68.8818 166.557 67.7492 168.756C68.9773 169.555 70.2058 170.246 71.5414 170.937C72.567 168.738 73.6992 166.646 74.8847 164.607C75.4775 163.588 76.0702 162.568 76.663 161.549C77.3091 160.583 77.9018 159.564 78.5479 158.598ZM77.5679 162.884L80.5152 162.069L80.1989 160.786L79.9364 159.449L79.2957 159.023C78.5417 160.204 77.7878 161.384 77.0338 162.565L77.5679 162.884ZM76.9048 168.239L86.5516 165.312C85.7063 162.424 84.9146 159.483 84.2838 156.488C83.4294 155.956 82.5212 155.477 81.6135 154.892L79.0506 153.189C77.3421 152.018 75.5266 150.847 73.9256 149.569C73.065 150.643 72.2577 151.77 71.5041 152.843C72.9989 153.908 74.4403 154.92 75.8817 155.931C77.3768 156.889 78.9253 157.9 80.4209 158.751L80.5813 158.804L80.6342 158.964L81.0029 160.515L81.3717 162.066L81.4775 162.387L81.0488 162.496L77.5654 163.526L77.4046 163.58L77.2442 163.527L76.4964 163.102C75.8495 164.282 75.0955 165.463 74.5019 166.696C75.356 167.335 76.1037 167.761 76.9048 168.239ZM78.3644 150.676C78.2073 149.766 78.1039 148.803 78.0006 147.84L75.0549 148.226L74.5171 148.871C75.5844 149.723 76.7055 150.522 77.8266 151.32L78.3644 150.676ZM83.4992 151.727L83.1334 149.426L82.8746 147.125C82.72 145.574 82.5116 144.076 82.4108 142.47L72.5581 143.257L70.9985 145.137C70.4607 145.781 70.03 146.425 69.4922 147.07C68.47 148.412 67.5015 149.701 66.5325 151.096L66.4251 151.204L66.2643 151.258L62.6758 151.753L62.3009 151.808L62.2492 151.327L61.7817 147.635L61.7825 147.421L61.89 147.313L62.6435 146.24C61.63 145.334 60.6701 144.374 59.6032 143.414L57.6124 146.045C57.7658 147.918 58.0262 149.791 58.2334 151.61L58.4421 153.001L58.6509 154.392L59.0684 157.174L68.8177 155.423C69.7866 154.028 70.7018 152.686 71.617 151.344C72.5855 150.056 73.6077 148.714 74.5762 147.425L74.6837 147.318L74.8445 147.263L78.3792 146.822L78.7541 146.767L78.8062 147.141C78.9625 148.265 79.0117 149.389 79.275 150.512L79.3279 150.672L79.2204 150.78L78.5752 151.531C79.6429 152.277 80.7644 152.968 81.8321 153.714L83.4992 151.727ZM62.8395 150.95L65.8922 150.563L66.4842 149.758C65.3635 148.852 64.2966 147.893 63.176 146.987L62.4766 147.9L62.8395 150.95ZM61.2306 137.841L61.1239 137.734L61.1248 137.52C61.076 136.289 61.0272 135.058 61.0855 133.827L61.0871 133.399L61.5154 133.397L65.1559 133.276L65.37 133.275L65.4767 133.382L66.1162 134.129C67.0835 133.161 68.1045 132.14 69.0717 131.173L67.2066 128.985L57.1444 128.596L56.9622 134.217L57.1011 139.838C60.3539 143.09 63.5538 146.183 67.0224 149.007C67.8834 147.826 68.744 146.752 69.5513 145.624C68.1107 144.399 66.7772 143.173 65.337 141.84C64.6438 141.147 63.8968 140.507 63.2569 139.867L61.2306 137.841ZM61.8866 134.305L61.9284 137.357L62.6216 138.05C63.5893 136.975 64.5574 135.794 65.5246 134.827L64.9381 134.24L61.8866 134.305ZM76.03 131.36C75.0701 130.4 74.164 129.387 73.1508 128.374C71.4854 129.933 69.7662 131.545 68.0999 133.318C66.3803 135.038 64.8211 136.81 63.2082 138.636L64.7013 140.129L66.2481 141.569C67.754 139.743 69.4203 137.97 70.9795 136.198C71.8393 135.338 72.592 134.478 73.3981 133.672C74.3108 132.973 75.1168 132.167 76.03 131.36ZM74.0338 135.383L77.1391 135.264C77.089 134.354 77.1461 133.444 77.1494 132.587L76.5628 132.001C75.5422 132.915 74.5212 133.936 73.5539 134.903L74.0338 135.383ZM72.1411 140.368L82.207 139.794C82.0581 136.744 82.0164 133.693 82.135 130.694C81.3884 129.948 80.6952 129.255 79.9487 128.508L77.8698 126.214C76.4838 124.721 75.0449 123.067 73.7663 121.466L72.1554 122.757L70.5978 124.101C71.7702 125.488 72.9425 126.876 74.1686 128.209C75.3946 129.543 76.6744 130.823 77.9009 132.049L78.0075 132.156L77.9534 132.316L77.9472 133.922L77.941 135.528L77.9931 135.903L77.5648 135.904L73.9776 136.079L73.7635 136.08L73.6568 135.973L73.0169 135.333C72.0497 136.3 71.1357 137.321 70.2218 138.342C70.8075 139.142 71.4474 139.782 72.1411 140.368ZM77.7194 123.592C77.8301 122.628 77.9409 121.664 78.105 120.753L75.1622 120.39L74.4641 120.981C75.3164 122.049 76.1688 123.116 77.0749 124.13L77.7194 123.592ZM82.421 125.929C82.4776 125.126 82.4805 124.377 82.5905 123.627L82.867 121.324L83.1435 119.021C83.2535 118.271 83.4172 117.468 83.5271 116.718L73.7907 115.149C71.1067 117.087 68.6364 119.13 66.0049 121.335L65.8974 121.443L65.737 121.39L62.1519 121.029L61.7774 120.977L61.8328 120.495L62.3288 116.799L62.3296 116.585L62.4371 116.478L63.511 115.617C62.7661 114.442 61.9675 113.321 61.2226 112.146L58.7523 114.19C58.2026 117.939 57.7065 121.635 57.5317 125.329L67.379 125.934C68.6145 124.805 69.8501 123.676 71.0852 122.654C72.3741 121.578 73.6092 120.557 74.8977 119.588L75.0052 119.481L75.1655 119.533L78.697 119.948L79.0715 120L79.0165 120.375C78.8515 121.5 78.6866 122.625 78.6288 123.749L78.5746 123.91L78.4671 124.017L77.6082 124.663C78.5143 125.677 79.4204 126.69 80.3269 127.597L82.421 125.929ZM62.6368 120.224L65.6866 120.587L66.4385 119.942C65.5866 118.767 64.7879 117.646 63.936 116.472L63.0766 117.225L62.6368 120.224ZM64.186 107.157L64.1331 106.996L64.1872 106.836C64.4596 105.603 64.6783 104.425 65.0041 103.246L65.1128 102.817L65.4873 102.869L69.0708 103.658L69.2312 103.711L69.2841 103.872L69.7623 104.78C70.9429 104.026 72.1235 103.272 73.3036 102.625L72.0288 100.06L62.4039 97.314L60.9377 102.726L59.6853 108.245C60.8018 110.221 62.0791 112.143 63.3031 114.012C64.5271 115.881 65.8048 117.696 67.1363 119.457C68.2639 118.543 69.3379 117.682 70.4118 116.822C68.2292 113.672 66.047 110.415 64.186 107.157ZM65.6443 103.779L64.9904 106.779L65.5224 107.633C66.7034 106.772 67.9377 105.965 69.1187 105.104L68.6934 104.356L65.6443 103.779ZM80.042 104.312C79.4041 103.137 78.6592 101.962 77.9681 100.734C75.9298 101.812 73.9444 103.051 71.8519 104.29C69.8128 105.583 67.8807 106.875 65.8945 108.328L66.9581 110.144C67.3305 110.731 67.7563 111.372 68.1287 111.959C70.0079 110.507 72.047 109.214 74.0328 107.868C74.9989 107.222 75.9649 106.576 76.9843 105.983C77.9499 105.444 78.9693 104.851 80.042 104.312ZM77.1918 107.695L80.1871 108.326C80.3512 107.416 80.6219 106.612 80.8931 105.701L80.4677 104.953C79.2876 105.6 77.9999 106.354 76.8731 107.054L77.1918 107.695ZM74.1234 112.15L84.0194 113.986C84.3464 112.486 84.6734 110.985 85.0003 109.485L85.2723 108.36L85.5976 107.288L86.1949 105.091C85.6629 104.237 85.0776 103.329 84.5993 102.421L83.1108 99.7501C82.1542 97.9338 81.091 96.0108 80.2953 94.1403L78.4182 95.0576L76.5944 96.0281C77.391 97.6845 78.2413 99.2871 79.0383 100.836C79.8886 102.439 80.7926 103.988 81.7504 105.483L81.8033 105.644L81.7492 105.804L81.3685 107.358C81.2593 107.894 81.1502 108.43 80.9878 108.912L80.9328 109.287L80.5583 109.235L76.9744 108.553L76.814 108.5L76.7073 108.393L76.2287 107.592C75.1018 108.292 73.9213 109.046 72.794 109.854C73.166 110.548 73.591 111.403 74.1234 112.15ZM83.5489 97.179C83.8734 96.3212 84.2516 95.4098 84.5228 94.4987L81.7433 93.4388L80.8852 93.8704C81.4693 95.0993 82.0534 96.3283 82.6375 97.5572L83.5489 97.179ZM87.5508 100.536C87.7678 99.7857 88.0381 99.0888 88.2551 98.3385L89.1199 96.194L89.9313 93.9961C90.2016 93.2992 90.5257 92.5485 90.8494 91.9049L81.764 88.0857C78.6546 89.2754 75.8119 90.7316 72.7013 92.2425L72.5405 92.2966L72.3801 92.2437L68.9587 91.0792L68.5846 90.9201L68.7466 90.5448L70.0983 87.0601L70.1525 86.8993L70.3132 86.8451C70.7423 86.6293 71.1714 86.4136 71.6005 86.1978C71.1239 84.8614 70.6472 83.5249 70.2243 82.1348L67.2212 83.5382C65.7625 87.0233 64.4641 90.5613 63.3261 94.1522L72.7361 97.1136C74.1845 96.3051 75.6863 95.5499 77.081 94.7951C78.5827 94.0398 80.0841 93.3917 81.5321 92.6902L81.6929 92.6361L81.8533 92.689L85.1672 93.9609L85.5413 94.1201L85.3793 94.4954C84.9469 95.5677 84.5683 96.5862 84.1892 97.7118L84.1351 97.8726L83.9743 97.9268L83.0091 98.3587C83.6469 99.5339 84.2847 100.709 84.9226 101.884L87.5508 100.536ZM69.6573 90.3807L72.5438 91.4401L73.5628 90.9544C73.0324 89.6718 72.4487 88.3357 71.9188 86.946L70.7923 87.5392L69.6573 90.3807ZM74.3626 77.89L74.3096 77.7296L74.3638 77.5688C74.9032 76.4961 75.4431 75.3163 75.9825 74.2436L76.1983 73.8146L76.5724 73.9737L79.8314 75.6206L79.9918 75.6735L80.0447 75.8339L80.3088 76.7429C81.649 76.256 82.9887 75.8761 84.3284 75.4962L83.6968 72.7151L75.0441 67.7165L72.2415 72.6521L69.7597 77.6936C70.3934 79.9394 71.1879 82.1311 71.8758 84.2161C72.6169 86.3545 73.4119 88.4391 74.3138 90.5233C75.5473 89.9297 76.8345 89.2824 78.068 88.6888C77.3789 86.9249 76.7432 85.2144 76.1616 83.3431C75.8974 82.4341 75.5262 81.5255 75.2621 80.6165L74.3626 77.89ZM76.622 74.9906L75.2732 77.7258L75.5373 78.6348C76.9312 78.0942 78.2714 77.6072 79.6115 77.1203L79.4003 76.3717L76.622 74.9906ZM90.4711 78.952C90.1015 77.6151 89.732 76.2783 89.3624 74.9415C87.1654 75.5388 84.8608 76.2436 82.5563 76.9483C80.2518 77.6531 78.0535 78.5716 75.7482 79.4905L76.3827 81.5222L77.0706 83.6073C79.2155 82.6354 81.5738 81.8769 83.7716 81.0655C84.8972 80.6864 85.9695 80.2541 87.0947 79.9821C88.2203 79.603 89.3459 79.224 90.4711 78.952ZM86.8748 81.4818L89.5997 82.8095C89.9775 82.0051 90.4624 81.2003 90.8936 80.4492L90.6823 79.7006C89.3426 80.0805 87.9496 80.407 86.6632 80.8402L86.8748 81.4818ZM82.8461 85.0838L91.9837 89.2775C93.3325 86.5423 94.6813 83.807 96.1905 81.1247C95.873 80.1624 95.5555 79.2 95.2918 78.184L94.5002 75.2429L93.7623 72.248L93.3935 70.697L93.1319 69.1457C91.7926 69.4185 90.4533 69.6913 89.1673 70.0174C89.5352 71.7825 89.9031 73.5476 90.3781 75.3123C90.853 77.0769 91.3817 78.7879 91.8571 80.4455L91.91 80.6059L91.8559 80.7667L91.1011 82.1614C90.8316 82.6442 90.6691 83.1266 90.3996 83.6094L90.2376 83.9847L89.8635 83.8256L86.604 82.2858L86.4437 82.2329L86.3907 82.0725L86.1262 81.2705C84.8398 81.7037 83.5534 82.1369 82.2133 82.6239C82.3174 83.3729 82.5283 84.2286 82.8461 85.0838ZM95.5799 72.8834C96.0647 72.0785 96.6567 71.2733 97.1949 70.5218L94.7391 68.8183L93.8821 68.9287C94.1446 70.2659 94.4071 71.6032 94.7767 72.94L95.5799 72.8834ZM98.6686 77.0468L99.9074 75.0614L101.253 73.1827C102.168 71.9479 102.976 70.6066 103.998 69.3714L96.1515 63.4598L93.6878 63.7905L91.2771 64.2816C89.6699 64.6089 88.0627 64.9363 86.4018 65.3174L86.241 65.3716L86.1344 65.2649L83.1445 63.2423L82.8241 63.0294L83.0932 62.6537L85.1927 59.5944L85.3002 59.4869L85.461 59.4327L86.8003 59.1599C86.6448 57.8222 86.5431 56.4309 86.4414 55.0395L83.2271 55.6942C82.1507 57.1972 81.0739 58.8073 79.9975 60.3103C79.4593 61.0618 78.9744 61.8666 78.4895 62.6714L76.9816 65.0326L85.3659 70.1927C86.9735 69.7582 88.5811 69.3238 90.1883 68.9964C91.7955 68.6691 93.4026 68.3417 95.0098 68.0143L95.1706 67.9601L95.2773 68.0668L98.1601 70.0898L98.4805 70.3027L98.2651 70.6247C97.619 71.5908 96.9196 72.5035 96.3272 73.4158L96.2731 73.5766L96.1123 73.6307L95.1483 73.7415C95.4645 75.025 95.7808 76.3085 96.1507 77.5383L98.6686 77.0468ZM83.8422 62.7578L86.4051 64.4609L87.3695 64.2431C87.1608 62.8521 86.952 61.4611 86.7436 59.9631L85.6185 60.2351L83.8422 62.7578ZM91.325 51.8623L91.3258 51.6482L91.4333 51.5407L93.8531 48.6943L94.1755 48.3719L94.4422 48.6385L97.2167 50.9831L97.3233 51.0898L97.3225 51.3039L97.3188 52.2675C98.6577 52.1017 100.103 52.0426 101.495 51.9302L101.56 49.0928L94.3603 42.1081L92.4253 44.1497C91.7805 44.7946 91.1352 45.5465 90.5437 46.2447L86.887 50.5412C87.1367 55.1974 87.4943 59.639 88.2268 64.0257C89.6199 63.6991 90.9592 63.4263 92.2985 63.1535C92.0381 61.2809 91.831 59.4617 91.7313 57.535C91.5242 55.7158 91.3175 53.7895 91.325 51.8623ZM94.1706 49.6566L92.181 51.9661L92.2311 52.8759C93.677 52.7098 95.123 52.5436 96.569 52.3774L96.5718 51.628L94.1706 49.6566ZM106.669 56.7815C106.621 55.4434 106.573 53.9983 106.578 52.6065C104.276 52.6689 101.867 52.7317 99.4576 52.9016C97.1014 53.1248 94.6914 53.4017 92.2815 53.6787C92.3295 55.1238 92.4845 56.5685 92.5858 58.067C93.7643 57.8483 94.9424 57.7367 96.1209 57.5181C97.299 57.4065 98.5308 57.2411 99.6552 57.1833C102.011 56.9601 104.314 56.7906 106.669 56.7815ZM102.541 58.4569L104.889 60.3749C105.48 59.6767 106.072 58.9786 106.717 58.3337L106.666 57.5309C105.274 57.5363 103.882 57.6487 102.49 57.7612L102.541 58.4569Z" fill="#C21F81"/>
<path fill-rule="evenodd" clip-rule="evenodd" d="M267.737 201.497C302.925 160.728 301.173 99.0856 262.482 60.3944C223.791 21.7033 162.149 19.9516 121.379 55.1393L100.121 33.8811C152.65 -12.9962 233.285 -11.2295 283.695 39.1812C334.106 89.592 335.873 170.226 288.995 222.755L267.737 201.497Z" fill="#C21F81"/>
</svg>
