<svg width="323" height="323" viewBox="0 0 323 323" fill="none" xmlns="http://www.w3.org/2000/svg">
<path fill-rule="evenodd" clip-rule="evenodd" d="M267.782 201.545C303.011 160.776 301.272 99.1021 262.567 60.3964C223.861 21.6906 162.187 19.9522 121.418 55.1811L100.16 33.9236C152.688 -12.9953 233.355 -11.2421 283.78 39.1832C334.205 89.6085 335.958 170.275 289.039 222.803L267.782 201.545Z" fill="#C5D92D"/>
<path d="M276.96 221.396C276.907 223.385 276.745 225.48 276.584 227.469L276.584 227.684L276.477 227.791C276.047 228.221 275.617 228.651 275.133 229.027L273.736 230.209L273.414 230.532L273.145 230.263L270.673 227.576L270.566 227.469L270.619 227.307L270.727 226.34C269.383 226.286 267.933 226.233 266.643 226.125C266.535 227.093 266.428 228.06 266.267 228.973L272.608 236.819C275.456 234.401 278.411 231.983 281.044 229.349C281.152 228.06 281.259 226.878 281.313 225.642L282.119 226.448L281.904 229.457L281.904 229.672L281.743 229.833C278.841 232.627 275.832 235.207 272.715 237.786L272.339 238.055L272.124 237.733L265.461 229.349L265.353 229.242L265.407 229.081C265.568 228.06 265.729 227.146 265.837 226.072C264.44 225.964 263.042 225.857 261.645 225.642C261.484 226.985 261.269 228.382 261.108 229.726L264.225 230.048L264.386 230.102L264.493 230.209L270.942 238.485L271.157 238.807L270.781 239.076L268.362 240.957C267.556 241.548 266.75 242.139 265.89 242.676C264.225 243.805 262.612 244.987 260.893 246.062L260.732 246.116L260.57 246.062L257.239 245.524C256.863 246.653 256.594 247.781 256.164 248.856L256.11 249.017L255.949 249.071C254.229 250.038 252.456 251.059 250.683 251.973L245.309 254.66L244.879 254.875L244.718 254.499L240.258 244.772L240.204 244.611L240.258 244.45C240.634 243.536 241.064 242.569 241.386 241.602C240.096 241.172 238.753 240.688 237.41 240.204C236.926 241.44 236.442 242.676 235.905 243.966L238.968 245.095L239.129 245.148L239.183 245.31L243.482 254.875L243.643 255.251L243.213 255.466C241.386 256.218 239.559 257.078 237.678 257.777L234.884 258.851L233.487 259.389L232.036 259.872L231.875 259.926L231.713 259.872L228.489 258.475C227.898 259.496 227.253 260.571 226.608 261.538L226.501 261.646L226.34 261.699C224.405 262.237 222.471 262.774 220.536 263.204L214.625 264.494L213.98 264.709L213.926 264.333L211.938 253.854L211.884 253.693L211.992 253.585C212.583 252.779 213.174 251.973 213.765 251.167C212.583 250.415 211.401 249.662 210.272 248.856C209.52 249.931 208.714 251.059 207.854 252.134L210.541 253.961L210.648 254.069L210.702 254.23L212.529 264.548L212.583 264.924L212.099 264.977C210.165 265.3 208.176 265.676 206.134 265.891L203.179 266.267L201.728 266.428L200.223 266.536L200.008 266.536L199.901 266.428L197.16 264.333C196.3 265.192 195.441 266.052 194.635 266.858L194.527 266.966L194.312 266.966C192.324 267.019 190.336 267.073 188.293 267.073C186.305 267.019 184.263 267.019 182.329 266.912L181.845 266.858L181.845 266.428L182.382 255.788L182.382 255.573L182.49 255.466C183.296 254.875 184.048 254.122 184.801 253.478L183.403 251.973L182.006 250.361C180.985 251.274 179.91 252.134 178.889 253.048L181.039 255.412L181.146 255.52L181.093 255.681L180.394 266.16L180.394 266.59L179.91 266.536C177.922 266.375 175.88 266.267 173.892 265.998C171.904 265.73 169.915 265.569 167.927 265.192L167.766 265.139L167.658 265.031L165.509 262.344C164.542 262.989 163.52 263.58 162.499 264.171L162.338 264.225L162.177 264.171C160.243 263.741 158.254 263.365 156.32 262.828C154.385 262.291 152.397 261.807 150.516 261.216L150.086 261.108L150.194 260.678L153.31 250.468L153.364 250.307L153.525 250.253C154.439 249.877 155.352 249.394 156.266 248.91L155.245 247.137L154.278 245.31C153.095 245.954 151.859 246.545 150.57 247.19L152.074 249.985L152.128 250.146L152.074 250.307L148.958 260.302L148.796 260.678L148.367 260.571L145.518 259.657C144.551 259.335 143.638 258.959 142.67 258.636C140.79 257.938 138.909 257.239 137.082 256.379L136.92 256.326L136.867 256.165L135.416 252.994C134.287 253.37 133.159 253.746 131.977 254.069L131.815 254.122L131.654 254.069C129.881 253.155 128.054 252.295 126.28 251.382C124.561 250.415 122.734 249.447 121.068 248.426L120.692 248.158L120.907 247.835L126.388 238.7L126.442 238.539L126.603 238.485C127.57 238.27 128.591 238.001 129.558 237.786L128.967 235.798C128.806 235.099 128.591 234.455 128.43 233.756C127.14 234.078 125.797 234.347 124.453 234.616L125.206 237.733L125.259 237.894L125.206 238.055L119.724 246.975L119.509 247.298L119.133 247.029C115.694 244.987 112.416 242.676 109.192 240.312L109.031 240.151L108.977 239.99L108.332 236.55C107.15 236.658 105.914 236.712 104.678 236.765L104.463 236.765L104.302 236.604L99.7341 232.681C98.2831 231.338 96.7785 229.941 95.3813 228.543L95.0589 228.221L95.3276 227.952L102.797 220.375L102.905 220.268L103.12 220.268L106.183 220.322C106.129 218.871 106.075 217.527 106.075 216.13L105.968 216.13L105.968 215.27C108.278 215.324 110.589 215.163 112.792 215.109L112.953 215.055L113.061 215.163C113.437 215.539 113.813 215.915 114.243 216.238L115.479 217.259L115.748 217.527L115.479 217.796L113.168 220.644L113.061 220.751L112.9 220.805L112.04 220.913C112.147 222.31 112.255 223.707 112.362 225.104C113.276 225.05 114.243 225.05 115.157 224.889L121.498 217.044C119.133 215.109 116.823 213.121 114.673 210.971C113.437 211.025 112.201 211.079 110.965 211.132L111.019 210.326C112.309 210.326 113.598 210.219 114.834 210.165L114.996 210.111L115.103 210.219C116.285 211.294 117.414 212.422 118.65 213.443L120.477 215.055C121.122 215.593 121.659 216.13 122.304 216.56L122.626 216.775L122.411 217.097L115.802 225.427L115.694 225.534L115.533 225.588C114.566 225.695 113.545 225.749 112.524 225.803C112.631 227.2 112.9 228.543 113.061 229.887C114.458 229.779 115.909 229.618 117.252 229.457L116.823 226.34L116.769 226.179L116.876 226.071L123.325 217.796L123.54 217.473L123.862 217.688L125.85 219.569L127.893 220.966L129.935 222.364C130.633 222.847 131.332 223.223 131.977 223.653L132.084 223.761L132.138 223.922L132.675 226.824C133.589 226.555 134.502 226.286 135.47 225.964L135.631 225.91L135.792 225.964C137.189 226.716 138.586 227.576 140.037 228.275L144.336 230.424L144.712 230.585L144.551 230.962L140.091 240.688L140.037 240.849L139.876 240.903C138.909 241.225 137.995 241.494 137.082 241.763L137.78 243.751C138.049 244.45 138.318 245.041 138.586 245.739C139.983 245.202 141.327 244.718 142.67 244.235L141.542 241.494L141.488 241.333L141.542 241.172L145.787 231.553L145.948 231.177L146.324 231.338L148.581 232.305C149.334 232.627 150.086 232.842 150.838 233.165C152.343 233.702 153.848 234.347 155.406 234.831L155.567 234.884L155.621 235.046L156.857 237.679C157.663 237.195 158.523 236.765 159.383 236.228L159.49 236.12L159.651 236.174C161.21 236.55 162.768 237.034 164.327 237.41L169.002 238.431L169.378 238.485L169.324 238.861L167.336 249.34L167.282 249.501L167.175 249.609C166.315 250.146 165.509 250.63 164.649 251.167C165.401 252.349 166.207 253.478 167.067 254.552C168.303 253.746 169.432 252.94 170.668 252.134L168.841 249.662L168.733 249.555L168.787 249.394L170.614 239.076L170.668 238.7L171.044 238.754L173.462 239.13C174.268 239.291 175.074 239.345 175.88 239.398C177.492 239.613 179.104 239.828 180.77 239.882L180.931 239.936L181.039 240.043L182.92 242.354C183.618 241.655 184.317 241.064 184.962 240.312L185.069 240.204L185.177 240.204C186.789 240.204 188.401 240.312 189.959 240.258C191.518 240.204 193.13 240.204 194.742 240.097L195.118 240.043L195.118 240.473L195.709 251.167L195.709 251.382L195.602 251.489C194.957 252.242 194.205 252.887 193.506 253.585L195.064 255.036L196.623 256.379C197.59 255.305 198.557 254.23 199.525 253.155L197.214 251.167L197.106 251.059L197.053 250.898L196.354 240.419L196.354 239.99L196.73 239.936L199.148 239.775C199.955 239.721 200.761 239.56 201.567 239.506C203.179 239.291 204.845 239.13 206.403 238.861L206.564 238.807L206.672 238.915L208.982 240.688C209.466 239.882 210.003 239.022 210.487 238.216L210.541 238.055L210.702 238.001L213.066 237.464C213.873 237.303 214.679 237.141 215.431 236.926C216.936 236.497 218.494 236.12 220.052 235.637L220.375 235.529L220.482 235.959L223.599 246.169L223.653 246.331L223.599 246.492C223.115 247.405 222.632 248.211 222.148 249.017C223.384 249.716 224.62 250.307 225.91 250.952C226.608 249.716 227.253 248.426 227.898 247.244L225.104 245.847L224.942 245.793L224.889 245.632L221.718 235.691L221.557 235.314L221.879 235.207L224.244 234.455C225.05 234.186 225.802 233.863 226.501 233.595C228.059 233.004 229.564 232.466 231.015 231.768L231.176 231.714L231.337 231.768L234.024 232.95C234.293 232.036 234.669 231.123 234.884 230.156L234.938 229.994L235.099 229.941C236.496 229.188 238.001 228.543 239.398 227.791L243.589 225.427L243.912 225.212L244.127 225.534L249.501 234.67L249.554 234.831L249.501 234.992C249.286 235.959 248.963 236.819 248.641 237.786L250.683 238.324L252.725 238.754C253.101 237.303 253.477 235.959 253.8 234.562L250.79 233.917L250.629 233.863L250.575 233.702L245.094 224.782L244.879 224.459L245.202 224.244C246.599 223.385 247.996 222.525 249.286 221.558C250.575 220.59 251.972 219.73 253.208 218.709L253.316 218.602L253.477 218.656L256.325 219.139C256.433 218.172 256.486 217.259 256.54 216.238L256.594 216.076L256.701 215.969L260.356 212.852L263.848 209.574L264.117 209.305L264.386 209.574L271.855 217.151L271.963 217.259L271.963 217.474L271.802 220.429C273.091 220.429 274.488 220.429 275.778 220.429L276.853 221.504L276.96 221.396ZM273.467 229.403L274.65 228.436L275.778 227.415L275.832 226.394C274.327 226.394 272.93 226.394 271.479 226.34L271.425 227.146L273.467 229.403ZM261.968 220.698L261.806 222.794C261.753 223.492 261.645 224.137 261.591 224.836L263.365 224.997L265.138 225.158C266.32 225.265 267.449 225.319 268.685 225.373C269.921 225.427 271.103 225.534 272.285 225.534C273.467 225.534 274.65 225.534 275.886 225.48C275.939 224.029 276.047 222.632 276.101 221.181C273.682 221.235 271.264 221.181 268.954 221.128C266.643 221.074 264.278 220.859 261.968 220.698ZM266.267 219.516L264.117 217.259L262.021 219.032L261.968 219.945C263.365 220.053 264.762 220.16 266.159 220.268L266.267 219.516ZM271.318 217.581L264.225 210.38C263.096 211.401 262.021 212.476 260.893 213.497L257.4 216.452C257.292 218.495 257.078 220.537 256.809 222.632C256.701 223.707 256.54 224.728 256.433 225.803L255.895 228.92C257.239 229.188 258.636 229.403 260.033 229.618C260.57 225.964 261.054 222.364 261.215 218.763L261.269 218.602L261.377 218.495L263.795 216.399L264.063 216.13L264.332 216.399L266.858 219.032L266.965 219.139L266.965 219.354C266.965 219.677 266.965 219.999 266.911 220.268C268.255 220.322 269.598 220.375 270.996 220.375L271.318 217.581ZM254.982 224.567L252.617 226.179L254.337 228.651L255.25 228.812C255.519 227.469 255.734 226.072 255.895 224.728L254.982 224.567ZM253.638 219.462C252.456 220.429 251.113 221.235 249.877 222.149C249.232 222.579 248.641 223.062 247.942 223.438L245.954 224.674L251.22 233.165C252.832 233.487 254.444 233.917 256.057 234.132C257.722 234.401 259.281 234.67 261 234.884L261.162 234.938L261.269 235.046L263.365 238.001L263.58 238.324L263.204 238.592L260.141 240.688L260.033 240.796L259.872 240.742L258.475 240.527C258.099 241.87 257.722 243.321 257.346 244.665L260.57 245.202C262.183 244.235 263.741 243.106 265.299 241.978L267.61 240.312L269.867 238.592L263.848 230.747C260.57 230.478 257.292 229.887 254.122 229.296L253.961 229.242L253.853 229.135L251.865 226.179L251.65 225.857L251.972 225.642L254.767 223.707L254.874 223.6L255.035 223.653C255.358 223.761 255.68 223.761 256.003 223.868C256.164 222.525 256.325 221.181 256.433 219.784L253.638 219.462ZM262.451 238.162L260.678 235.637L259.657 235.476C259.334 236.873 259.066 238.324 258.743 239.721C259.173 239.828 259.549 239.882 259.979 239.882L262.451 238.162ZM251.543 245.739L251.489 245.901L251.328 245.954C250.199 246.546 249.178 247.244 248.05 247.728L247.673 247.889L247.459 247.567L245.739 244.342L245.685 244.181L245.739 244.02L246.061 243.16C244.718 242.784 243.321 242.354 242.031 241.924L240.956 244.611L245.255 253.746L250.307 251.274C252.026 250.415 253.638 249.447 255.25 248.588C256.003 246.438 256.648 244.181 257.239 241.978L258.099 238.754C258.367 237.625 258.582 236.55 258.851 235.422C257.454 235.207 256.11 235.046 254.713 234.723C253.8 238.324 252.832 242.085 251.543 245.739ZM248.05 246.868C248.963 246.384 249.877 245.901 250.736 245.363L251.059 244.503C249.662 244.181 248.211 243.805 246.814 243.482L246.545 244.181L248.05 246.868ZM238.968 235.637C238.538 236.926 238.108 238.324 237.571 239.613C241.977 241.225 246.599 242.623 251.328 243.697C251.758 242.3 252.241 240.957 252.617 239.506C247.835 238.485 243.321 237.195 238.968 235.637ZM243.374 235.529L241.87 232.842C241.117 233.272 240.258 233.702 239.452 234.078L239.237 234.831C240.526 235.261 241.87 235.744 243.213 236.228L243.374 235.529ZM248.694 234.938L243.536 226.233L239.559 228.49C238.216 229.188 236.818 229.833 235.475 230.532C234.884 232.52 234.185 234.401 233.487 236.389L232.358 239.345C231.982 240.366 231.552 241.225 231.176 242.247C232.412 242.838 233.702 243.375 234.938 243.859C235.636 242.193 236.281 240.473 236.98 238.807C237.625 237.195 238.162 235.368 238.699 233.756L238.753 233.595L238.914 233.541C239.828 233.057 240.903 232.627 241.762 232.09L242.085 231.875L242.3 232.198L244.073 235.368L244.127 235.529L244.073 235.691L243.804 236.497C245.148 236.873 246.384 237.249 247.781 237.571L248.694 234.938ZM231.284 237.733L228.597 238.7L229.671 241.494L230.477 241.87C231.015 240.581 231.606 239.345 232.09 238.109L231.284 237.733ZM231.176 232.466C229.779 233.111 228.274 233.648 226.877 234.186L224.674 234.992L222.471 235.691L225.534 245.095C228.435 246.599 231.445 247.889 234.562 249.179L234.723 249.232L234.776 249.394L236.12 252.779L236.281 253.155L235.905 253.316L232.412 254.66L232.251 254.714L232.09 254.66C231.713 254.499 231.23 254.337 230.8 254.122C230.155 255.305 229.456 256.541 228.758 257.777L231.767 259.066C232.681 258.798 233.54 258.475 234.4 258.153L237.033 257.132C238.807 256.541 240.526 255.681 242.246 254.929L238.323 245.847C236.765 245.256 235.206 244.665 233.648 244.074C232.143 243.429 230.639 242.784 229.188 242.085L229.027 242.139L228.973 241.978L227.791 238.646L227.629 238.27L228.006 238.109L231.176 236.873L231.337 236.819L231.498 236.873L232.358 237.303C232.842 236.067 233.272 234.777 233.702 233.595L231.176 232.466ZM235.153 252.779L234.024 249.931L233.111 249.555C232.466 250.845 231.821 252.134 231.176 253.424L232.251 253.854L235.153 252.779ZM222.847 257.454L222.739 257.562L222.578 257.615C221.396 257.938 220.16 258.314 218.978 258.529L218.548 258.636L218.494 258.26L217.527 254.714L217.473 254.552L217.58 254.445L218.118 253.693C216.882 252.994 215.7 252.242 214.517 251.489L212.852 253.8L214.786 263.688L220.321 262.452C222.148 262.022 223.975 261.485 225.749 261.001C226.393 260.034 226.931 259.066 227.576 258.099L229.241 255.144C229.779 254.176 230.316 253.209 230.854 252.242L232.358 249.232C231.069 248.695 229.779 248.158 228.543 247.567C226.77 250.845 224.942 254.284 222.847 257.454ZM219.193 257.669C220.214 257.4 221.181 257.186 222.148 256.863L222.632 256.057C221.342 255.412 219.999 254.714 218.763 254.015C218.655 254.23 218.44 254.445 218.333 254.66L219.193 257.669ZM213.066 244.557C212.314 245.739 211.562 246.922 210.756 248.05C214.625 250.63 218.763 253.155 223.115 255.358C223.921 254.122 224.62 252.887 225.372 251.597C224.298 251.059 223.223 250.522 222.148 249.985C221.073 249.447 220.052 248.856 219.031 248.265C216.936 247.137 215.001 245.847 213.066 244.557ZM217.312 245.578L216.506 242.623C215.646 242.838 214.732 242.999 213.873 243.214L213.443 243.859C214.625 244.611 215.753 245.417 216.989 246.116L217.312 245.578ZM222.686 246.223L219.784 236.55L215.377 237.733C213.926 238.109 212.422 238.431 210.917 238.754C209.896 240.527 208.767 242.193 207.639 243.966L205.812 246.545C205.167 247.405 204.576 248.211 203.931 249.071C205.006 249.931 206.134 250.737 207.263 251.543C208.338 250.038 209.466 248.588 210.433 247.083C211.454 245.632 212.422 244.02 213.335 242.569L213.389 242.408L213.55 242.354C214.625 242.139 215.7 241.924 216.667 241.602L216.989 241.494L217.097 241.924L218.118 245.417L218.172 245.578L218.118 245.739L217.688 246.492C218.87 247.137 220.052 247.889 221.235 248.534C221.772 247.781 222.202 247.029 222.686 246.223ZM205.113 244.772L202.265 245.148L202.641 248.104L203.286 248.641C204.146 247.567 204.952 246.438 205.758 245.31L205.113 244.772ZM206.188 239.613C204.683 239.936 203.125 240.097 201.567 240.258L199.256 240.527L196.945 240.688L197.698 250.576C198.934 251.597 200.223 252.779 201.513 253.746C202.803 254.714 204.146 255.735 205.49 256.756L205.597 256.863L205.651 257.024L206.134 260.625L206.188 261.001L205.704 261.055L201.997 261.538L201.782 261.538L201.674 261.431C201.298 261.162 200.922 260.893 200.599 260.571C199.686 261.592 198.719 262.559 197.751 263.634L200.384 265.622L201.782 265.515L203.179 265.3L205.973 264.977C207.854 264.816 209.735 264.44 211.562 264.118L209.896 254.391C208.499 253.424 207.155 252.51 205.812 251.597C204.468 250.576 203.179 249.609 201.943 248.588L201.835 248.48L201.782 248.319L201.352 244.772L201.298 244.396L201.674 244.342L205.06 243.966L205.221 243.912L205.328 244.02L206.081 244.665C206.833 243.59 207.585 242.408 208.284 241.387L206.188 239.613ZM205.221 260.356L204.845 257.293L204.039 256.702C203.125 257.83 202.158 258.905 201.244 260.034L202.158 260.732L205.221 260.356ZM192.055 261.914L191.948 262.022L191.733 262.022C190.497 262.076 189.261 262.129 188.025 262.076L187.595 262.076L187.595 261.646L187.487 257.992L187.487 257.777L187.595 257.669L188.347 257.024C187.38 256.057 186.359 255.036 185.445 254.122L183.242 256.003L182.759 266.052L188.401 266.213C190.282 266.267 192.163 266.106 194.043 266.16L195.333 264.977L196.569 263.742L198.934 261.27C199.74 260.464 200.492 259.604 201.191 258.798L203.34 256.218C202.158 255.358 201.083 254.499 200.008 253.639C197.536 256.433 194.903 259.281 192.055 261.914ZM188.508 261.27C189.529 261.323 190.55 261.27 191.571 261.216L192.27 260.517C191.195 259.55 190.121 258.583 189.046 257.615L188.401 258.153L188.508 261.27ZM185.66 247.137C184.693 248.104 183.672 249.125 182.651 249.931C185.768 253.37 189.207 256.809 192.861 259.926C193.882 258.905 194.903 257.992 195.924 256.863C192.216 253.8 188.777 250.576 185.66 247.137ZM189.637 249.071L189.529 245.954C188.616 246.008 187.702 245.954 186.789 245.901L186.198 246.492C187.111 247.513 188.132 248.534 189.1 249.501L189.637 249.071ZM194.688 251.006L194.205 240.957L189.583 241.064C188.079 241.064 186.52 241.011 185.016 241.011C183.565 242.569 182.06 243.859 180.502 245.31L178.137 247.459C177.331 248.158 176.525 248.749 175.719 249.447C176.579 250.522 177.439 251.597 178.352 252.618C181.254 250.253 183.941 247.889 186.413 245.31L186.52 245.202L186.681 245.256C187.756 245.256 188.831 245.363 189.906 245.256L190.282 245.202L190.282 245.632L190.389 249.286L190.389 249.501L190.282 249.609L189.637 250.253C190.604 251.221 191.625 252.134 192.646 253.048L194.688 251.006ZM177.868 245.363L175.02 244.987L174.644 247.943L175.182 248.695C176.256 247.835 177.331 246.975 178.352 246.062C178.245 245.847 178.03 245.632 177.868 245.363ZM180.287 240.688C178.728 240.634 177.17 240.366 175.611 240.204C174.859 240.097 174.053 240.043 173.301 239.936L170.99 239.56L169.378 249.34C170.345 250.63 171.312 252.027 172.333 253.263C173.354 254.499 174.429 255.788 175.558 257.132L175.665 257.239L175.611 257.4L175.235 261.001L175.182 261.377L174.698 261.323L170.99 260.84L170.775 260.84L170.668 260.732C170.399 260.356 170.076 260.034 169.808 259.657C168.626 260.41 167.443 261.162 166.261 261.914L168.303 264.386C170.13 264.709 172.011 264.87 173.892 265.139C174.859 265.246 175.773 265.407 176.686 265.461L179.588 265.784L180.34 255.896C179.212 254.66 178.137 253.478 177.062 252.188C175.988 250.898 175.02 249.609 173.999 248.373L173.892 248.265L173.946 248.104L174.429 244.611L174.483 244.235L174.859 244.289L178.245 244.665L178.406 244.718L178.513 244.826L179.158 245.686C180.179 244.772 181.2 243.859 182.114 242.945L180.287 240.688ZM174.322 260.517L174.698 257.454L174.053 256.702C172.871 257.562 171.689 258.421 170.56 259.228C170.775 259.55 171.044 259.819 171.312 260.087L174.322 260.517ZM161.21 258.905L161.049 258.959L160.887 258.905C159.651 258.636 158.469 258.421 157.233 258.045L156.803 257.938L156.857 257.562L157.663 253.961L157.717 253.8L157.878 253.746L158.792 253.263C158.039 252.08 157.287 250.898 156.642 249.716L154.063 251.006L151.268 260.786L156.696 262.237C158.523 262.667 160.35 263.097 162.231 263.473C164.219 262.344 166.207 261.108 168.088 259.872L170.775 258.045C171.742 257.4 172.602 256.756 173.516 256.057C172.602 254.929 171.689 253.908 170.883 252.779C169.378 253.854 167.766 254.929 166.154 256.003C164.542 256.971 162.929 257.938 161.21 258.905ZM157.878 257.4C158.845 257.723 159.866 257.884 160.834 258.099L161.747 257.615C160.887 256.433 160.081 255.197 159.329 254.015L158.63 254.391L157.878 257.4ZM158.523 242.999C157.341 243.644 156.158 244.396 154.922 244.987C157.126 249.125 159.598 253.209 162.446 257.132C163.735 256.379 164.918 255.735 166.1 254.875C163.306 251.006 160.78 247.083 158.523 242.999ZM161.962 245.901L162.607 242.891C161.747 242.676 160.834 242.408 159.974 242.193L159.221 242.623C159.92 243.859 160.565 245.041 161.264 246.277L161.962 245.901ZM166.369 248.91L168.303 239.022L163.843 238.001C162.392 237.625 160.887 237.195 159.436 236.819L158.093 237.625L156.803 238.377C155.89 238.861 155.03 239.398 154.116 239.882C153.203 240.366 152.236 240.903 151.322 241.387C150.409 241.87 149.441 242.3 148.474 242.73C149.065 243.966 149.602 245.256 150.247 246.438C153.579 244.826 156.75 243.16 159.813 241.279L159.974 241.225L160.135 241.279C161.156 241.548 162.231 241.87 163.306 242.085L163.682 242.139L163.628 242.515L162.876 246.062L162.822 246.223L162.661 246.277L161.855 246.76C162.553 247.889 163.306 249.071 164.112 250.2L166.369 248.91ZM151.43 239.452L148.743 238.485L147.668 241.279L148.098 242.139C149.334 241.548 150.57 240.957 151.806 240.366C151.591 240.043 151.483 239.721 151.43 239.452ZM154.869 235.476C153.364 235.046 151.967 234.401 150.516 233.917C149.817 233.648 149.065 233.434 148.367 233.057L146.271 232.144L142.348 241.225C142.993 242.73 143.584 244.289 144.229 245.793C144.927 247.244 145.626 248.802 146.378 250.307L146.432 250.468L146.378 250.63L145.089 254.069L144.927 254.445L144.551 254.284L141.058 252.94L140.897 252.887L140.843 252.725C140.628 252.295 140.413 251.866 140.198 251.328C138.855 251.812 137.512 252.295 136.114 252.725L137.512 255.735C139.231 256.487 141.004 257.078 142.778 257.777C143.638 258.099 144.551 258.475 145.465 258.744L148.152 259.604L151.215 250.2C150.409 248.749 149.602 247.298 148.958 245.793C148.205 244.289 147.56 242.784 146.862 241.333L146.808 241.172L146.862 241.011L148.152 237.679L148.313 237.303L148.689 237.464L151.859 238.7L152.021 238.754L152.074 238.915L152.504 239.882C153.687 239.237 154.869 238.592 156.051 237.947L154.869 235.476ZM144.497 253.37L145.572 250.468L145.089 249.447C143.799 249.985 142.455 250.576 141.058 251.113C141.273 251.543 141.434 251.919 141.596 252.295L144.497 253.37ZM131.977 248.588L131.815 248.641L131.654 248.588C130.526 247.996 129.397 247.513 128.322 246.868L127.893 246.653L128.054 246.277L129.72 242.999L129.773 242.838L129.935 242.784L130.848 242.515C130.364 241.172 129.988 239.828 129.612 238.485L126.818 239.13L121.659 247.835L126.603 250.63C128.269 251.543 129.988 252.295 131.654 253.209C133.857 252.618 136.114 251.866 138.264 251.113L141.434 249.985C142.509 249.555 143.584 249.125 144.551 248.695C143.96 247.459 143.369 246.223 142.778 244.88C141.004 245.578 139.231 246.169 137.404 246.814L136.061 247.298L134.663 247.728L131.977 248.588ZM129.128 246.384C130.042 246.868 130.956 247.352 131.923 247.781L132.836 247.513C132.299 246.116 131.815 244.772 131.332 243.429L130.579 243.644L129.128 246.384ZM133.159 232.466C131.815 232.842 130.418 233.272 129.128 233.595C130.311 238.109 131.708 242.73 133.535 247.244C134.932 246.814 136.276 246.438 137.726 245.954C135.899 241.44 134.341 236.98 133.159 232.466ZM135.738 236.12L137.082 233.38C136.276 233.004 135.47 232.52 134.717 232.09L133.965 232.305C134.341 233.648 134.717 234.992 135.093 236.335L135.738 236.12ZM139.285 240.097L143.584 230.962L139.5 228.92C138.156 228.221 136.813 227.415 135.47 226.716C133.481 227.415 131.547 227.845 129.505 228.382L126.388 229.135C125.367 229.403 124.346 229.564 123.271 229.779C123.54 231.123 123.755 232.52 124.077 233.81C125.85 233.434 127.678 233.004 129.397 232.574C131.117 232.144 132.89 231.66 134.61 231.123L134.771 231.069L134.932 231.123C135.899 231.66 136.759 232.198 137.78 232.681L138.156 232.842L137.995 233.219L136.437 236.497L136.383 236.658L136.222 236.712L135.416 236.98C135.846 238.27 136.276 239.56 136.759 240.903L139.285 240.097ZM127.086 227.361L124.722 225.749L123.002 228.221L123.11 229.081C124.453 228.812 125.797 228.543 127.14 228.275L127.086 227.361ZM131.385 224.244C130.042 223.438 128.806 222.525 127.516 221.665L125.636 220.322C125.044 219.838 124.4 219.408 123.808 218.924L117.79 226.77C118.166 230.048 118.865 233.219 119.563 236.604L119.617 236.765L119.509 236.873L117.467 239.882L117.252 240.204L116.876 239.936L113.813 237.84L113.706 237.733L113.652 237.571C113.545 237.141 113.437 236.712 113.383 236.228C112.04 236.389 110.643 236.497 109.246 236.604L109.89 239.828C110.589 240.419 111.395 240.903 112.201 241.494L114.566 243.106C116.07 244.181 117.736 245.202 119.295 246.223L124.507 237.786C124.077 236.174 123.701 234.616 123.325 232.95C123.002 231.338 122.68 229.726 122.465 228.114L122.411 227.952L122.519 227.845L124.561 224.943L124.776 224.621L125.098 224.836L127.893 226.77L128.054 226.824L128.107 226.985L128.215 227.952C129.505 227.63 130.794 227.307 132.084 226.985L131.385 224.244ZM116.876 239.076L118.65 236.55L118.435 235.583C117.038 235.798 115.587 235.959 114.136 236.228L114.404 237.356L116.876 239.076ZM106.075 231.606L105.86 231.606L105.753 231.499L102.905 229.081C102.797 228.973 102.69 228.866 102.582 228.758L102.851 228.49L105.215 225.695L105.323 225.588L105.538 225.588C105.86 225.588 106.183 225.588 106.505 225.588C106.398 224.191 106.344 222.74 106.29 221.396L103.442 221.343L96.4023 228.597C97.7995 229.887 99.0892 231.177 100.486 232.466L104.785 236.12C107.096 236.067 109.353 235.852 111.664 235.691C112.792 235.637 113.867 235.529 114.996 235.368L118.327 234.938C118.059 233.595 117.736 232.198 117.575 230.854C115.748 231.069 113.867 231.23 111.932 231.445C110.965 231.553 110.052 231.606 109.031 231.66L106.075 231.606ZM103.818 228.705L106.129 230.693L107.042 230.639C106.881 229.188 106.72 227.737 106.559 226.286L105.806 226.286L103.818 228.705ZM111.126 216.238C109.783 216.291 108.332 216.345 106.935 216.345C106.989 218.656 107.042 221.074 107.204 223.492C107.365 225.91 107.633 228.221 107.956 230.693L110.105 230.585L112.309 230.424C111.932 228.114 111.718 225.642 111.503 223.277C111.395 222.095 111.288 220.913 111.234 219.784C111.18 218.548 111.18 217.366 111.126 216.238ZM112.739 220.322L114.673 217.957L113.652 217.044L112.685 216.076L111.879 216.13C111.879 217.527 111.932 218.978 111.986 220.322L112.739 220.322Z" fill="#C5D92D"/>
<path d="M101.62 221.879C99.5775 221.879 97.5892 221.717 95.4935 221.556L95.2785 221.556L95.171 221.449C94.3112 220.589 93.4514 219.622 92.6454 218.708L92.3229 218.386L92.5916 218.117L95.2785 215.645L95.386 215.537L95.5472 215.591L96.5145 215.699C96.5682 214.355 96.6219 212.904 96.6757 211.561L93.8276 211.185L86.0357 217.58L89.6898 221.879C90.9258 223.329 92.2155 224.619 93.5589 225.963C94.7949 226.016 96.0308 226.178 97.2668 226.231L96.4607 227.037C95.4397 226.984 94.4187 226.93 93.3977 226.876L93.1827 226.876L93.0215 226.715C91.6781 225.264 90.2272 223.813 88.9375 222.308C87.6478 220.804 86.3043 219.245 85.0146 217.741L84.7459 217.365L85.0684 217.15L93.3977 210.432L93.5052 210.325L93.6664 210.379C94.6874 210.54 95.6547 210.647 96.6757 210.809C96.7832 209.411 96.8906 208.014 97.0518 206.671C95.7084 206.51 94.365 206.348 92.9678 206.133L92.6454 209.25L92.5916 209.411L92.4842 209.519L84.2623 216.021L83.9399 216.236L83.6712 215.86C81.1455 212.689 78.8348 209.411 76.6316 206.026L76.5778 205.865L76.6316 205.704L77.169 202.372C76.0405 201.996 74.912 201.727 73.7835 201.351L73.6223 201.297L73.5685 201.136L70.6667 195.87L67.9798 190.496L67.7649 190.066L68.1411 189.905L77.8138 185.391L77.975 185.337L78.1362 185.391L80.9843 186.519C81.468 185.176 81.7904 183.886 82.3278 182.596C81.0918 182.113 79.8558 181.629 78.5661 181.092L77.4377 184.155L77.3839 184.316L77.2227 184.37L67.8186 188.4L67.4425 188.561L67.2275 188.131L66.0453 185.337C65.6691 184.423 65.2392 183.456 64.9168 182.596C64.2182 180.716 63.4659 178.888 62.8211 176.954L62.7673 176.793L62.821 176.632L64.2182 173.407C63.1972 172.816 62.1225 172.171 61.1014 171.58L60.9402 171.526L60.8865 171.365L59.2744 165.562C58.8445 163.627 58.4146 161.692 57.9847 159.65L57.8772 159.221L58.2534 159.167L68.6784 157.125L68.8396 157.071L68.9471 157.179L71.5803 158.844C72.3326 157.662 73.0312 156.534 73.8372 155.298C72.7625 154.545 71.634 153.739 70.5593 152.987L68.7322 155.674L68.6247 155.781L68.4635 155.835L58.1459 157.77L57.7697 157.823L57.716 157.34L57.2323 154.384C57.0711 153.363 56.8562 152.396 56.7487 151.429C56.48 149.44 56.2113 147.452 56.0501 145.464L56.0501 145.249L56.1576 145.141L58.2534 142.401C57.3936 141.541 56.5338 140.681 55.674 139.821L55.5665 139.714L55.5665 139.499L55.459 133.48L55.5665 127.462L55.5665 127.032L55.9964 127.032L66.6364 127.569L66.8514 127.569L66.9588 127.677L68.9471 129.987C69.9681 128.966 70.8817 128.053 72.0102 127.139C71.0966 126.118 70.2368 125.043 69.3233 124.022L66.9588 126.172L66.8514 126.279L66.6902 126.226L56.2113 125.635L55.7814 125.635L55.8352 125.151C56.0501 121.174 56.5338 117.144 57.1249 113.221L57.1786 113.06L57.2861 112.953L59.973 110.803C59.3281 109.836 58.737 108.815 58.1459 107.794L58.0921 107.633L58.1459 107.471L59.4356 101.56L61.0477 95.7565C61.1014 95.5953 61.1552 95.4341 61.1552 95.3267L61.5851 95.4341L71.7952 98.4434L71.9564 98.4972L72.0102 98.6584L73.4073 101.345C74.6433 100.647 75.7718 99.9481 77.0615 99.3032C76.4166 98.121 75.8255 96.885 75.2344 95.6491L72.4401 97.1537L72.2788 97.2075L72.1176 97.1537L62.1225 94.0369L61.7463 93.8757L61.8538 93.4458C63.036 89.5767 64.4332 85.8151 65.9378 82.1609L65.9916 81.9997L66.1528 81.946L69.2696 80.4413C68.8934 79.3129 68.5172 78.1844 68.1948 77.0022L68.1411 76.8409L68.1948 76.6797L70.8817 71.306L73.7835 66.0397L73.9985 65.6098L74.3209 65.8247L83.51 71.2522L83.6712 71.306L83.725 71.4672L84.4235 74.4227C85.767 74.0466 87.0567 73.6167 88.4539 73.2943C88.1314 72.0046 87.8627 70.6611 87.5403 69.3714L84.3698 70.1775L84.2086 70.2312L84.0474 70.1775L75.0732 64.75L74.7508 64.5351L75.0195 64.1589L76.6316 61.5795C77.169 60.7197 77.7063 59.8599 78.2975 59.0538C79.4259 57.3879 80.5544 55.7221 81.7367 54.11L81.8979 53.9488L82.0591 53.895L85.4983 53.2502C85.3908 52.0679 85.3371 50.832 85.2296 49.6498L85.2296 49.4348L85.3908 49.2736C86.6805 47.7689 88.0239 46.2105 89.3136 44.7059C89.9585 43.9536 90.6571 43.255 91.3019 42.5027L93.344 40.3532L93.6664 40.0307L93.9351 40.2994L101.566 47.7152L101.673 47.8227L101.673 48.0376L101.62 51.1007C103.07 51.0469 104.414 50.9932 105.811 50.9932L105.811 50.8857L106.617 50.832C106.671 53.1427 106.725 55.4534 106.832 57.7104L106.886 57.8716L106.778 57.9791C106.026 58.7314 105.381 59.5912 104.683 60.3973L104.414 60.666L104.091 60.451L101.243 58.1403L101.136 58.0328L101.082 57.8716L100.975 57.0118C99.5775 57.1193 98.1803 57.2267 96.7832 57.3342C96.8369 58.2478 96.9444 59.215 96.9981 60.1286L104.898 66.4159L105.596 65.5023L106.348 64.6425L107.853 62.9229C108.337 62.3318 108.82 61.7407 109.358 61.2033L110.916 59.5375C110.862 58.3015 110.755 57.1193 110.755 55.8296L111.507 55.8296C111.561 57.173 111.615 58.409 111.722 59.6987L111.776 59.8599L111.668 59.9674L110.003 61.7407C109.465 62.3855 108.982 62.9767 108.39 63.5678C107.369 64.8037 106.295 65.986 105.327 67.2757L105.112 67.5981L104.79 67.3831L96.407 60.8272L96.2995 60.7197L96.2458 60.5585C96.1383 59.5912 96.0846 58.5702 96.0308 57.5492C94.6874 57.7104 93.2902 57.9253 91.8931 58.1403C92.0005 59.5375 92.2155 60.9346 92.323 62.3318L95.4397 61.9019L95.6009 61.8482L95.7084 61.9556L104.038 68.3504L104.36 68.5654L104.145 68.8878C103.662 69.5864 103.124 70.1237 102.641 70.8223L101.243 72.8644L99.8462 74.9064L98.5565 76.9484L98.449 77.0559L98.2878 77.1096L95.386 77.647C95.6547 78.5605 95.9771 79.5278 96.2458 80.4414L96.2995 80.6026L96.2458 80.7638C94.6337 83.5581 93.1828 86.4062 91.8931 89.308L91.7318 89.6842L91.3557 89.523L81.6292 85.1703L81.468 85.1165L81.4142 84.9553C81.0381 84.0418 80.7694 83.1282 80.447 82.1609C79.1035 82.6446 77.8138 83.182 76.5241 83.7193C77.0615 85.1165 77.5451 86.4599 78.0288 87.8034L80.8231 86.6212L80.9843 86.5674L81.1456 86.6212L90.7646 90.759L91.1407 90.9202L90.9795 91.2963L90.0122 93.5533L89.1524 95.8103L88.2926 98.0673C88.024 98.8733 87.809 99.6256 87.5403 100.324L87.4866 100.485L87.3254 100.539L84.6385 101.829C85.1221 102.635 85.6595 103.495 86.1431 104.301L86.2506 104.408L86.1969 104.57C85.2833 107.633 84.6385 110.749 84.0474 113.92L83.9936 114.296L83.6175 114.242L73.1387 112.361L72.9774 112.308L72.87 112.2C72.3326 111.34 71.7415 110.534 71.2578 109.621C70.0756 110.373 69.0009 111.233 67.8724 112.039C68.6784 113.275 69.4845 114.403 70.3443 115.586L72.8162 113.759L72.9237 113.651L73.0849 113.705L83.4563 115.478L83.8324 115.532L83.7787 115.908L83.4025 118.326L83.1338 120.744L82.8651 123.163L82.7039 125.581L82.6502 125.742L82.5427 125.85L80.232 127.73C80.9306 128.429 81.6292 129.128 82.3278 129.826L82.4352 129.934L82.4352 130.041C82.3278 133.265 82.3815 136.436 82.5427 139.606L82.5965 139.983L82.1666 139.983L71.5265 140.627L71.3116 140.627L71.2041 140.52C70.4518 139.875 69.6995 139.123 69.0009 138.424C68.0336 139.499 67.2275 140.52 66.2602 141.595C67.335 142.562 68.4098 143.529 69.4308 144.443L71.3653 142.078L71.4728 141.971L71.634 141.917L82.0591 141.165L82.4352 141.111L82.489 141.487C82.5427 142.293 82.5964 143.099 82.6502 143.905L82.9189 146.324L83.1876 148.742L83.5637 151.16L83.6175 151.321L83.51 151.429L81.6829 153.793C82.489 154.277 83.3488 154.814 84.2086 155.351L84.3698 155.405L84.4235 155.566C85.0684 158.683 85.9282 161.8 86.8417 164.863L86.9492 165.185L86.573 165.347L76.4166 168.517L76.2554 168.571L76.0942 168.517C75.2882 168.034 74.3746 167.55 73.5685 167.066C72.87 168.302 72.2789 169.538 71.634 170.828C72.87 171.526 74.1597 172.171 75.3419 172.816L76.7391 170.022L76.7928 169.861L76.954 169.807L86.9492 166.583L87.3254 166.421L87.4328 166.744C87.7015 167.55 87.9165 168.302 88.2389 169.055L89.0987 171.311L89.9585 173.568L90.9258 175.825L90.9795 175.987L90.9258 176.148L89.7435 178.835C90.6033 179.157 91.6244 179.426 92.5379 179.695L92.6991 179.748L92.7528 179.91C94.15 182.811 95.6547 185.606 97.3205 188.346L97.5355 188.669L97.2131 188.884L88.1314 194.419L87.9702 194.472L87.809 194.419C86.8417 194.204 85.9282 193.935 84.9609 193.613C84.5847 194.956 84.3161 196.299 84.0474 197.75C85.4983 198.127 86.8417 198.503 88.2389 198.825L88.8837 195.816L88.9375 195.655L89.0449 195.547L97.9116 190.012L98.2341 189.797L98.449 190.12L99.7387 192.162L101.136 194.204L102.533 196.246C103.017 196.944 103.5 197.535 104.038 198.18L104.145 198.288L104.091 198.449L103.662 201.351C104.629 201.458 105.542 201.512 106.563 201.566L106.725 201.619L106.832 201.727C107.907 202.909 108.874 204.199 110.003 205.327L113.281 208.82C113.388 208.928 113.442 208.982 113.549 209.089L113.281 209.358L105.757 216.881L105.65 216.988L105.435 216.988L102.479 216.827C102.479 218.117 102.479 219.514 102.533 220.857L101.62 221.879ZM93.5589 218.439C94.2038 219.192 94.9561 219.944 95.6009 220.696L96.6219 220.75C96.6219 219.245 96.6219 217.848 96.5682 216.397L95.7621 216.344L93.5589 218.439ZM102.211 206.886C100.813 206.778 99.4163 206.671 98.0729 206.51C97.643 211.131 97.3205 215.967 97.428 220.804C98.8789 220.857 100.276 220.965 101.727 221.019C101.673 218.601 101.727 216.182 101.727 213.818L101.781 212.045L101.888 210.325C102.049 209.196 102.103 208.068 102.211 206.886ZM103.447 211.238L105.704 209.089C105.059 208.444 104.521 207.692 103.93 206.993L103.017 206.939C102.909 208.337 102.802 209.734 102.694 211.131C102.963 211.185 103.178 211.185 103.447 211.238ZM105.381 216.182L112.582 209.089L109.465 205.757C108.444 204.629 107.477 203.447 106.456 202.318C104.36 202.264 102.372 201.996 100.276 201.834C98.2341 201.619 96.0308 201.351 93.9888 200.921C93.7739 202.318 93.5052 203.661 93.3977 205.059C95.2785 205.327 97.0518 205.596 98.8252 205.757C100.545 205.972 102.479 206.08 104.199 206.187L104.36 206.241L104.468 206.348C105.166 207.154 105.811 208.014 106.563 208.767L106.832 209.035L106.563 209.304L103.93 211.83L103.823 211.937L103.608 211.937L102.694 211.883C102.641 213.227 102.641 214.624 102.587 215.967L105.381 216.182ZM98.2878 199.954L96.6757 197.589L94.2038 199.309L94.0425 200.222C95.4397 200.437 96.7294 200.652 98.1266 200.867L98.2878 199.954ZM103.447 198.556C102.963 197.965 102.479 197.374 102.049 196.729L100.706 194.849L99.3626 192.968C98.9327 192.323 98.5565 191.624 98.1266 190.979L89.7435 196.246C88.9912 199.47 88.5076 202.64 88.0239 206.026L87.9702 206.187L87.8627 206.295L84.9072 208.39L84.5847 208.605L84.3161 208.229L82.2203 205.166L82.1128 205.059L82.1665 204.897C82.2203 204.414 82.3278 203.984 82.3815 203.5C81.0381 203.124 79.6409 202.802 78.2437 202.372L77.7063 205.596C78.19 206.402 78.7273 207.154 79.3185 207.96L80.9306 210.325C82.0053 211.937 83.1338 213.388 84.3161 214.893L92.108 208.82C92.2692 207.154 92.4842 205.542 92.6454 203.876C92.9141 202.211 93.1827 200.652 93.4514 198.986L93.5052 198.825L93.6126 198.718L96.5682 196.729L96.8906 196.514L97.1056 196.837L99.0401 199.631L99.1476 199.739L99.0939 199.9L98.8789 200.867C100.222 201.028 101.566 201.19 102.909 201.243L103.447 198.556ZM84.746 207.477L87.2716 205.704L87.4328 204.682C86.0356 204.36 84.5847 204.091 83.1876 203.769L83.0264 205.005L84.746 207.477ZM77.1152 196.622L76.954 196.568L76.9003 196.407L75.1269 193.129L74.9657 192.753L75.2881 192.538L78.4587 190.764L78.6199 190.711L78.7811 190.764C79.1035 190.872 79.3185 190.979 79.6409 191.087C80.0171 189.743 80.4469 188.346 80.8768 187.057L78.19 185.982L69.0546 190.281L71.5265 195.332L74.3209 200.276C76.5241 200.975 78.7811 201.619 80.9306 202.264C82.0591 202.533 83.1338 202.855 84.2086 203.07L87.4866 203.769C87.7015 202.372 87.9165 200.975 88.1314 199.685C86.3043 199.255 84.4773 198.825 82.6502 198.288C81.7366 198.019 80.7694 197.804 79.8558 197.535L77.1152 196.622ZM75.9867 193.129L77.4914 195.816L78.3512 196.138C78.7273 194.687 79.0498 193.29 79.3722 191.893L78.6199 191.678L75.9867 193.129ZM87.1641 183.994C85.8744 183.564 84.4773 183.134 83.1338 182.65C82.3815 184.8 81.6292 187.057 80.9306 189.367C80.232 191.678 79.6409 193.989 79.1572 196.407L81.1993 197.052L83.295 197.643C83.7249 195.278 84.3698 192.914 85.0146 190.657C85.3371 189.475 85.6595 188.4 86.0356 187.272C86.4118 186.143 86.788 185.015 87.1641 183.994ZM87.2716 188.4L89.9585 186.895C89.4749 186.089 89.0987 185.283 88.7225 184.477L87.9702 184.262C87.5403 185.552 87.0029 186.949 86.6805 188.239L87.2716 188.4ZM87.9165 193.666L96.6219 188.508C95.0636 185.874 93.6126 183.241 92.3229 180.447C91.3557 180.124 90.3347 179.856 89.3674 179.533L86.4118 178.512L83.4563 177.384L82.0053 176.793L80.5544 176.202C79.9633 177.438 79.4797 178.674 78.996 180.017C80.6619 180.716 82.3815 181.36 84.0474 182.059C85.767 182.704 87.4866 183.241 89.1524 183.725L89.3136 183.779L89.3674 183.94L90.066 185.391L90.8183 186.788L91.0332 187.11L90.7108 187.325L87.594 189.152L87.4328 189.206L87.2716 189.152L86.4656 188.884C86.0894 190.227 85.767 191.517 85.3908 192.86C86.1431 193.183 87.0029 193.505 87.9165 193.666ZM85.0684 176.309C84.6385 175.449 84.3698 174.536 83.9936 173.622L81.1993 174.697L80.8231 175.503C82.1128 176.04 83.295 176.578 84.6385 177.061L85.0684 176.309ZM90.2809 176.148L89.3136 173.998L88.5076 171.795C87.9165 170.344 87.3791 168.947 86.9492 167.442L77.5451 170.613L76.4166 172.816C76.0942 173.568 75.7718 174.321 75.4494 175.073C74.8045 176.578 74.1059 178.136 73.5148 179.695L73.4611 179.856L73.2999 179.91L69.9144 181.253L69.5382 181.414L69.377 181.038L68.0336 177.545L67.9798 177.384L68.0336 177.223L68.5172 175.987C67.335 175.342 66.099 174.643 64.8631 173.945L63.5734 176.954C64.1645 178.727 64.8631 180.501 65.5617 182.274C65.8841 183.134 66.2602 184.047 66.6364 184.853L67.7649 187.486L76.8465 183.456C77.4377 181.898 78.0288 180.339 78.5661 178.835C79.211 177.33 79.8558 175.825 80.5007 174.321L80.5544 174.16L80.7156 174.106L84.0474 172.816L84.4235 172.655L84.5847 173.031C85.0146 174.106 85.3371 175.181 85.8207 176.202L85.8744 176.363L85.8207 176.524L85.3908 177.384C86.6268 177.867 87.9165 178.297 89.0987 178.727L90.2809 176.148ZM69.9681 180.232L72.8162 179.103L73.1924 178.19C71.9027 177.545 70.613 176.9 69.3233 176.255L68.8934 177.33L69.9681 180.232ZM65.2392 167.98L65.078 167.926L65.0243 167.765L64.057 164.218L63.9495 163.788L64.3794 163.681L67.9261 162.714L68.0873 162.66L68.1948 162.767C68.4635 162.928 68.7322 163.09 69.0009 163.251C69.6995 162.015 70.4518 160.833 71.1504 159.597L68.8397 157.931L58.9519 159.973C59.3818 161.8 59.758 163.681 60.1879 165.508L61.6388 170.935C65.6154 173.407 69.4845 175.557 73.5685 177.491C74.1059 176.202 74.6433 174.912 75.2344 173.676C73.5685 172.87 71.9027 171.956 70.2906 170.989L67.7649 169.538L65.2392 167.98ZM64.9705 164.272L65.7766 167.227L66.5827 167.711C67.2813 166.368 67.9261 165.078 68.6247 163.842L67.9798 163.412L64.9705 164.272ZM78.0288 158.092C76.8465 157.34 75.6643 156.587 74.4821 155.835C73.1924 157.77 71.9564 159.758 70.7205 161.854C69.4845 163.949 68.356 166.045 67.2275 168.248C68.4635 169.055 69.6994 169.753 71.0429 170.452C72.0639 168.248 73.1924 166.153 74.3746 164.111C74.9657 163.09 75.5568 162.069 76.1479 161.048C76.7928 160.08 77.3839 159.059 78.0288 158.092ZM77.0615 162.391L80.0171 161.585L79.6946 160.295L79.4259 158.952L78.7811 158.522C78.0288 159.704 77.2764 160.886 76.5241 162.069L77.0615 162.391ZM76.4166 167.765L86.0894 164.863C85.2296 161.961 84.4235 159.006 83.7787 155.996C82.9189 155.459 82.0053 154.975 81.0918 154.384L78.5124 152.665C76.7928 151.482 74.9657 150.3 73.3536 149.01C72.4938 150.085 71.6877 151.214 70.9354 152.288C72.4401 153.363 73.891 154.384 75.3419 155.405C76.8465 156.372 78.4049 157.393 79.9096 158.253L80.0708 158.307L80.1245 158.468L80.5007 160.027L80.8769 161.585L80.9843 161.907L80.5544 162.015L77.0615 163.036L76.9003 163.09L76.7391 163.036L75.9867 162.606C75.3419 163.788 74.5896 164.97 73.9985 166.206C74.8583 166.851 75.6106 167.281 76.4166 167.765ZM77.8138 150.139C77.6526 149.225 77.5451 148.258 77.4377 147.291L74.4821 147.667L73.9447 148.312C75.0195 149.172 76.1479 149.978 77.2764 150.784L77.8138 150.139ZM82.9726 151.214L82.5965 148.903L82.3278 146.592C82.1666 145.034 81.9516 143.529 81.8441 141.917L71.9564 142.669L70.398 144.55C69.8607 145.195 69.4308 145.84 68.8934 146.485C67.8724 147.828 66.9051 149.118 65.9378 150.515L65.8303 150.623L65.6691 150.676L62.0687 151.16L61.6926 151.214L61.6388 150.73L61.1552 147.022L61.1552 146.807L61.2627 146.7L62.015 145.625C60.994 144.711 60.0267 143.744 58.9519 142.777L56.9637 145.41C57.1249 147.291 57.3936 149.172 57.6085 150.999L57.8235 152.396L58.0384 153.793L58.4683 156.587L68.2485 154.868C69.2158 153.471 70.1293 152.127 71.0429 150.784C72.0102 149.494 73.0312 148.151 73.9985 146.861L74.1059 146.753L74.2671 146.7L77.8138 146.27L78.19 146.216L78.2437 146.592C78.4049 147.721 78.4587 148.849 78.7274 149.978L78.7811 150.139L78.6736 150.246L78.0288 150.999C79.1035 151.751 80.232 152.45 81.3067 153.202L82.9726 151.214ZM62.2299 150.354L65.293 149.978L65.8841 149.172C64.7556 148.258 63.6808 147.291 62.5524 146.377L61.8538 147.291L62.2299 150.354ZM60.5641 137.188L60.4566 137.081L60.4566 136.866C60.4029 135.63 60.3491 134.394 60.4029 133.158L60.4029 132.728L60.8328 132.728L64.4869 132.62L64.7019 132.62L64.8093 132.728L65.4542 133.48C66.4215 132.513 67.4425 131.492 68.4098 130.525L66.5289 128.321L56.4263 127.892L56.2651 133.534L56.4263 139.176C59.7043 142.454 62.9285 145.571 66.4215 148.419C67.2813 147.237 68.1411 146.162 68.9471 145.034C67.4962 143.798 66.1528 142.562 64.7019 141.218C64.0033 140.52 63.2509 139.875 62.6061 139.23L60.5641 137.188ZM61.2089 133.641L61.2627 136.705L61.9613 137.403C62.9285 136.328 63.8958 135.146 64.8631 134.179L64.272 133.588L61.2089 133.641ZM75.3956 130.74C74.4283 129.772 73.5148 128.751 72.4938 127.73C70.8279 129.289 69.1083 130.901 67.4425 132.674C65.7229 134.394 64.1645 136.167 62.5524 137.994L64.057 139.499L65.6154 140.95C67.12 139.123 68.7859 137.349 70.3443 135.576C71.2041 134.716 71.9564 133.856 72.7625 133.05C73.676 132.352 74.4821 131.546 75.3956 130.74ZM73.4073 134.77L76.5241 134.663C76.4704 133.749 76.5241 132.835 76.5241 131.976L75.933 131.385C74.912 132.298 73.891 133.319 72.9237 134.286L73.4073 134.77ZM71.5265 139.768L81.6292 139.23C81.468 136.167 81.4142 133.104 81.5217 130.095C80.7694 129.342 80.0708 128.644 79.3185 127.892L77.2227 125.581C75.8255 124.076 74.3746 122.41 73.0849 120.798L71.4728 122.088L69.9144 123.431C71.0966 124.829 72.2789 126.226 73.5148 127.569C74.7508 128.913 76.0405 130.202 77.2764 131.438L77.3839 131.546L77.3302 131.707L77.3302 133.319L77.3302 134.931L77.3839 135.307L76.954 135.307L73.3536 135.469L73.1387 135.469L73.0312 135.361L72.3863 134.716C71.419 135.684 70.5055 136.705 69.592 137.726C70.1831 138.532 70.8279 139.176 71.5265 139.768ZM77.0615 122.948C77.169 121.98 77.2764 121.013 77.4377 120.1L74.4821 119.723L73.7835 120.315C74.6433 121.389 75.5031 122.464 76.4166 123.485L77.0615 122.948ZM81.7904 125.312C81.8441 124.506 81.8441 123.754 81.9516 123.001L82.2203 120.691L82.489 118.38C82.5965 117.628 82.7577 116.822 82.8652 116.069L73.0849 114.457C70.398 116.392 67.9261 118.434 65.293 120.637L65.1855 120.744L65.0243 120.691L61.4239 120.315L61.0477 120.261L61.1014 119.777L61.5851 116.069L61.5851 115.854L61.6926 115.747L62.7673 114.887C62.015 113.705 61.2089 112.576 60.4566 111.394L57.9847 113.436C57.4473 117.198 56.9637 120.906 56.8024 124.614L66.6902 125.258C67.9261 124.13 69.1621 123.001 70.398 121.98C71.6877 120.906 72.9237 119.885 74.2134 118.917L74.3209 118.81L74.4821 118.864L78.0288 119.294L78.4049 119.347L78.3512 119.723C78.19 120.852 78.0288 121.98 77.975 123.109L77.9213 123.27L77.8138 123.378L76.954 124.022C77.8676 125.044 78.7811 126.065 79.6946 126.978L81.7904 125.312ZM61.9075 119.509L64.9706 119.885L65.7229 119.24C64.8631 118.058 64.057 116.929 63.1972 115.747L62.3374 116.499L61.9075 119.509ZM63.4122 106.397L63.3584 106.235L63.4122 106.074C63.6808 104.838 63.8958 103.656 64.2182 102.474L64.3257 102.044L64.7019 102.098L68.3023 102.904L68.4635 102.957L68.5172 103.119L69.0009 104.032C70.1831 103.28 71.3653 102.527 72.5475 101.883L71.2578 99.3032L61.5851 96.5089L60.1342 101.936L58.8982 107.471C60.0267 109.46 61.3164 111.394 62.5524 113.275C63.7883 115.156 65.078 116.983 66.4215 118.756C67.5499 117.843 68.6247 116.983 69.6995 116.123C67.4962 112.953 65.293 109.675 63.4122 106.397ZM64.8631 103.011L64.2182 106.02L64.7556 106.88C65.9378 106.02 67.1738 105.214 68.356 104.355L67.9261 103.602L64.8631 103.011ZM79.3185 103.602C78.6736 102.42 77.9213 101.238 77.2227 100.002C75.1807 101.077 73.1924 102.313 71.0966 103.548C69.0546 104.838 67.12 106.128 65.1318 107.579L66.2065 109.406C66.5827 109.997 67.0126 110.642 67.3887 111.233C69.2695 109.782 71.3116 108.492 73.2999 107.149C74.2671 106.504 75.2344 105.859 76.2554 105.268C77.2227 104.731 78.2437 104.14 79.3185 103.602ZM76.4704 106.988L79.4797 107.633C79.6409 106.719 79.9096 105.913 80.1783 104.999L79.7484 104.247C78.5661 104.892 77.2764 105.644 76.148 106.343L76.4704 106.988ZM73.4073 111.448L83.3488 113.329C83.6712 111.824 83.9936 110.319 84.316 108.815L84.5847 107.686L84.9072 106.612L85.4983 104.408C84.9609 103.548 84.3698 102.635 83.8862 101.721L82.3815 99.0345C81.4142 97.2075 80.3395 95.2729 79.5334 93.3921L77.6526 94.3056L75.8255 95.2729C76.6316 96.9388 77.4914 98.5509 78.2975 100.109C79.1573 101.721 80.0708 103.28 81.0381 104.784L81.0918 104.946L81.0381 105.107L80.6619 106.665C80.5544 107.203 80.447 107.74 80.2857 108.224L80.232 108.6L79.8558 108.546L76.2554 107.847L76.0942 107.794L75.9867 107.686L75.5031 106.88C74.3746 107.579 73.1924 108.331 72.0639 109.137C72.4401 109.836 72.87 110.696 73.4073 111.448ZM82.8114 96.4551C83.1338 95.5953 83.51 94.6818 83.7787 93.7683L80.9843 92.6935L80.1245 93.1234C80.7156 94.3594 81.3068 95.5953 81.8979 96.8313L82.8114 96.4551ZM86.8417 99.8406C87.0567 99.0883 87.3254 98.3897 87.5403 97.6374L88.4001 95.4879L89.2062 93.2846C89.4749 92.586 89.7973 91.8337 90.1197 91.1889L80.9843 87.3198C77.8676 88.502 75.0195 89.9529 71.9027 91.4575L71.7415 91.5113L71.5803 91.4575L68.1411 90.2753L67.7649 90.1141L67.9261 89.7379L69.2695 86.245L69.3233 86.0838L69.4845 86.03C69.9144 85.8151 70.3443 85.6001 70.7742 85.3852C70.2906 84.0418 69.8069 82.6983 69.377 81.3011L66.3677 82.6983C64.9168 86.1913 63.6271 89.7379 62.4986 93.3384L71.9564 96.3477C73.4073 95.5416 74.912 94.7893 76.3092 94.037C77.8138 93.2846 79.3185 92.6398 80.7694 91.9412L80.9306 91.8874L81.0918 91.9412L84.4235 93.2309L84.7997 93.3921L84.6385 93.7683C84.2086 94.843 83.8324 95.864 83.4563 96.9925L83.4025 97.1537L83.2413 97.2075L82.274 97.6374C82.9189 98.8196 83.5637 100.002 84.2086 101.184L86.8417 99.8406ZM68.8396 89.5767L71.7415 90.6515L72.7625 90.1679C72.2251 88.8781 71.634 87.5347 71.0966 86.1375L69.9681 86.7286L68.8396 89.5767ZM73.5148 77.0559L73.4611 76.8947L73.5148 76.7335C74.0522 75.6587 74.5896 74.4765 75.1269 73.4017L75.3419 72.9718L75.7181 73.133L78.9961 74.7989L79.1573 74.8526L79.211 75.0139L79.4797 75.9274C80.8231 75.4438 82.1665 75.0676 83.51 74.6914L82.8651 71.8971L74.1597 66.8458L71.3653 71.7896L68.8934 76.8409C69.5382 79.0979 70.3443 81.3011 71.0429 83.3969C71.7952 85.5464 72.6013 87.6422 73.5148 89.7379C74.7508 89.1468 76.0405 88.502 77.2764 87.9109C76.5779 86.1375 75.933 84.4179 75.3419 82.5371C75.0732 81.6236 74.697 80.71 74.4284 79.7965L73.5148 77.0559ZM75.7718 74.1541L74.4283 76.8947L74.697 77.8082C76.0942 77.2708 77.4377 76.7872 78.7811 76.3036L78.5661 75.5512L75.7718 74.1541ZM89.6898 78.1844C89.3136 76.8409 88.9375 75.4975 88.5613 74.1541C86.3581 74.7452 84.0474 75.4438 81.7367 76.1424C79.4259 76.8409 77.2227 77.7545 74.912 78.668L75.5568 80.71L76.2554 82.8058C78.4049 81.8385 80.7694 81.0862 82.9726 80.2801C84.1011 79.904 85.1759 79.4741 86.3044 79.2054C87.4328 78.8292 88.5613 78.4531 89.6898 78.1844ZM86.0894 80.71L88.83 82.0535C89.2062 81.2474 89.6898 80.4414 90.1197 79.689L89.9048 78.9367C88.5613 79.3129 87.1642 79.6353 85.8745 80.0652L86.0894 80.71ZM82.0591 84.3104L91.2482 88.5557C92.5916 85.8151 93.9351 83.0745 95.4397 80.3876C95.1173 79.4203 94.7949 78.4531 94.5262 77.4321L93.7201 74.4765L92.9678 71.4672L92.5916 69.9088L92.323 68.3504C90.9795 68.6191 89.6361 68.8878 88.3464 69.2102C88.7225 70.9836 89.0987 72.7569 89.5823 74.5302C90.066 76.3036 90.6034 78.0232 91.087 79.689L91.1407 79.8502L91.087 80.0114L90.3347 81.4086C90.066 81.8923 89.9048 82.3759 89.6361 82.8595L89.4749 83.2357L89.0987 83.0745L85.8207 81.5161L85.6595 81.4624L85.6058 81.3012L85.3371 80.4951C84.0474 80.925 82.7577 81.3549 81.4142 81.8385C81.5217 82.5909 81.7367 83.4506 82.0591 84.3104ZM94.7949 72.112C95.2785 71.306 95.8696 70.4999 96.407 69.7476L93.9351 68.028L93.0753 68.1355C93.344 69.4789 93.6127 70.8223 93.9888 72.1658L94.7949 72.112ZM97.9117 76.3036L99.1476 74.3153L100.491 72.4345C101.405 71.1985 102.211 69.8551 103.232 68.6191L95.3323 62.6542L92.8603 62.9767L90.4421 63.4603C88.83 63.7827 87.2179 64.1052 85.552 64.4813L85.3908 64.535L85.2833 64.4276L82.274 62.3856L81.9516 62.1706L82.2203 61.7944L84.3161 58.7314L84.4235 58.6239L84.5847 58.5702L85.9282 58.3015C85.767 56.9581 85.6595 55.5609 85.552 54.1637L82.3278 54.8086C81.253 56.3132 80.1783 57.9253 79.1035 59.43C78.5661 60.1823 78.0825 60.9884 77.5989 61.7944L76.0942 64.1589L84.531 69.3714C86.1431 68.9415 87.7553 68.5116 89.3674 68.1892C90.9795 67.8668 92.5916 67.5443 94.2038 67.2219L94.365 67.1682L94.4725 67.2757L97.3743 69.3177L97.6967 69.5326L97.4817 69.8551C96.8369 70.8223 96.1383 71.7359 95.5472 72.6494L95.4935 72.8106L95.3323 72.8644L94.365 72.9718C94.6874 74.2615 95.0098 75.5512 95.386 76.7872L97.9117 76.3036ZM82.9726 61.9019L85.552 63.6215L86.5193 63.4066C86.3044 62.0094 86.0894 60.6122 85.8745 59.1076L84.746 59.3762L82.9726 61.9019ZM90.4421 50.9932L90.4421 50.7782L90.5496 50.6708L92.9678 47.8227L93.2902 47.5003L93.5589 47.7689L96.3533 50.1334L96.4607 50.2409L96.4607 50.4558L96.4608 51.4231C97.8042 51.2619 99.2551 51.2081 100.652 51.1007L100.706 48.2526L93.4514 41.213L91.5169 43.255C90.872 43.8998 90.2272 44.6522 89.6361 45.3508L85.9819 49.6497C86.2506 54.3249 86.6268 58.7851 87.3791 63.1916C88.7763 62.8692 90.1197 62.6005 91.4632 62.3318C91.1945 60.451 90.9795 58.6239 90.872 56.6894C90.6571 54.8623 90.4421 52.9278 90.4421 50.9932ZM93.2902 48.7899L91.3019 51.1007L91.3557 52.0142C92.8066 51.853 94.2575 51.6918 95.7084 51.5306L95.7084 50.7782L93.2902 48.7899ZM105.865 55.9908C105.811 54.6473 105.757 53.1964 105.757 51.7993C103.447 51.853 101.028 51.9067 98.6102 52.0679C96.2458 52.2829 93.8276 52.5516 91.4094 52.8203C91.4631 54.2712 91.6244 55.7221 91.7318 57.2267C92.9141 57.0118 94.0963 56.9043 95.2785 56.6894C96.4607 56.5819 97.6967 56.4207 98.8252 56.3669C101.19 56.152 103.5 55.9908 105.865 55.9908ZM101.727 57.6566L104.091 59.5912C104.683 58.8926 105.274 58.194 105.919 57.5492L105.865 56.7431C104.468 56.7431 103.07 56.8506 101.673 56.9581L101.727 57.6566Z" fill="#C5D92D"/>
</svg>
